<?xml version="1.0" encoding="UTF-8" standalone="no"?>
<!DOCTYPE svg PUBLIC "-//W3C//DTD SVG 1.1//EN" "http://www.w3.org/Graphics/SVG/1.1/DTD/svg11.dtd">
<svg version="1.1" xmlns="http://www.w3.org/2000/svg" xmlns:xlink="http://www.w3.org/1999/xlink" preserveAspectRatio="xMidYMid meet" viewBox="0 0 20 20" width="20" height="20"><defs><path d="M328.09 317.11C328.09 328.15 319.13 337.11 308.09 337.11C297.05 337.11 288.09 328.15 288.09 317.11C288.09 306.07 297.05 297.11 308.09 297.11C319.13 297.11 328.09 306.07 328.09 317.11Z" id="fggCveeaf"></path><path d="M6.26 19.97C6.27 19.95 6.28 19.81 6.31 19.55C6.56 19.55 6.7 19.55 6.73 19.55C6.79 19.54 6.85 19.51 6.89 19.47C6.97 19.41 7.01 19.33 7.03 19.25C7.03 19.22 7.03 19.19 7.03 19.15C7.03 18.92 7.03 18.71 7.03 18.42C7.03 18.1 7.02 17.7 7.02 17.25C3.2 17.87 2.31 15.45 2.28 15.35C1.67 13.97 0.83 13.61 0.83 13.61C0.83 13.61 0.8 13.6 0.8 13.6C-1.12 12.41 1.02 12.44 1.03 12.44C1.03 12.44 1.04 12.44 1.05 12.44C2.55 12.53 3.35 13.78 3.39 13.85C3.39 13.85 3.39 13.85 3.39 13.85C3.85 14.56 4.41 14.91 4.97 15.05C5.78 15.26 6.6 15.05 7.08 14.87C7.15 14.51 7.26 14.2 7.4 13.94C7.49 13.76 7.6 13.61 7.71 13.47C6.25 13.29 4.79 12.91 3.65 12.04C2.39 11.08 1.53 9.54 1.53 7.02C1.53 7.02 1.53 7.02 1.53 7.02C1.53 6.32 1.67 5.68 1.91 5.11C2.15 4.53 2.51 4.02 2.95 3.57C2.86 3.35 2.75 2.97 2.71 2.48C2.66 1.87 2.74 1.07 3.14 0.16C3.14 0.16 3.15 0.15 3.15 0.15C3.15 0.15 3.32 0.01 3.56 0C3.73 -0.01 3.97 0 4.3 0.06C4.94 0.18 5.92 0.5 7.28 1.32C7.81 1.19 8.36 1.09 8.92 1.02C9.53 0.95 10.15 0.91 10.77 0.91C10.77 0.91 10.77 0.91 10.77 0.91C11.38 0.91 12 0.95 12.61 1.02C13.17 1.09 13.72 1.19 14.26 1.32C16.98 -0.32 18.24 0.04 18.24 0.04C18.25 0.04 18.28 0.05 18.35 0.07C18.37 0.13 18.39 0.16 18.39 0.16C18.79 1.08 18.87 1.87 18.82 2.48C18.79 2.97 18.67 3.35 18.58 3.56C19.02 4.02 19.38 4.53 19.62 5.1C19.87 5.68 20 6.32 20 7.02C20 9.54 19.14 11.09 17.87 12.04C16.73 12.9 15.27 13.28 13.81 13.46C13.98 13.67 14.13 13.91 14.25 14.21C14.42 14.61 14.52 15.09 14.52 15.66C14.52 16.68 14.51 17.74 14.5 18.45C14.5 18.71 14.5 18.9 14.5 19.15C14.5 19.15 14.5 19.15 14.5 19.15C14.5 19.18 14.5 19.22 14.51 19.25C14.53 19.34 14.57 19.42 14.64 19.48C14.68 19.51 14.73 19.54 14.79 19.55C14.82 19.55 14.97 19.55 15.23 19.55C15.26 19.81 15.27 19.95 15.28 19.97C15.17 19.99 15.07 20 14.98 20C14.89 20 14.81 19.99 14.73 19.98C13.94 19.98 7.58 19.98 6.79 19.98C6.71 19.99 6.63 20 6.55 20C6.46 20 6.37 19.99 6.26 19.97Z" id="dKPRQ6DoV"></path></defs><g><g><g><use xlink:href="#fggCveeaf" opacity="1" fill="#14bb33" fill-opacity="1"></use></g><g><use xlink:href="#dKPRQ6DoV" opacity="1" fill="#8c8c8c" fill-opacity="1"></use><g><use xlink:href="#dKPRQ6DoV" opacity="1" fill-opacity="0" stroke="#000000" stroke-width="1" stroke-opacity="0"></use></g></g></g></g></svg>