<?xml version="1.0" encoding="UTF-8"?>
<svg width="21px" height="20px" viewBox="0 0 21 20" version="1.1" xmlns="http://www.w3.org/2000/svg" xmlns:xlink="http://www.w3.org/1999/xlink">
    <!-- Generator: Sketch 46.2 (44496) - http://www.bohemiancoding.com/sketch -->
    <title>linkedin copy</title>
    <desc>Created with Sketch.</desc>
    <defs></defs>
    <g id="WIREFRAMES" stroke="none" stroke-width="1" fill="none" fill-rule="evenodd">
        <g id="Homepage---Tile-View-Copy" transform="translate(-860.000000, -2125.000000)" fill="#8C8C8C">
            <g id="linkedin-copy" transform="translate(860.500000, 2125.000000)">
                <path d="M17.04,17.04375 L14.0775,17.04375 L14.0775,12.4025 C14.0775,11.295 14.055,9.87125 12.535,9.87125 C10.99125,9.87125 10.755,11.07625 10.755,12.32125 L10.755,17.04375 L7.7925,17.04375 L7.7925,7.5 L10.6375,7.5 L10.6375,8.8 L10.675,8.8 C11.0725,8.05 12.04,7.25875 13.48375,7.25875 C16.48375,7.25875 17.04,9.23375 17.04,11.805 L17.04,17.04 L17.04,17.04375 Z M4.4475,6.19375 C3.495,6.19375 2.7275,5.4225 2.7275,4.4725 C2.7275,3.525 3.495,2.75375 4.4475,2.75375 C5.3975,2.75375 6.1675,3.525 6.1675,4.4725 C6.1675,5.4225 5.39625,6.19375 4.4475,6.19375 Z M5.9325,17.04375 L2.9625,17.04375 L2.9625,7.5 L5.9325,7.5 L5.9325,17.04375 L5.9325,17.04375 Z M18.52,0 L1.475,0 C0.66,0 0,0.645 0,1.44125 L0,18.55875 C0,19.355 0.66,20 1.475,20 L18.51875,20 C19.33375,20 20,19.355 20,18.55875 L20,1.44125 C20,0.645 19.33375,0 18.51875,0 L18.52,0 Z" id="Shape"></path>
            </g>
        </g>
    </g>
</svg>