<?xml version="1.0" encoding="UTF-8"?>
<svg width="20px" height="18px" viewBox="0 0 20 18" version="1.1" xmlns="http://www.w3.org/2000/svg" xmlns:xlink="http://www.w3.org/1999/xlink">
    <!-- Generator: Sketch 46.2 (44496) - http://www.bohemiancoding.com/sketch -->
    <title>medium copy</title>
    <desc>Created with Sketch.</desc>
    <defs></defs>
    <g id="WIREFRAMES" stroke="none" stroke-width="1" fill="none" fill-rule="evenodd">
        <g id="Homepage---Tile-View-Copy" transform="translate(-903.000000, -2125.000000)" fill="#8C8C8C">
            <g id="medium-copy" transform="translate(903.000000, 2125.000000)">
                <path d="M14.78,14.7288 L14.435,15.2988 L15.4325,15.8029333 L18.8625,17.5408 C19.05,17.6370667 19.23,17.6801333 19.385,17.6801333 C19.7325,17.6801333 19.96875,17.4559333 19.96875,17.0569333 L19.96875,6.18513333 L14.78125,14.7288 L14.78,14.7288 Z M19.9,3.7468 C19.895,3.743 19.9,3.73413333 19.89625,3.7316 L13.865,0.6764 C13.79,0.6384 13.71125,0.628266667 13.63125,0.620666667 C13.61125,0.620666667 13.59375,0.608 13.5725,0.608 C13.3425,0.608 13.1125,0.724533333 12.98875,0.929733333 L12.68875,1.42373333 L12.06375,2.4548 L9.70125,6.35613333 L12.06375,10.2524 L12.68875,11.2822 L13.31375,12.3107333 L14.05125,13.5140667 L19.93875,3.83673333 C19.96375,3.79873333 19.95125,3.76073333 19.91375,3.7354 L19.9,3.7468 Z M12.0625,12.6704667 L8.9625,7.562 L8.59375,6.9578 L8.22625,6.3536 L7.91375,5.82666667 L7.91375,11.9915333 L12.06375,14.098 L12.68875,14.4146667 L13.31375,14.7313333 L12.68875,13.7015333 L12.06375,12.6717333 L12.0625,12.6704667 Z M0.92125,0.861333333 L0.7375,0.770133333 C0.63125,0.716933333 0.53,0.6916 0.4375,0.6916 C0.18,0.6916 0,0.894266667 0,1.23246667 L0,14.1043333 C0,14.4488667 0.25,14.8567333 0.5525,15.0112667 L5.73375,17.6459333 C5.8675,17.7219333 5.99375,17.7472667 6.10875,17.7472667 C6.43,17.7472667 6.65625,17.4939333 6.65625,17.0759333 L6.65625,3.81266667 C6.65625,3.78733333 6.64125,3.762 6.61875,3.75313333 L0.9225,0.861333333 L0.92125,0.861333333 Z" id="Shape"></path>
            </g>
        </g>
    </g>
</svg>