<?xml version="1.0" encoding="UTF-8"?>
<svg width="21px" height="20px" viewBox="0 0 21 20" version="1.1" xmlns="http://www.w3.org/2000/svg" xmlns:xlink="http://www.w3.org/1999/xlink">
    <!-- Generator: Sketch 46.2 (44496) - http://www.bohemiancoding.com/sketch -->
    <title>slack copy</title>
    <desc>Created with Sketch.</desc>
    <defs></defs>
    <g id="WIREFRAMES" stroke="none" stroke-width="1" fill="none" fill-rule="evenodd">
        <g id="Homepage---Tile-View-Copy" transform="translate(-1030.000000, -2125.000000)" fill="#8C8C8C">
            <g id="slack-copy" transform="translate(1030.500000, 2125.000000)">
                <polygon id="Shape" points="8.2325 9.1625 9.095 11.73375 11.76625 10.83875 10.90375 8.27625 8.2325 9.17625"></polygon>
                <path d="M15.6875,11.7125 L14.39125,12.14625 L14.84125,13.4875 C15.0225,14.03 14.72875,14.6175 14.18625,14.8 C14.06125,14.8375 13.94875,14.85625 13.82375,14.8525 C13.39875,14.84 13.01125,14.57 12.86125,14.145 L12.41125,12.805 L9.73625,13.7 L10.18625,15.04 C10.36125,15.58375 10.07375,16.17125 9.52375,16.3525 C9.39875,16.3925 9.28625,16.40875 9.16125,16.40625 C8.73625,16.39375 8.34875,16.12375 8.19875,15.69875 L7.74875,14.34875 L6.44875,14.78625 C6.32375,14.82375 6.21125,14.83625 6.08625,14.83625 C5.66125,14.82375 5.27375,14.54875 5.12375,14.12375 C4.93625,13.57375 5.23625,12.98625 5.77375,12.81125 L7.07375,12.37375 L6.25,9.8 L4.9575,10.2375 C4.84,10.2775 4.72,10.29375 4.60125,10.29125 C4.18875,10.27875 3.78875,10.01 3.65125,9.585 C3.47625,9.04375 3.76375,8.45625 4.31375,8.2725 L5.61375,7.84 L5.16375,6.5025 C4.98875,5.9575 5.27625,5.37 5.82625,5.19 C6.37625,5.00625 6.96375,5.3025 7.13875,5.8425 L7.58875,7.1825 L10.25,6.2875 L9.8,4.95 C9.625,4.4125 9.9125,3.825 10.4575,3.6375 C11.00125,3.4625 11.59,3.75 11.77,4.2975 L12.22,5.6475 L13.51625,5.2225 C14.05875,5.04 14.64625,5.335 14.82875,5.8725 C15.01,6.4175 14.71625,7.005 14.175,7.185 L12.8775,7.6225 L13.74,10.19375 L15.0325,9.76375 C15.57625,9.58875 16.16375,9.87625 16.345,10.42625 C16.5275,10.97625 16.2325,11.56375 15.695,11.73875 L15.6875,11.7125 Z M19.1625,7.25 C17.1,0.38 14.1225,-1.225 7.25,0.8375 C0.38,2.9 -1.225,5.875 0.8375,12.75 C2.9,19.62125 5.875,21.225 12.75,19.1625 C19.62125,17.1 21.225,14.125 19.1625,7.25 L19.1625,7.25 Z" id="Shape"></path>
            </g>
        </g>
    </g>
</svg>