<?xml version="1.0" encoding="UTF-8" standalone="no"?>
<!DOCTYPE svg PUBLIC "-//W3C//DTD SVG 1.1//EN" "http://www.w3.org/Graphics/SVG/1.1/DTD/svg11.dtd">
<svg version="1.1" xmlns="http://www.w3.org/2000/svg" xmlns:xlink="http://www.w3.org/1999/xlink" preserveAspectRatio="xMidYMid meet" viewBox="0 0 20 20" width="20" height="20"><defs><path d="M7 10.69C6.88 10.76 6.83 10.89 6.87 11.02C6.96 11.34 7.68 13.92 7.77 14.24C7.8 14.33 7.93 14.32 7.94 14.22C7.96 14 8.12 12.22 8.14 12C8.15 11.83 8.23 11.67 8.36 11.57C8.92 11.07 13.42 7.15 13.99 6.66C14.04 6.6 13.97 6.49 13.9 6.54C12.52 7.37 7.69 10.27 7 10.69Z" id="ahXprwtOC"></path><path d="M17.33 0.09L17.7 0.2L18.06 0.35L18.39 0.54L18.7 0.76L18.98 1.01L19.24 1.3L19.46 1.6L19.65 1.94L19.8 2.29L19.91 2.67L19.98 3.05L20 3.46L20 16.54L19.98 16.95L19.91 17.33L19.8 17.71L19.65 18.06L19.46 18.4L19.24 18.7L18.99 18.99L18.7 19.24L18.4 19.46L18.06 19.65L17.71 19.8L17.33 19.91L16.95 19.98L16.54 20L3.46 20L3.05 19.98L2.67 19.91L2.29 19.8L1.94 19.65L1.6 19.46L1.3 19.24L1.01 18.99L0.76 18.7L0.54 18.4L0.35 18.06L0.2 17.71L0.09 17.33L0.02 16.95L0 16.54L0 3.46L0.02 3.05L0.09 2.67L0.2 2.29L0.35 1.94L0.54 1.6L0.76 1.3L1.01 1.01L1.3 0.76L1.6 0.54L1.94 0.35L2.29 0.2L2.67 0.09L3.05 0.02L3.46 0L16.54 0L16.94 0.02L17.33 0.09ZM16.4 3.76L3.19 9.26L3.05 9.35L2.96 9.45L2.89 9.58L2.87 9.72L2.88 9.86L2.92 9.99L3 10.11L3.11 10.2L3.26 10.26L5.92 10.96L5.97 10.98L6.02 11L6.07 11.03L6.12 11.07L6.16 11.11L6.2 11.15L6.23 11.2L6.26 11.25L6.28 11.31L7.62 15.45L7.68 15.56L7.76 15.66L7.85 15.73L7.96 15.78L8.08 15.81L8.2 15.8L8.32 15.77L8.43 15.71L8.52 15.62L10.04 13.87L10.11 13.8L10.19 13.75L10.27 13.71L10.35 13.69L10.44 13.68L10.53 13.69L10.62 13.71L10.7 13.75L10.78 13.8L13.74 16.15L13.85 16.22L13.96 16.25L14.07 16.27L14.19 16.25L14.3 16.22L14.4 16.15L14.48 16.07L14.55 15.97L14.59 15.85L17.12 4.37L17.13 4.23L17.11 4.1L17.06 3.99L16.98 3.89L16.89 3.81L16.78 3.76L16.66 3.73L16.53 3.73L16.4 3.76Z" id="e453FSkZB"></path></defs><g><g><g><use xlink:href="#ahXprwtOC" opacity="1" fill="#8c8c8c" fill-opacity="1"></use><g><use xlink:href="#ahXprwtOC" opacity="1" fill-opacity="0" stroke="#000000" stroke-width="1" stroke-opacity="0"></use></g></g><g><use xlink:href="#e453FSkZB" opacity="1" fill="#8c8c8c" fill-opacity="1"></use><g><use xlink:href="#e453FSkZB" opacity="1" fill-opacity="0" stroke="#000000" stroke-width="1" stroke-opacity="0"></use></g></g></g></g></svg>