<?xml version="1.0" encoding="UTF-8"?>
<svg width="20px" height="15px" viewBox="0 0 20 15" version="1.1" xmlns="http://www.w3.org/2000/svg" xmlns:xlink="http://www.w3.org/1999/xlink">
    <!-- Generator: Sketch 46.2 (44496) - http://www.bohemiancoding.com/sketch -->
    <title>youtube copy</title>
    <desc>Created with Sketch.</desc>
    <defs></defs>
    <g id="WIREFRAMES" stroke="none" stroke-width="1" fill="none" fill-rule="evenodd">
        <g id="Homepage---Tile-View-Copy" transform="translate(-988.000000, -2127.000000)" fill="#8C8C8C">
            <g id="youtube-copy" transform="translate(988.000000, 2127.000000)">
                <path d="M0,6.68125 C0,5.06375 0.2,3.44375 0.2,3.44375 C0.2,3.44375 0.395,2.06875 0.995,1.46 C1.755,0.66375 2.755,0.68875 3.2,0.605 C4.8,0.45 10,0.405 10,0.405 C10,0.405 14.2025,0.41 17,0.6125 C17.3925,0.66 18.245,0.6625 19.005,1.46 C19.605,2.0675 19.8,3.445 19.8,3.445 C19.8,3.445 20,5.0625 20,6.6825 L20,8.255 C20,9.875 19.8,11.4925 19.8,11.4925 C19.8,11.4925 19.605,12.87 19.005,13.4775 C18.245,14.275 17.3925,14.2775 17,14.325 C14.2025,14.5275 10,14.5325 10,14.5325 C10,14.5325 4.8,14.48625 3.2,14.3325 C2.755,14.24875 1.755,14.27375 0.995,13.4775 C0.395,12.86875 0.2,11.49375 0.2,11.49375 C0.2,11.49375 0,9.875 0,8.25625 L0,6.68125 Z M7.935,10.09375 L7.935,4.475 L13.33875,7.29375 L7.93875,10.09375 L7.935,10.09375 Z" id="Shape"></path>
            </g>
        </g>
    </g>
</svg>