<?xml version="1.0" encoding="UTF-8"?>
<svg width="24px" height="24px" viewBox="0 0 24 24" version="1.1" xmlns="http://www.w3.org/2000/svg" xmlns:xlink="http://www.w3.org/1999/xlink">
    <!-- Generator: Sketch 42 (36781) - http://www.bohemiancoding.com/sketch -->
    <title>516</title>
    <desc>Created with Sketch.</desc>
    <defs></defs>
    <g id="Wireframes---CURRENT" stroke="none" stroke-width="1" fill="none" fill-rule="evenodd">
        <g id="User-Profile-Copy-2" transform="translate(-224.000000, -755.000000)" fill="#4990E2">
            <g id="Group-6" transform="translate(196.000000, 388.000000)">
                <g id="516" transform="translate(28.000000, 367.000000)">
                    <g id="Layer_1">
                        <g id="Group">
                            <path d="M8.943,20.5205 L8.943,20.5205 C8.8105,20.5205 8.683,20.468 8.5895,20.374 L3.625,15.408 C3.4295,15.2125 3.4295,14.8965 3.625,14.701 L18.1825,0.1465 C18.378,-0.049 18.694,-0.049 18.8895,0.1465 L23.8535,5.1085 C23.9475,5.202 24,5.3295 24,5.462 C24,5.5945 23.9475,5.722 23.8535,5.8155 L9.2965,20.374 C9.2025,20.468 9.0755,20.5205 8.943,20.5205 Z M4.6855,15.0545 L8.943,19.3135 L22.793,5.462 L18.536,1.207 L4.6855,15.0545 Z" id="Shape"></path>
                            <path d="M0.5,24 C0.37,24 0.242,23.949 0.1465,23.8535 C0.0035,23.7105 -0.0395,23.4955 0.038,23.3085 L3.528,14.8745 C3.5915,14.72 3.7285,14.6085 3.8925,14.5755 C4.0565,14.5405 4.2255,14.594 4.3435,14.712 L9.2895,19.657 C9.4075,19.775 9.459,19.944 9.4265,20.108 C9.394,20.2715 9.2815,20.4085 9.127,20.4725 L0.691,23.962 C0.6295,23.988 0.5645,24 0.5,24 Z M4.166,15.9485 L1.423,22.577 L8.053,19.835 L4.166,15.9485 Z" id="Shape"></path>
                            <path d="M20.245,8.739 C20.117,8.739 19.989,8.69 19.8915,8.5925 L15.4605,4.157 C15.265,3.9615 15.265,3.6455 15.4605,3.45 C15.656,3.255 15.972,3.2545 16.1675,3.4505 L20.5985,7.886 C20.794,8.0815 20.794,8.3975 20.5985,8.593 C20.501,8.69 20.373,8.739 20.245,8.739 Z" id="Shape"></path>
                            <path d="M7.909,16.591 C7.781,16.591 7.653,16.542 7.5555,16.4445 C7.36,16.249 7.36,15.933 7.5555,15.7375 L16.261,7.032 C16.4565,6.8365 16.7725,6.8365 16.968,7.032 C17.1635,7.2275 17.1635,7.5435 16.968,7.739 L8.2625,16.4445 C8.165,16.542 8.037,16.591 7.909,16.591 Z" id="Shape"></path>
                        </g>
                    </g>
                </g>
            </g>
        </g>
    </g>
</svg>