<svg width="20" height="20" viewBox="0 0 20 20" version="1.1" xmlns="http://www.w3.org/2000/svg" xmlns:xlink="http://www.w3.org/1999/xlink">
<title>441</title>
<desc>Created using Figma</desc>
<g id="Canvas" transform="translate(-587 -4943)">
<g id="441">
<g id="Layer_1">
<g id="Group">
<g id="Shape">
<use xlink:href="#path0_fill" transform="translate(587 4946.42)"/>
</g>
<g id="Shape">
<use xlink:href="#path1_fill" transform="translate(587 4943)"/>
</g>
</g>
</g>
</g>
</g>
<defs>
<path id="path0_fill" fill-rule="evenodd" d="M 17.0279 16.5792L 2.97208 16.5792C 1.33333 16.5792 0 15.1783 0 13.4567L 0 0.416667C 0 0.186667 0.186667 0 0.416667 0L 17.0279 0C 18.6667 0 20 1.4 20 3.12042L 20 13.4571C 20 15.1788 18.6667 16.5792 17.0279 16.5792ZM 0.833313 0.833496L 0.833313 13.4568C 0.833313 14.7189 1.7929 15.746 2.97206 15.746L 17.0279 15.746C 18.2071 15.746 19.1666 14.7193 19.1666 13.4572L 19.1666 3.12058C 19.1666 1.85933 18.2071 0.833496 17.0279 0.833496L 0.833313 0.833496Z"/>
<path id="path1_fill" fill-rule="evenodd" d="M 9.37667 4.06708L 8.73792 1.88625C 8.43583 0.909583 7.50083 0.833333 7.22167 0.833333L 1.69458 0.833333C 1.21958 0.833333 0.833333 1.25333 0.833333 1.76917L 0.833333 3.95L 0 3.95L 0 1.76917C 0 0.79375 0.76 0 1.69458 0L 7.22167 0C 8.09417 0 9.16042 0.4325 9.53583 1.64583L 10.1763 3.83292L 9.37667 4.06708Z"/>
</defs>
</svg>
