<svg width="20" height="20" viewBox="0 0 20 20" version="1.1" xmlns="http://www.w3.org/2000/svg" xmlns:xlink="http://www.w3.org/1999/xlink">
<title>1078</title>
<desc>Created using Figma</desc>
<g id="Canvas" transform="translate(-587 -4803)">
<g id="1078">
<g id="Layer_1">
<g id="Group">
<g id="Group">
<g id="Shape">
<use xlink:href="#path0_fill" transform="translate(587.239 4810.39)"/>
</g>
<g id="Shape">
<use xlink:href="#path1_fill" transform="translate(594.598 4803.01)"/>
</g>
<g id="Shape">
<use xlink:href="#path2_fill" transform="translate(590.462 4806.23)"/>
</g>
</g>
<g id="Shape">
<use xlink:href="#path3_fill" transform="translate(595.466 4811.19)"/>
</g>
<g id="Shape">
<use xlink:href="#path4_fill" transform="translate(595.477 4811.68)"/>
</g>
</g>
</g>
</g>
</g>
<defs>
<path id="path0_fill" fill-rule="evenodd" d="M 3.97265 8.16571L 0 4.19306L 4.19306 0L 4.7702 0.577143L 1.15429 4.19306L 3.97265 7.01102L 7.46898 3.51429L 8.04612 4.09143L 3.97265 8.16571Z"/>
<path id="path1_fill" fill-rule="evenodd" d="M 4.03184 8.12531L 3.45469 7.54816L 7.0302 3.97306L 4.21224 1.15429L 0.577143 4.78939L 0 4.21224L 4.21224 0L 8.18449 3.97306L 4.03184 8.12531Z"/>
<path id="path2_fill" fill-rule="evenodd" d="M 6.65596 9.10041C 5.68412 9.10041 4.67474 8.64857 3.88657 7.86041L 1.23882 5.21265C -0.162814 3.81102 -0.41261 1.77959 0.682084 0.684082C 1.12984 0.236327 1.738 0 2.44127 0C 3.4131 0 4.42249 0.452245 5.21106 1.24082L 7.85923 3.88857C 9.26127 5.2898 9.51025 7.32163 8.41474 8.41714C 7.96739 8.86408 7.35923 9.10041 6.65596 9.10041ZM 2.44125 0.816406C 1.95921 0.816406 1.55064 0.970284 1.25921 1.2613C 0.495944 2.02539 0.750638 3.57069 1.81554 4.63559L 4.46329 7.28335C 5.09023 7.90988 5.90941 8.28416 6.65554 8.28416C 7.13758 8.28416 7.54656 8.13028 7.83758 7.83926C 8.60125 7.07559 8.34696 5.53028 7.28207 4.46539L 4.6339 1.81763C 4.00696 1.19069 3.18737 0.816406 2.44125 0.816406Z"/>
<path id="path3_fill" fill-rule="evenodd" d="M 0.939592 7.62653C 0.628163 7.62653 0.314694 7.60449 0 7.56082L 0.112653 6.75265C 1.93796 7.00857 3.72857 6.40816 5.02816 5.10898C 6.32898 3.80735 6.93918 1.94367 6.66041 0.123673L 7.46735 0C 7.7849 2.07551 7.08898 4.20122 5.60531 5.68612C 4.34775 6.94367 2.68531 7.62653 0.939592 7.62653Z"/>
<path id="path4_fill" fill-rule="evenodd" d="M 1.12 10.7322C 0.748571 10.7322 0.374694 10.7122 0 10.6727L 0.0865306 9.86122C 2.98939 10.1698 5.83429 9.16531 7.8951 7.10367C 9.78612 5.21306 10.7829 2.69918 10.702 0.024898L 11.5184 0C 11.6049 2.85959 10.4943 5.65959 8.47225 7.68082C 6.50204 9.65143 3.87061 10.7322 1.12 10.7322Z"/>
</defs>
</svg>
