<?xml version="1.0" encoding="utf-8"?>
<!-- Generator: Adobe Illustrator 16.0.0, SVG Export Plug-In . SVG Version: 6.00 Build 0)  -->
<!DOCTYPE svg PUBLIC "-//W3C//DTD SVG 1.1//EN" "http://www.w3.org/Graphics/SVG/1.1/DTD/svg11.dtd">
<svg version="1.1" id="Layer_1" xmlns="http://www.w3.org/2000/svg" xmlns:xlink="http://www.w3.org/1999/xlink" x="0px" y="0px"
	 width="48px" height="48px" viewBox="0 0 48 48" enable-background="new 0 0 48 48" xml:space="preserve">
<g>
	<path d="M24.161,36.891c-0.271,0-0.531-0.11-0.719-0.306c-8.746-9.06-22.009-22.742-23.02-23.632
		c-0.356-0.251-0.518-0.717-0.366-1.148c0.183-0.521,0.754-0.795,1.275-0.612c0.291,0.102,0.564,0.197,22.828,23.257l22.119-23.032
		c0.383-0.397,1.017-0.411,1.414-0.028c0.398,0.382,0.411,1.016,0.029,1.414l-22.839,23.78c-0.188,0.196-0.449,0.308-0.72,0.308
		C24.162,36.891,24.162,36.891,24.161,36.891z"/>
</g>
</svg>
