<?xml version="1.0" encoding="utf-8"?>
<!-- Generator: Adobe Illustrator 16.0.0, SVG Export Plug-In . SVG Version: 6.00 Build 0)  -->
<!DOCTYPE svg PUBLIC "-//W3C//DTD SVG 1.1//EN" "http://www.w3.org/Graphics/SVG/1.1/DTD/svg11.dtd">
<svg version="1.1" id="Layer_1" xmlns="http://www.w3.org/2000/svg" xmlns:xlink="http://www.w3.org/1999/xlink" x="0px" y="0px"
	 width="48px" height="48px" viewBox="0 0 48 48" enable-background="new 0 0 48 48" xml:space="preserve">
<g>
	<path fill-rule="evenodd" clip-rule="evenodd" d="M45.817,39.271c0-0.174-0.049-0.332-0.121-0.477
		c-0.465-3.541-2.477-6.572-5.334-8.441v-9.626c0-7.128-4.563-13.175-10.924-15.418C29.36,2.365,26.964,0,23.999,0
		c-2.961,0-5.359,2.365-5.438,5.31C12.202,7.553,7.636,13.6,7.636,20.728v9.626c-2.855,1.869-4.867,4.9-5.332,8.441
		c-0.072,0.145-0.121,0.303-0.121,0.477c0,0.107,0.031,0.205,0.061,0.303c-0.018,0.266-0.061,0.52-0.061,0.789h1.09h1.092h39.271
		h1.092h1.09c0-0.27-0.043-0.523-0.059-0.789C45.786,39.477,45.817,39.379,45.817,39.271z M4.628,38.182
		c0.559-2.445,2.057-4.598,4.203-6.002l0.988-0.646v-1.18v-9.626c0-5.993,3.805-11.362,9.467-13.36l1.416-0.499l0.039-1.5
		c0.049-1.786,1.479-3.187,3.258-3.187s3.211,1.4,3.26,3.187l0.039,1.5l1.416,0.499c5.662,1.998,9.467,7.367,9.467,13.36v9.626v1.18
		l0.986,0.646c2.146,1.404,3.645,3.557,4.205,6.002H4.628z"/>
	<path fill-rule="evenodd" clip-rule="evenodd" d="M23.999,45.818c-1.807,0-3.271-1.467-3.271-3.273h-2.182
		c0,3.014,2.441,5.455,5.453,5.455c3.014,0,5.455-2.441,5.455-5.455h-2.182C27.272,44.352,25.808,45.818,23.999,45.818z"/>
</g>
</svg>
