<?xml version="1.0" encoding="utf-8"?>
<!DOCTYPE svg PUBLIC "-//W3C//DTD SVG 1.1//EN" "http://www.w3.org/Graphics/SVG/1.1/DTD/svg11.dtd" [
	<!ENTITY ns_extend "http://ns.adobe.com/Extensibility/1.0/">
	<!ENTITY ns_ai "http://ns.adobe.com/AdobeIllustrator/10.0/">
	<!ENTITY ns_graphs "http://ns.adobe.com/Graphs/1.0/">
	<!ENTITY ns_vars "http://ns.adobe.com/Variables/1.0/">
	<!ENTITY ns_imrep "http://ns.adobe.com/ImageReplacement/1.0/">
	<!ENTITY ns_sfw "http://ns.adobe.com/SaveForWeb/1.0/">
	<!ENTITY ns_custom "http://ns.adobe.com/GenericCustomNamespace/1.0/">
	<!ENTITY ns_adobe_xpath "http://ns.adobe.com/XPath/1.0/">
]>
<svg version="1.1" id="Layer_1" xmlns:x="&ns_extend;" xmlns:i="&ns_ai;" xmlns:graph="&ns_graphs;"
	 xmlns="http://www.w3.org/2000/svg" xmlns:xlink="http://www.w3.org/1999/xlink" x="0px" y="0px" width="97.974px"
	 height="97.21px" viewBox="0 0 97.974 97.21" enable-background="new 0 0 97.974 97.21" xml:space="preserve">
	<g>
		<g>
			<path fill="#0084bf" d="M21.166,75.373c-0.117-0.255-0.174-0.528-0.17-0.81C20.991,74.845,21.048,75.118,21.166,75.373"/>
			<path d="M40.793,68.911c-0.035,0.012-0.066,0.024-0.1,0.036c-0.248,0.073-0.5,0.122-0.755,0.149
				c-0.019,0.004-0.038,0.006-0.055,0.006c-0.106,0.01-0.213,0.012-0.319,0.019c-0.031,0-0.062,0.004-0.091,0.004
				c-0.116,0-0.231-0.011-0.346-0.017c-0.021-0.002-0.046-0.002-0.065-0.006c-0.13-0.013-0.263-0.028-0.393-0.053
				c-0.004,0-0.01-0.004-0.016-0.004c-0.105-0.021-0.207-0.05-0.31-0.076l-6.507,2.366c0.121,0.333,0.151,0.698,0.072,1.053
				c-0.14,0.631-0.592,1.145-1.198,1.367l-5.864,2.132l15.107-5.492c0.258-0.094,0.495-0.242,0.688-0.44l6.071-6.073
				c0.188-0.188,0.33-0.409,0.425-0.646l-4.636,4.635C42.006,68.364,41.417,68.711,40.793,68.911"/>
			<path d="M25.839,66.191c0.102-0.015,0.202-0.021,0.304-0.021c0.294,0,0.582,0.067,0.841,0.2l2.847-5.714
				c-0.527-1.506-0.193-3.246,1.009-4.449l6.342-6.34c-0.254,0.09-0.492,0.236-0.69,0.437l-6.977,6.977
				c-0.146,0.143-0.264,0.31-0.356,0.493l-6.998,14.033l2.291-4.594C24.722,66.673,25.239,66.292,25.839,66.191"/>
			<path fill="#0084bf" d="M64.06,22.987c0.839-0.836,1.936-1.254,3.033-1.254C65.996,21.733,64.899,22.151,64.06,22.987"/>
			<path fill="#0084bf" d="M36.44,67.868c0.194,0.194,0.401,0.361,0.619,0.508C36.842,68.229,36.634,68.062,36.44,67.868"/>
			<polyline fill="#0084bf" points="37.858,68.811 37.867,68.814 37.858,68.811 			"/>
			<path fill="#0084bf" d="M37.114,68.419c0.035,0.021,0.071,0.039,0.107,0.063C37.185,68.458,37.148,68.439,37.114,68.419"/>
			<path fill="#0084bf" d="M39.062,69.103c0.02,0.004,0.044,0.004,0.065,0.006C39.106,69.106,39.082,69.106,39.062,69.103"/>
			<path fill="#0084bf" d="M39.883,69.103c0.018,0,0.036-0.002,0.053-0.006C39.919,69.101,39.9,69.103,39.883,69.103"/>
			<path fill="#0084bf" d="M39.564,69.119c-0.032,0.002-0.062,0.006-0.091,0.006C39.501,69.125,39.532,69.121,39.564,69.119"/>
			<path fill="#0084bf" d="M40.693,68.947c0.034-0.008,0.065-0.024,0.1-0.036C40.758,68.923,40.727,68.939,40.693,68.947"/>
			<path fill="#0084bf" d="M38.654,69.046c0.005,0.004,0.011,0.004,0.016,0.004C38.665,69.05,38.659,69.05,38.654,69.046"/>
			<path fill="#0084bf" d="M38.282,66.697c0.351,0.225,0.762,0.347,1.189,0.347c0.591,0,1.147-0.227,1.562-0.645l33.22-33.22
				c0.416-0.417,0.648-0.974,0.648-1.563c0-0.428-0.123-0.836-0.352-1.188L38.282,66.697z"/>
			<rect x="2.987" y="3.104" fill="none" width="92" height="92.001"/>
			
				<rect x="50.349" y="19.959" transform="matrix(0.7073 0.707 -0.707 0.7073 47.9435 -24.4643)" fill="#0084bf" width="6.325" height="51.399"/>
			<path fill="#0084bf" d="M68.78,24.583l-0.126-0.129c-0.416-0.416-0.971-0.646-1.561-0.646v-2.074v2.074
				c-0.59,0-1.145,0.23-1.562,0.651l-33.22,33.218c-0.862,0.861-0.861,2.261,0,3.123l0.126,0.127L68.78,24.583z"/>
			<path d="M67.093,23.808c0.59,0,1.145,0.23,1.561,0.646l0.126,0.129l0.897-0.897l0.668,0.669l-0.897,0.897l4.474,4.47l1.468-1.467
				l0.335,0.332l-5.602-5.602c-0.836-0.834-1.932-1.252-3.029-1.252V23.808z"/>
			<path d="M29.833,60.657c0.205,0.588,0.539,1.143,1.009,1.613l5.598,5.598c0.194,0.194,0.402,0.361,0.619,0.512
				c0.019,0.011,0.036,0.027,0.054,0.039c0.035,0.021,0.071,0.039,0.106,0.062c0.207,0.126,0.42,0.238,0.639,0.33
				c0.003,0,0.006,0,0.008,0.004c0.156,0.062,0.316,0.112,0.477,0.155c0.103,0.026,0.205,0.056,0.31,0.076
				c0.005,0.004,0.011,0.004,0.016,0.004c0.129,0.024,0.26,0.04,0.393,0.053c0.021,0.004,0.043,0.004,0.065,0.006
				c0.114,0.006,0.229,0.017,0.346,0.017l0,0c0.028,0,0.059-0.004,0.091-0.006c0.106,0,0.213-0.007,0.319-0.017
				c0.018,0,0.036-0.006,0.053-0.008c0.254-0.029,0.509-0.074,0.757-0.147c0.034-0.008,0.065-0.024,0.099-0.036
				c0.625-0.2,1.215-0.547,1.71-1.043l4.636-4.633L75.722,34.65c1.561-1.565,1.665-4.029,0.316-5.71l-1.486,1.487
				c0.227,0.349,0.35,0.761,0.35,1.188c0,0.59-0.23,1.146-0.648,1.563l-33.22,33.22c-0.417,0.418-0.974,0.645-1.561,0.645
				c-0.43,0-0.84-0.122-1.191-0.347l-0.539,0.539l-0.668-0.667l0.501-0.502l-4.473-4.472l-1.072,1.071l-0.668-0.668l1.074-1.072
				L32.311,60.8c-0.861-0.862-0.861-2.262,0-3.123l33.22-33.218c0.418-0.421,0.973-0.651,1.562-0.651v-2.074
				c-1.098,0-2.194,0.418-3.033,1.254L37.182,49.868l-6.34,6.34C29.638,57.411,29.304,59.151,29.833,60.657"/>
			<rect x="2.987" y="3.104" fill="none" width="92" height="92.001"/>
			<polygon fill="#0084bf" points="26.143,68.056 22.884,74.592 30.065,71.98 			"/>
			<path d="M26.143,68.056l3.922,3.925l-7.181,2.611L26.143,68.056z M21.475,75.851c0.365,0.408,0.88,0.631,1.41,0.631
				c0.054,0,0.108-0.005,0.163-0.007c0.161-0.017,0.325-0.051,0.482-0.105l1.317-0.481l5.864-2.132
				c0.606-0.223,1.058-0.736,1.198-1.367c0.079-0.354,0.05-0.72-0.072-1.053c-0.094-0.255-0.239-0.491-0.437-0.689l-3.923-3.923
				c-0.146-0.148-0.313-0.265-0.493-0.354c-0.26-0.131-0.547-0.198-0.841-0.198c-0.102,0-0.204,0.006-0.304,0.021
				c-0.6,0.101-1.117,0.481-1.387,1.022l-2.291,4.594l-0.968,1.941c-0.127,0.258-0.193,0.539-0.198,0.814
				c-0.004,0.281,0.053,0.555,0.17,0.81C21.242,75.545,21.345,75.706,21.475,75.851"/>
			<rect x="2.987" y="3.104" fill="none" width="92" height="92.001"/>
			<polygon points="73.92,29.722 37.576,66.067 37.075,66.569 37.743,67.236 38.282,66.697 74.552,30.428 76.039,28.94 
				76.057,28.922 75.724,28.587 75.389,28.255 			"/>
			<polygon points="69.448,25.25 70.345,24.354 69.677,23.682 68.78,24.583 32.437,60.927 31.363,61.999 32.031,62.667 
				33.104,61.596 			"/>
			<circle fill="none" stroke="#0084bf" stroke-width="3.4981" stroke-miterlimit="10" cx="48.987" cy="49.107" r="44.25"/>
			<rect x="2.987" y="2.104" fill="none" width="92" height="92.001"/>
		</g>
	</g>
</svg>
