<?xml version="1.0" encoding="UTF-8"?>
<svg width="16px" height="23px" viewBox="0 0 16 23" version="1.1" xmlns="http://www.w3.org/2000/svg" xmlns:xlink="http://www.w3.org/1999/xlink">
    <!-- Generator: Sketch 45.1 (43504) - http://www.bohemiancoding.com/sketch -->
    <title>495</title>
    <desc>Created with Sketch.</desc>
    <defs></defs>
    <g id="WIREFRAMES" stroke="none" stroke-width="1" fill="none" fill-rule="evenodd">
        <g id="Forum---Landing-Page" transform="translate(-601.000000, -306.000000)" fill="#FFFFFF">
            <g id="495" transform="translate(601.000000, 306.000000)">
                <g id="Layer_1">
                    <g id="Group">
                        <path d="M7.83314293,22.1158085 C6.59650064,22.1158085 5.4335777,21.6343289 4.55862103,20.759833 C4.47200078,20.6732128 4.42362245,20.556644 4.42362245,20.4340856 L4.42362245,14.8364823 C1.7383947,13.5298066 0.0202728245,10.8058762 0.0202728245,7.81333085 C0.0198120785,3.5048949 3.52470698,0 7.83268218,0 C12.1411181,0 15.6455523,3.5048949 15.6455523,7.81333085 C15.6455523,10.804494 13.9274304,13.5288851 11.2440456,14.8364823 L11.2440456,20.4340856 C11.2440456,20.556644 11.1956673,20.6741342 11.1085863,20.7602938 C10.2327082,21.6343289 9.06978522,22.1158085 7.83314293,22.1158085 Z M5.34465372,20.2364255 C6.0284008,20.8556682 6.90520046,21.1943165 7.83314293,21.1943165 C8.76154614,21.1943165 9.6383458,20.8556682 10.3225536,20.2364255 L10.3225536,14.5425263 C10.3225536,14.3600709 10.4303682,14.1946631 10.597619,14.1209437 C13.1040773,13.0169963 14.7240603,10.5409472 14.7240603,7.8137916 C14.7240603,4.01309775 11.6324545,0.921492021 7.83268218,0.921492021 C4.03244909,0.921492021 0.9413041,4.01309775 0.9413041,7.81333085 C0.9413041,10.541408 2.56174782,13.017457 5.06958836,14.120483 C5.23683916,14.1937416 5.34465372,14.3596102 5.34465372,14.5420656 L5.34465372,20.2364255 Z" id="Shape"></path>
                        <path d="M7.69215465,18.8620202 C5.87036492,18.8620202 4.73969421,18.2837839 4.66966082,18.2469243 L5.09861535,17.4314038 L4.88436846,17.839164 L5.09723312,17.4304823 C5.11980967,17.442001 7.37654363,18.5749754 10.6271067,17.4051413 L10.9394925,18.272726 C9.71252591,18.71366 8.61364667,18.8620202 7.69215465,18.8620202 Z" id="Shape"></path>
                    </g>
                </g>
            </g>
        </g>
    </g>
</svg>