<svg width="27" height="25" viewBox="0 0 27 25" version="1.1" xmlns="http://www.w3.org/2000/svg" xmlns:xlink="http://www.w3.org/1999/xlink">
<title>1243</title>
<desc>Created using Figma</desc>
<g id="Canvas" transform="translate(-291 10)">
<g id="1243" filter="url(#filter0_d)">
<g id="Layer_1">
<g id="Shape">
<use xlink:href="#path0_fill" transform="translate(292 -8.7113)" fill="#FFFFFF"/>
</g>
</g>
</g>
</g>
<defs>
<filter id="filter0_d" filterUnits="userSpaceOnUse" x="291" y="-10" width="27" height="25" color-interpolation-filters="sRGB">
<feFlood flood-opacity="0" result="BackgroundImageFix"/>
<feColorMatrix in="SourceAlpha" type="matrix" values="0 0 0 0 0 0 0 0 0 0 0 0 0 0 0 0 0 0 255 0"/>
<feOffset dx="1" dy="1"/>
<feGaussianBlur stdDeviation="1"/>
<feColorMatrix type="matrix" values="0 0 0 0 0 0 0 0 0 0 0 0 0 0 0 0 0 0 0.341712 0"/>
<feBlend mode="normal" in2="BackgroundImageFix" result="effect1_dropShadow"/>
<feBlend mode="normal" in="SourceGraphic" in2="effect1_dropShadow" result="shape"/>
</filter>
<path id="path0_fill" fill-rule="evenodd" d="M 20.81 20.3153L 1.98195 20.3153C 0.886989 20.3153 0 19.4269 0 18.3333L 0 4.45963C 0 3.36467 0.886989 2.47768 1.98195 2.47768L 6.69088 2.47768C 6.92639 1.35327 7.33285 0 7.92782 0C 8.94444 0 14.4212 0 15.3599 0C 15.9088 0 16.3233 1.35327 16.5731 2.47768L 20.8105 2.47768C 21.9045 2.47768 22.792 3.36467 22.792 4.45963L 22.792 18.3333C 22.792 19.4269 21.9045 20.3153 20.81 20.3153ZM 21.8006 4.45963C 21.8006 3.91215 21.3571 3.46866 20.8101 3.46866L 16.7664 3.46866L 15.8286 3.46866L 15.4986 2.47768L 15.5655 2.47768C 15.4069 1.82004 15.2289 1.26401 15.0798 0.990977L 8.19468 0.990977C 8.04273 1.25451 7.86657 1.81339 7.71415 2.47768L 7.78822 2.47768L 7.45821 3.46866L 6.5114 3.46866L 1.98149 3.46866C 1.43448 3.46866 0.990509 3.91215 0.990509 4.45963L 0.990509 5.45061L 21.8001 5.45061L 21.8001 4.45963L 21.8006 4.45963ZM 21.8005 6.44159L 0.990967 6.44159L 0.990967 18.3333C 0.990967 18.8794 1.43494 19.3238 1.98194 19.3238L 20.81 19.3238C 21.357 19.3238 21.8005 18.8794 21.8005 18.3333L 21.8005 6.44159ZM 19.8186 8.91927C 19.5451 8.91927 19.3233 8.69752 19.3233 8.42354C 19.3233 8.15004 19.5451 7.92829 19.8186 7.92829C 20.0921 7.92829 20.3138 8.15004 20.3138 8.42354C 20.3138 8.69752 20.0921 8.91927 19.8186 8.91927ZM 11.396 17.3419C 8.93256 17.3419 6.93588 15.3452 6.93588 12.8827C 6.93588 10.4197 8.93256 8.42307 11.396 8.42307C 13.858 8.42307 15.8547 10.4197 15.8547 12.8827C 15.8552 15.3452 13.8585 17.3419 11.396 17.3419ZM 11.396 9.41452C 9.48099 9.41452 7.92734 10.9672 7.92734 12.8832C 7.92734 14.7982 9.48052 16.3509 11.396 16.3509C 13.311 16.3509 14.8632 14.7982 14.8632 12.8832C 14.8637 10.9668 13.311 9.41452 11.396 9.41452Z"/>
</defs>
</svg>
