<?xml version="1.0" encoding="UTF-8"?>
<svg width="122px" height="102px" viewBox="0 0 122 102" version="1.1" xmlns="http://www.w3.org/2000/svg" xmlns:xlink="http://www.w3.org/1999/xlink">
    <!-- Generator: Sketch 44.1 (41455) - http://www.bohemiancoding.com/sketch -->
    <title>Group 3</title>
    <desc>Created with Sketch.</desc>
    <defs></defs>
    <g id="Page-1" stroke="none" stroke-width="1" fill="none" fill-rule="evenodd">
        <g id="Group-3" transform="translate(0.000000, 1.000000)" stroke-width="2" stroke="#C1C0C1">
            <polyline id="Shape" points="67.2153635 100 53.7722908 86.5384615 30.7270233 86.5384615 23.0452675 78.8461538 15.3635117 82.6923077 0 82.6923077"></polyline>
            <polyline id="Shape" points="103.703704 76.9230769 111.38546 84.6153846 119.067215 80.7692308"></polyline>
            <polyline id="Shape" points="0 100 9.60219479 100 15.3635117 94.2307692"></polyline>
            <path d="M1.92043896,67.3076923 C1.92043896,34.3826923 28.5742112,7.69230769 61.4540466,7.69230769 C94.333882,7.69230769 120.987654,34.3826923 120.987654,67.3076923 L115.226337,67.3076923 L105.624143,63.4615385 L82.5788752,86.5384615 L69.1358025,86.5384615" id="Shape"></path>
            <path d="M1.92043896,76.9230769 L1.92043896,67.3076923" id="Shape"></path>
            <path d="M13.4430727,71.1538462 L88.340192,71.1538462" id="Shape"></path>
            <polyline id="Shape" points="40.3292181 63.4615385 40.3292181 34.6153846 34.5679012 34.6153846 28.8065844 40.3846154 28.8065844 63.4615385"></polyline>
            <polyline id="Shape" points="63.3744856 71.1538462 63.3744856 55.7692308 59.5336077 51.9230769 48.0109739 51.9230769 48.0109739 63.4615385"></polyline>
            <polyline id="Shape" points="94.1015089 75 94.1015089 34.6153846 88.340192 28.8461538 78.7379973 28.8461538 78.7379973 71.1538462"></polyline>
            <polyline id="Shape" points="55.6927298 71.1538462 55.6927298 63.4615385 23.0452675 63.4615385 13.4430727 71.1538462 13.4430727 82.6923077"></polyline>
            <path d="M7.68175583,26.9230769 C19.9437586,10.575 39.466941,0 61.4578875,0 C83.4449931,0 102.966255,10.5711538 115.228258,26.9153846" id="Shape"></path>
            <path d="M71.0562414,71.1538462 L71.0562414,30.7692308" id="Shape"></path>
            <path d="M55.6927298,51.9230769 L55.6927298,25" id="Shape"></path>
            <path d="M48.0109739,46.1538462 L48.0109739,42.3076923" id="Shape"></path>
            <path d="M71.0562414,44.2307692 L65.2949246,44.2307692" id="Shape"></path>
            <path d="M71.0562414,36.5384615 L65.2949246,36.5384615" id="Shape"></path>
            <path d="M55.6927298,21.1538462 L55.6927298,17.3076923" id="Shape"></path>
            <path d="M94.1015089,55.7692308 L88.340192,55.7692308" id="Shape"></path>
            <path d="M94.1015089,63.4615385 L88.340192,63.4615385" id="Shape"></path>
            <path d="M94.1015089,48.0769231 L88.340192,48.0769231" id="Shape"></path>
            <path d="M94.1015089,40.3846154 L88.340192,40.3846154" id="Shape"></path>
            <path d="M57.6131687,78.8461538 L53.7722908,78.8461538" id="Shape"></path>
            <path d="M65.2949246,78.8461538 L61.4540466,78.8461538" id="Shape"></path>
            <path d="M72.9766804,78.8461538 L69.1358025,78.8461538" id="Shape"></path>
            <path d="M49.9314129,78.8461538 L46.090535,78.8461538" id="Shape"></path>
            <path d="M42.2496571,78.8461538 L38.4087791,78.8461538" id="Shape"></path>
            <path d="M34.5679012,78.8461538 L30.7270233,78.8461538" id="Shape"></path>
            <path d="M28.8065844,48.0769231 L34.5679012,48.0769231" id="Shape"></path>
            <path d="M28.8065844,55.7692308 L34.5679012,55.7692308" id="Shape"></path>
        </g>
    </g>
</svg>