<svg width="23" height="23" viewBox="0 0 23 23" version="1.1" xmlns="http://www.w3.org/2000/svg" xmlns:xlink="http://www.w3.org/1999/xlink">
<title>716 copy</title>
<desc>Created using Figma</desc>
<g id="Canvas" transform="translate(-594 -4076)">
<g id="716 copy">
<g id="Layer_1">
<g id="Group">
<g id="Shape">
<use xlink:href="#path0_fill" transform="translate(595 4077)" fill="#4A4A4A"/>
<use xlink:href="#path1_stroke" transform="translate(595 4077)" fill="#4A4A4A"/>
</g>
<g id="Shape">
<use xlink:href="#path2_fill" transform="translate(605.062 4081.01)" fill="#4A4A4A"/>
<use xlink:href="#path3_stroke" transform="translate(605.062 4081.01)" fill="#4A4A4A"/>
</g>
</g>
</g>
</g>
</g>
<defs>
<path id="path0_fill" fill-rule="evenodd" d="M 10.5 0.875C 15.8073 0.875 20.125 5.19269 20.125 10.5C 20.125 15.8073 15.8073 20.125 10.5 20.125C 5.19269 20.125 0.875 15.8073 0.875 10.5C 0.875 5.19269 5.19269 0.875 10.5 0.875ZM 10.5 0C 4.70138 0 0 4.70138 0 10.5C 0 16.2995 4.70138 21 10.5 21C 16.2995 21 21 16.2995 21 10.5C 21 4.70138 16.2995 0 10.5 0Z"/>
<path id="path1_stroke" d="M 10.5 1.375C 15.5312 1.375 19.625 5.46883 19.625 10.5L 20.625 10.5C 20.625 4.91654 16.0835 0.375 10.5 0.375L 10.5 1.375ZM 19.625 10.5C 19.625 15.5312 15.5312 19.625 10.5 19.625L 10.5 20.625C 16.0835 20.625 20.625 16.0835 20.625 10.5L 19.625 10.5ZM 10.5 19.625C 5.46883 19.625 1.375 15.5312 1.375 10.5L 0.375 10.5C 0.375 16.0835 4.91654 20.625 10.5 20.625L 10.5 19.625ZM 1.375 10.5C 1.375 5.46883 5.46883 1.375 10.5 1.375L 10.5 0.375C 4.91654 0.375 0.375 4.91654 0.375 10.5L 1.375 10.5ZM 10.5 -0.5C 4.42523 -0.5 -0.5 4.42523 -0.5 10.5L 0.5 10.5C 0.5 4.97752 4.97752 0.5 10.5 0.5L 10.5 -0.5ZM -0.5 10.5C -0.5 16.5757 4.42526 21.5 10.5 21.5L 10.5 20.5C 4.97749 20.5 0.5 16.0233 0.5 10.5L -0.5 10.5ZM 10.5 21.5C 16.5756 21.5 21.5 16.5756 21.5 10.5L 20.5 10.5C 20.5 16.0234 16.0234 20.5 10.5 20.5L 10.5 21.5ZM 21.5 10.5C 21.5 4.42526 16.5757 -0.5 10.5 -0.5L 10.5 0.5C 16.0233 0.5 20.5 4.97749 20.5 10.5L 21.5 10.5Z"/>
<path id="path2_fill" fill-rule="evenodd" d="M 5.07237 7.92356L 0 7.92356L 0 0L 0.875 0L 0.875 7.04856L 5.07237 7.04856L 5.07237 7.92356Z"/>
<path id="path3_stroke" d="M 5.07237 7.92356L 5.07237 8.42356L 5.57237 8.42356L 5.57237 7.92356L 5.07237 7.92356ZM 0 7.92356L -0.5 7.92356L -0.5 8.42356L 0 8.42356L 0 7.92356ZM 0 0L 0 -0.5L -0.5 -0.5L -0.5 0L 0 0ZM 0.875 0L 1.375 0L 1.375 -0.5L 0.875 -0.5L 0.875 0ZM 0.875 7.04856L 0.375 7.04856L 0.375 7.54856L 0.875 7.54856L 0.875 7.04856ZM 5.07237 7.04856L 5.57237 7.04856L 5.57237 6.54856L 5.07237 6.54856L 5.07237 7.04856ZM 5.07237 7.42356L 0 7.42356L 0 8.42356L 5.07237 8.42356L 5.07237 7.42356ZM 0.5 7.92356L 0.5 0L -0.5 0L -0.5 7.92356L 0.5 7.92356ZM 0 0.5L 0.875 0.5L 0.875 -0.5L 0 -0.5L 0 0.5ZM 0.375 0L 0.375 7.04856L 1.375 7.04856L 1.375 0L 0.375 0ZM 0.875 7.54856L 5.07237 7.54856L 5.07237 6.54856L 0.875 6.54856L 0.875 7.54856ZM 4.57237 7.04856L 4.57237 7.92356L 5.57237 7.92356L 5.57237 7.04856L 4.57237 7.04856Z"/>
</defs>
</svg>
