<?xml version="1.0" encoding="UTF-8"?>
<svg width="30px" height="30px" viewBox="0 0 30 30" version="1.1" xmlns="http://www.w3.org/2000/svg" xmlns:xlink="http://www.w3.org/1999/xlink">
    <!-- Generator: Sketch 43.2 (39069) - http://www.bohemiancoding.com/sketch -->
    <title>002</title>
    <desc>Created with Sketch.</desc>
    <defs></defs>
    <g id="Wireframes---CURRENT" stroke="none" stroke-width="1" >
        <g id="Program-Landing-Copy-6" transform="translate(-24.000000, -376.000000)" >
            <g id="002" transform="translate(24.000000, 376.000000)">
                <g id="Layer_1">
                    <g id="Group">
                        <path d="M15.000625,1.25 C15.8825,1.25 16.70125,1.545625 17.306875,2.083125 L28.1475,11.7025 C28.388125,11.91625 28.539375,12.093125 28.630625,12.2225 C28.464375,12.26375 28.209375,12.30125 27.8475,12.30125 L26.40875,12.30125 L25.15875,12.30125 L25.15875,13.55125 L25.15875,28.75 L4.843125,28.75 L4.843125,13.55125 L4.843125,12.30125 L3.593125,12.30125 L2.1525,12.30125 C1.79,12.30125 1.535,12.26375 1.36875,12.2225 C1.46,12.093125 1.611875,11.91625 1.851875,11.703125 L12.69625,2.0825 C13.300625,1.545625 14.119375,1.25 15.000625,1.25 L15.000625,1.25 Z M15.000625,0 C13.86375,0 12.7275,0.3825 11.86625,1.1475 L1.023125,10.7675 C-0.70125,12.298125 -0.1925,13.55125 2.153125,13.55125 L3.59375,13.55125 L3.59375,30 L26.41,30 L26.41,13.55125 L27.84875,13.55125 C30.194375,13.55125 30.70125,12.298125 28.97875,10.7675 L18.136875,1.1475 C17.274375,0.3825 16.1375,0 15.000625,0 L15.000625,0 Z" id="Shape"></path>
                        <path d="M18.7875,16.76 L18.7875,28.75 L11.21375,28.75 L11.21375,16.76 L18.7875,16.76 L18.7875,16.76 Z M19.4125,15.51 L10.58875,15.51 C10.245,15.51 9.96375,15.79125 9.96375,16.135 L9.96375,29.375 C9.96375,29.71875 10.245,30 10.58875,30 L19.4125,30 C19.75625,30 20.0375,29.71875 20.0375,29.375 L20.0375,16.135 C20.0375,15.791875 19.755625,15.51 19.4125,15.51 L19.4125,15.51 Z" id="Shape"></path>
                    </g>
                </g>
            </g>
        </g>
    </g>
</svg>
