<?xml version="1.0" encoding="UTF-8"?>
<svg width="30px" height="30px" viewBox="0 0 30 30" version="1.1" xmlns="http://www.w3.org/2000/svg" xmlns:xlink="http://www.w3.org/1999/xlink">
    <!-- Generator: Sketch 43.2 (39069) - http://www.bohemiancoding.com/sketch -->
    <title>267 copy</title>
    <desc>Created with Sketch.</desc>
    <defs></defs>
    <g id="Wireframes---CURRENT" stroke="none" stroke-width="1">
        <g id="267-copy">
            <g id="Layer_1">
                <g id="Group">
                    <path d="M0.625,29.79375 C0.4575,29.79375 0.29375,29.726875 0.173125,29.600625 C-0.001875,29.4175 -0.04875,29.1475 0.053125,28.915625 L3.410625,21.314375 C2.225625,19.196875 1.600625,16.815625 1.600625,14.405 C1.600625,6.575625 7.97,0.20625 15.799375,0.20625 C23.63,0.206875 30,6.57625 30,14.405 C30,22.233125 23.63,28.6025 15.799375,28.6025 C13.3175,28.6025 10.871875,27.940625 8.706875,26.6875 L0.851875,29.75125 C0.778125,29.779375 0.70125,29.79375 0.625,29.79375 Z M15.799375,1.456875 C8.659375,1.456875 2.850625,7.265625 2.850625,14.405625 C2.850625,16.7 3.4725,18.96625 4.648125,20.96 C4.750625,21.133125 4.763125,21.345625 4.68125,21.53 L1.808125,28.03625 L8.536875,25.41125 C8.71875,25.34125 8.9225,25.358125 9.08875,25.459375 C11.1225,26.6975 13.443125,27.351875 15.79875,27.351875 C22.940625,27.3525 28.75,21.544375 28.75,14.405 C28.75,7.265625 22.940625,1.456875 15.799375,1.456875 Z" id="Shape"></path>
                    <g transform="translate(8.125000, 8.125000)" id="Shape">
                        <path d="M13.5025,1.760625 L0.8875,1.760625 C0.5425,1.760625 0.2625,1.480625 0.2625,1.135625 C0.2625,0.790625 0.5425,0.510625 0.8875,0.510625 L13.5025,0.510625 C13.848125,0.510625 14.1275,0.790625 14.1275,1.135625 C14.1275,1.480625 13.8475,1.760625 13.5025,1.760625 Z"></path>
                        <path d="M13.5025,7.055 L0.8875,7.055 C0.5425,7.055 0.2625,6.775 0.2625,6.43 C0.2625,6.085 0.5425,5.805 0.8875,5.805 L13.5025,5.805 C13.848125,5.805 14.1275,6.085 14.1275,6.43 C14.1275,6.775 13.8475,7.055 13.5025,7.055 Z"></path>
                        <path d="M13.5025,12.3525 L0.8875,12.3525 C0.5425,12.3525 0.2625,12.073125 0.2625,11.7275 C0.2625,11.381875 0.5425,11.1025 0.8875,11.1025 L13.5025,11.1025 C13.848125,11.1025 14.1275,11.381875 14.1275,11.7275 C14.1275,12.073125 13.8475,12.3525 13.5025,12.3525 Z"></path>
                    </g>
                </g>
            </g>
        </g>
    </g>
</svg>