<?xml version="1.0" encoding="utf-8"?>
<!-- Generator: Adobe Illustrator 16.0.0, SVG Export Plug-In . SVG Version: 6.00 Build 0)  -->
<!DOCTYPE svg PUBLIC "-//W3C//DTD SVG 1.1//EN" "http://www.w3.org/Graphics/SVG/1.1/DTD/svg11.dtd">
<svg version="1.1" id="Layer_1" xmlns="http://www.w3.org/2000/svg" xmlns:xlink="http://www.w3.org/1999/xlink" x="0px" y="0px"
	 width="48px" height="48px" viewBox="0 0 48 48" enable-background="new 0 0 48 48" xml:space="preserve">
<g>
	<g>
		<path d="M40.759,48H7.241c-1.103,0-2-0.897-2-2V2c0-1.103,0.897-2,2-2h33.518c1.103,0,2,0.897,2,2v44
			C42.759,47.103,41.861,48,40.759,48z M40.759,46v1V46L40.759,46L40.759,46z M7.241,2v44h33.515l0.003-44H7.241z"/>
	</g>
	<g>
		<path d="M33.602,11.36H14.397c-0.552,0-1-0.448-1-1s0.448-1,1-1h19.205c0.553,0,1,0.448,1,1S34.154,11.36,33.602,11.36z"/>
		<path d="M33.602,20.456H14.397c-0.552,0-1-0.448-1-1s0.448-1,1-1h19.205c0.553,0,1,0.448,1,1S34.154,20.456,33.602,20.456z"/>
		<path d="M33.602,29.547H14.397c-0.552,0-1-0.447-1-1s0.448-1,1-1h19.205c0.553,0,1,0.447,1,1S34.154,29.547,33.602,29.547z"/>
		<path d="M33.602,38.641H14.397c-0.552,0-1-0.447-1-1s0.448-1,1-1h19.205c0.553,0,1,0.447,1,1S34.154,38.641,33.602,38.641z"/>
	</g>
</g>
</svg>
