<svg width="32" height="22" xmlns="http://www.w3.org/2000/svg">
 <title/>
 <desc/>

 <g>
  <title>background</title>
  <rect fill="none" id="canvas_background" height="24" width="34" y="-1" x="-1"/>
 </g>
 <g>
  <title>Layer 1</title>
  <g id="Page-1" fill-rule="evenodd" fill="none">
   <g id="icon-22-eye" fill="#157EFB">
    <path id="eye" d="m16.166667,4.66667c-9,0 -13,7 -13,7c0,0 4,7 13,7c9,0 13,-7 13,-7c0,0 -4,-7 -13,-7l0,0l0,0zm0,1c-8,0 -11.80005,6 -11.80005,6c0,0 3.80005,6 11.80005,6c8,0 11.80005,-6 11.80005,-6c0,0 -3.80005,-6 -11.80005,-6l0,0l0,0zm0,10c2.20914,0 4,-1.79086 4,-4c0,-2.20914 -1.79086,-4 -4,-4c-2.20914,0 -4,1.79086 -4,4c0,2.20914 1.79086,4 4,4l0,0l0,0zm0,-1c1.65685,0 3,-1.34315 3,-3c0,-1.65685 -1.34315,-3 -3,-3c-1.65685,0 -3,1.34315 -3,3c0,1.65685 1.34315,3 3,3l0,0l0,0zm0,-2c0.55228,0 1,-0.44772 1,-1c0,-0.55228 -0.44772,-1 -1,-1c-0.55228,0 -1,0.44772 -1,1c0,0.55228 0.44772,1 1,1l0,0l0,0z"/>
   </g>
  </g>
 </g>
</svg>

