<?xml version="1.0" encoding="UTF-8"?>
<svg width="22px" height="22px" viewBox="0 0 22 22" version="1.1" xmlns="http://www.w3.org/2000/svg" xmlns:xlink="http://www.w3.org/1999/xlink">
    <!-- Generator: Sketch 45.1 (43504) - http://www.bohemiancoding.com/sketch -->
    <title>1250</title>
    <desc>Created with Sketch.</desc>
    <defs></defs>
    <g id="WIREFRAMES" stroke="none" stroke-width="1" fill="none" fill-rule="evenodd">
        <g id="Forum---Mobile" transform="translate(-26.000000, -413.000000)" fill="#4A4A4A">
            <g id="Group-3" transform="translate(13.000000, 403.000000)">
                <g id="1250" transform="translate(13.000000, 10.000000)">
                    <g id="Layer_1">
                        <path d="M12.90575,22 C12.4950833,22 12.1215417,21.8405 11.8520417,21.549 L8.05658333,17.7544583 C7.775625,17.4716667 7.621625,17.1027083 7.621625,16.7149583 L7.621625,9.69695833 L0.435875,2.51166667 C0.015125,2.11245833 -0.11825,1.46208333 0.114583333,0.901083333 C0.355208333,0.350166667 0.88825,0 1.47445833,0 L20.5264583,0 C21.1135833,0 21.6461667,0.350166667 21.8826667,0.892833333 C22.1200833,1.46208333 21.9867083,2.11245833 21.5549583,2.52129167 L14.3802083,9.69695833 L14.3802083,20.5255417 C14.3802083,21.1126667 14.0282083,21.64525 13.486,21.88175 C13.32925,21.940875 13.1280417,22 12.90575,22 Z M1.47445833,1.04225 C1.30533333,1.04225 1.144,1.14904167 1.07433333,1.309 C1.00970833,1.46529167 1.043625,1.65183333 1.16279167,1.76458333 L8.66433333,9.26566667 L8.66433333,16.7149583 C8.66433333,16.8249583 8.71108333,16.9335833 8.79404167,17.0165417 L12.6041667,20.8266667 C12.6907917,20.9197083 12.7842917,20.9572917 12.90575,20.9572917 C12.94425,20.9572917 13.0139167,20.9458333 13.0945833,20.915125 C13.228875,20.856 13.3370417,20.695125 13.3370417,20.5255417 L13.3370417,9.26566667 L20.8280417,1.77466667 C20.9568333,1.651375 20.9916667,1.46529167 20.9238333,1.30120833 C20.8569167,1.1495 20.6965,1.04270833 20.5264583,1.04270833 L1.47445833,1.04270833 L1.47445833,1.04225 Z" id="Shape"></path>
                    </g>
                </g>
            </g>
        </g>
    </g>
</svg>