<?xml version="1.0" encoding="UTF-8"?>
<svg width="102px" height="102px" viewBox="0 0 102 102" version="1.1" xmlns="http://www.w3.org/2000/svg" xmlns:xlink="http://www.w3.org/1999/xlink">
    <!-- Generator: Sketch 46.2 (44496) - http://www.bohemiancoding.com/sketch -->
    <title>Group</title>
    <desc>Created with Sketch.</desc>
    <defs></defs>
    <g id="Page-1" stroke="none" stroke-width="1" fill="none" fill-rule="evenodd">
        <g id="Group" transform="translate(1.000000, 1.000000)" stroke-width="2" stroke="#C1C0C1">
            <g transform="translate(11.290323, 16.129032)" id="Shape" stroke-linejoin="round">
                <polyline points="0 24.1935484 6.4516129 30.6451613 12.9032258 24.1935484"></polyline>
                <path d="M48.3870968,0 L17.7419355,0 C11.5064516,0 6.4516129,5.05483871 6.4516129,11.2903226 L6.4516129,30.6451613"></path>
            </g>
            <g transform="translate(40.322581, 50.000000)" id="Shape" stroke-linejoin="round">
                <polyline points="48.3870968 6.4516129 41.9354839 0 35.483871 6.4516129"></polyline>
                <path d="M0,30.6451613 L30.6451613,30.6451613 C36.8806452,30.6451613 41.9354839,25.5903226 41.9354839,19.3548387 L41.9354839,0"></path>
            </g>
            <g transform="translate(33.870968, 32.258065)" id="Shape">
                <path d="M8.06451613,8.87096774 C8.06451613,14.516129 11.2306452,19.3548387 16.1290323,19.3548387 C21.0274194,19.3548387 24.1935484,14.516129 24.1935484,8.87096774 C24.1935484,3.22580645 22.5806452,0 16.1290323,0 C9.67741935,0 8.06451613,3.22580645 8.06451613,8.87096774 Z"></path>
                <path d="M11.2903226,17.7419355 L0,24.1935484 C0,24.1935484 0,24.7483871 0,27.4193548 C0,30.0919355 1.61290323,32.2580645 3.22580645,32.2580645 L29.0322581,32.2580645 C30.6451613,32.2580645 32.2580645,30.0919355 32.2580645,27.4193548 C32.2580645,24.7483871 32.2580645,24.1935484 32.2580645,24.1935484 L20.9677419,17.7419355"></path>
            </g>
            <g transform="translate(0.000000, 67.741935)" id="Shape">
                <path d="M8.06451613,8.87096774 C8.06451613,14.516129 11.2306452,19.3548387 16.1290323,19.3548387 C21.0274194,19.3548387 24.1935484,14.516129 24.1935484,8.87096774 C24.1935484,3.22580645 22.5806452,0 16.1290323,0 C9.67741935,0 8.06451613,3.22580645 8.06451613,8.87096774 Z"></path>
                <path d="M11.2903226,17.7419355 L0,24.1935484 C0,24.1935484 0,24.7483871 0,27.4193548 C0,30.0919355 1.61290323,32.2580645 3.22580645,32.2580645 L29.0322581,32.2580645 C30.6451613,32.2580645 32.2580645,30.0919355 32.2580645,27.4193548 C32.2580645,24.7483871 32.2580645,24.1935484 32.2580645,24.1935484 L20.9677419,17.7419355"></path>
            </g>
            <g transform="translate(67.741935, 0.000000)" id="Shape">
                <path d="M8.06451613,8.87096774 C8.06451613,14.516129 11.2306452,19.3548387 16.1290323,19.3548387 C21.0274194,19.3548387 24.1935484,14.516129 24.1935484,8.87096774 C24.1935484,3.22580645 22.5806452,0 16.1290323,0 C9.67741935,0 8.06451613,3.22580645 8.06451613,8.87096774 Z"></path>
                <path d="M11.2903226,17.7419355 L0,24.1935484 C0,24.1935484 0,24.7483871 0,27.4193548 C0,30.0919355 1.61290323,32.2580645 3.22580645,32.2580645 L29.0322581,32.2580645 C30.6451613,32.2580645 32.2580645,30.0919355 32.2580645,27.4193548 C32.2580645,24.7483871 32.2580645,24.1935484 32.2580645,24.1935484 L20.9677419,17.7419355"></path>
            </g>
        </g>
    </g>
</svg>