<?xml version="1.0" encoding="UTF-8"?>
<svg width="24px" height="24px" viewBox="0 0 24 24" version="1.1" xmlns="http://www.w3.org/2000/svg" xmlns:xlink="http://www.w3.org/1999/xlink">
    <!-- Generator: Sketch 45.1 (43504) - http://www.bohemiancoding.com/sketch -->
    <title>342</title>
    <desc>Created with Sketch.</desc>
    <defs></defs>
    <g id="WIREFRAMES" stroke="none" stroke-width="1" fill-rule="evenodd">
        <g id="Profile---Overview" transform="translate(-689.000000, -546.000000)">
            <g id="Group-40" transform="translate(0.000000, 531.000000)">
                <g id="Group-39" transform="translate(185.000000, 15.000000)">
                    <g id="Group-30" transform="translate(504.000000, 0.000000)">
                        <g id="342">
                            <g id="Layer_1">
                                <g id="Group">
                                    <path d="M11.999,10.385 C9.0985,10.385 6.7385,8.0555 6.7385,5.192 C6.739,2.329 9.099,0 11.999,0 C14.898,0 17.257,2.329 17.257,5.192 C17.257,8.0555 14.898,10.385 11.999,10.385 Z M11.999,1 C9.65,1 7.739,2.8805 7.7385,5.192 C7.7385,7.504 9.6495,9.385 11.999,9.385 C14.3465,9.385 16.257,7.504 16.257,5.192 C16.257,2.8805 14.3465,1 11.999,1 Z" id="Shape"></path>
                                    <path d="M23.4995,24 L0.5005,24 C0.2245,24 0.0005,23.7765 0.0005,23.5 C0.0005,16.9705 5.383,11.6585 11.999,11.6585 C18.616,11.6585 23.9995,16.971 23.9995,23.5 C23.9995,23.7765 23.776,24 23.4995,24 Z M1.012,23 L22.988,23 C22.722,17.253 17.895,12.658 11.999,12.658 C6.104,12.658 1.278,17.253 1.012,23 Z" id="Shape"></path>
                                </g>
                            </g>
                        </g>
                    </g>
                </g>
            </g>
        </g>
    </g>
</svg>