<?xml version="1.0" encoding="UTF-8"?>
<svg width="101px" height="101px" viewBox="0 0 101 101" version="1.1" xmlns="http://www.w3.org/2000/svg" xmlns:xlink="http://www.w3.org/1999/xlink">
    <!-- Generator: Sketch 44.1 (41455) - http://www.bohemiancoding.com/sketch -->
    <title>Group</title>
    <desc>Created with Sketch.</desc>
    <defs></defs>
    <g id="Page-1" stroke="none" stroke-width="1" fill="none" fill-rule="evenodd">
        <g id="Group" transform="translate(0.000000, 1.000000)" stroke="#C1C0C1" stroke-width="2">
            <path d="M74.6031746,100 L74.6031746,82.5396825" id="Shape"></path>
            <path d="M22.2222222,0 L52.3809524,0 C79.3650794,0 90.4761905,28.5714286 90.4761905,28.5714286 L100,53.968254 L100,57.1428571 L90.4761905,57.1428571 L90.4761905,82.5396825 L66.6666667,82.5396825" id="Shape"></path>
            <polyline id="Shape" points="15.8730159 63.4920635 15.8730159 69.8412698 11.1111111 73.015873 6.34920635 69.8412698 6.34920635 63.4920635"></polyline>
            <path d="M11.1111111,73.015873 L11.1111111,80.952381" id="Shape"></path>
            <path d="M11.1111111,63.4920635 L11.1111111,41.2698413" id="Shape"></path>
            <polyline id="Shape" points="17.4603175 41.2698413 17.4603175 63.4920635 4.76190476 63.4920635 4.76190476 31.7460317"></polyline>
            <polyline id="Shape" points="0 25.3968254 30.1587302 25.3968254 30.1587302 38.0952381 26.984127 41.2698413 4.76190476 41.2698413"></polyline>
            <path d="M6.34920635,6.34920635 L9.52380952,6.34920635" id="Shape"></path>
            <path d="M0,31.7460317 L30.1587302,31.7460317" id="Shape"></path>
            <path d="M15.8730159,79.3650794 L53.968254,79.3650794 C56.5984127,79.3650794 58.7301587,77.2333333 58.7301587,74.6031746 C58.7301587,71.9730159 56.5984127,69.8412698 53.968254,69.8412698 L44.4444444,69.8412698 C41.8142857,69.8412698 39.6825397,67.7095238 39.6825397,65.0793651 C39.6825397,62.4492063 41.8142857,60.3174603 44.4444444,60.3174603 L69.8412698,60.3174603 C72.4714286,60.3174603 74.6031746,58.1857143 74.6031746,55.5555556 C74.6031746,52.9253968 72.4714286,50.7936508 69.8412698,50.7936508 L39.6825397,50.7936508 C37.052381,50.7936508 34.9206349,48.6619048 34.9206349,46.031746 C34.9206349,43.4015873 37.052381,41.2698413 39.6825397,41.2698413 L57.1428571,41.2698413 C59.7730159,41.2698413 61.9047619,39.1380952 61.9047619,36.5079365 C61.9047619,33.8777778 59.7730159,31.7460317 57.1428571,31.7460317 L44.4444444,31.7460317 C41.8142857,31.7460317 39.6825397,29.6142857 39.6825397,26.984127 L39.6825397,11.1111111 C39.6825397,8.48095238 37.5507937,6.34920635 34.9206349,6.34920635 L12.6984127,6.34920635" id="Shape"></path>
        </g>
    </g>
</svg>