<?xml version="1.0" encoding="utf-8"?>
<!-- Generator: Adobe Illustrator 21.1.0, SVG Export Plug-In . SVG Version: 6.00 Build 0)  -->
<svg version="1.1" id="Layer_1" xmlns="http://www.w3.org/2000/svg" xmlns:xlink="http://www.w3.org/1999/xlink" x="0px" y="0px"
	 viewBox="0 0 100 100" style="enable-background:new 0 0 100 100;" xml:space="preserve">
<g>
	<path d="M50,100.4L47.5,97C26.1,67.6,19.6,53.3,17.8,48.5C16,44.2,15,39.6,15,34.9c0-9.2,3.6-17.9,10.3-24.4
		C31.9,4,40.7,0.4,50,0.4S68.1,4,74.7,10.5C81.4,17,85,25.7,85,34.9c0,4.7-1,9.3-2.8,13.6c-1.8,4.8-8.3,19.1-29.7,48.5L50,100.4z
		 M50,6.5c-15.9,0-28.8,12.8-28.8,28.4c0,3.9,0.8,7.7,2.3,11.3l0.1,0.2C24.8,49.7,30.3,62.6,50,90c19.6-27.4,25.2-40.2,26.4-43.6
		l0.1-0.2c1.6-3.6,2.3-7.4,2.3-11.3C78.8,19.2,65.9,6.5,50,6.5z"/>
	<path d="M50,46.1c-7.8,0-14.2-6.3-14.2-14s6.4-14,14.2-14s14.2,6.3,14.2,14S57.8,46.1,50,46.1z M50,24.2c-4.4,0-8,3.6-8,7.9
		c0,4.4,3.6,7.9,8,7.9s8-3.6,8-7.9S54.4,24.2,50,24.2z"/>
</g>
</svg>
