<?xml version="1.0" encoding="utf-8"?>
<!-- Generator: Adobe Illustrator 21.0.0, SVG Export Plug-In . SVG Version: 6.00 Build 0)  -->
<svg version="1.1" id="Layer_1" xmlns="http://www.w3.org/2000/svg" xmlns:xlink="http://www.w3.org/1999/xlink" x="0px" y="0px"
	 viewBox="0 0 1000 1000" style="enable-background:new 0 0 1000 1000;" xml:space="preserve">
<g>
	<path d="M154.3,849.1c4.3-1.9,8.1-4.4,11.3-7.6c3.2-3.2,5.8-7,7.6-11.3c1.8-4.3,2.8-9,2.8-14c0-4.9-0.9-9.5-2.8-13.8
		c-1.9-4.3-4.4-8.1-7.6-11.3c-3.2-3.2-7-5.8-11.3-7.7c-4.3-1.9-9-2.8-13.9-2.8H63.7c-2.8,0-5.5-0.5-8-1.6c-2.5-1.1-4.7-2.6-6.6-4.4
		c-1.9-1.9-3.4-4.1-4.4-6.6c-1.1-2.5-1.6-5.2-1.6-8c0-2.8,0.5-5.5,1.6-8c1.1-2.5,2.6-4.7,4.4-6.6c1.9-1.9,4.1-3.4,6.6-4.4
		c2.5-1.1,5.2-1.6,8-1.6h103v-15h-103c-4.8,0-9.5,1-13.8,2.8c-4.3,1.9-8.2,4.5-11.4,7.7c-3.2,3.2-5.8,7-7.7,11.4
		c-1.9,4.3-2.8,9-2.8,13.8c0,4.9,1,9.6,2.8,13.9c1.9,4.3,4.5,8.2,7.7,11.4c3.2,3.2,7,5.8,11.4,7.6c4.3,1.8,9,2.8,13.8,2.8h76.7
		c2.9,0,5.6,0.5,8.1,1.6c2.5,1.1,4.7,2.6,6.5,4.4c1.8,1.9,3.3,4.1,4.4,6.5c1.1,2.5,1.6,5.2,1.6,8c0,2.8-0.5,5.5-1.6,8
		c-1.1,2.5-2.5,4.7-4.4,6.6c-1.9,1.9-4,3.4-6.5,4.4c-2.5,1.1-5.2,1.6-8.1,1.6H28v15h112.4C145.4,851.9,150,850.9,154.3,849.1z"/>
	<path d="M359.9,810.7c5.4-2.3,10.3-5.6,14.3-9.6c4.1-4.1,7.3-8.9,9.7-14.4c2.4-5.5,3.6-11.4,3.6-17.5s-1.2-12.1-3.6-17.5
		c-2.4-5.4-5.6-10.3-9.7-14.3c-4.1-4.1-8.9-7.3-14.3-9.7c-5.4-2.4-11.3-3.6-17.5-3.6h-103v127.8h15V739.1h87.9
		c4.1,0,8.1,0.8,11.8,2.4c3.6,1.6,6.8,3.7,9.5,6.4c2.7,2.7,4.9,5.9,6.4,9.5c1.6,3.6,2.4,7.6,2.4,11.8c0,4.1-0.8,8.1-2.4,11.8
		c-1.5,3.7-3.7,6.9-6.4,9.6c-2.7,2.7-5.9,4.9-9.5,6.5c-3.6,1.6-7.6,2.4-11.8,2.4h-55.8v14.7h55.8
		C348.6,814.2,354.5,813.1,359.9,810.7z"/>
	<path d="M461.3,753.5c4.4-4.4,9.6-7.9,15.5-10.5c5.9-2.6,12.3-3.9,18.9-3.9H565v60.2h-87.1v14.9H565v37.6h15V724.1h-84.3
		c-5.9,0-11.5,0.8-16.9,2.3c-5.4,1.5-10.5,3.7-15.2,6.5c-4.7,2.8-9.1,6.2-12.9,10c-3.9,3.9-7.2,8.2-10,12.9
		c-2.7,4.7-4.9,9.8-6.4,15.2c-1.5,5.4-2.3,11.1-2.3,17v63.9h15V788c0-6.7,1.3-13.1,3.9-19C453.4,763.1,457,757.9,461.3,753.5z"/>
	<path d="M779.4,739.1v-15h-82.8c-8.8,0-16.9,1.7-24.1,5c-7.2,3.3-13.4,7.9-18.5,13.7c-5.1,5.7-9.1,12.6-11.9,20.3
		c-2.8,7.7-4.2,16.1-4.2,24.9c0,8.9,1.4,17.3,4.2,25.1c2.8,7.8,6.8,14.6,11.9,20.3c5.1,5.7,11.3,10.3,18.5,13.6
		c7.2,3.3,15.3,5,24.1,5h82.8v-15h-82.8c-6.7,0-12.9-1.3-18.3-3.9c-5.4-2.6-10-6.1-13.8-10.5c-3.7-4.4-6.6-9.7-8.6-15.6
		c-2-5.9-3-12.2-3-18.9c0-6.7,1-13,3-18.9c2-5.9,4.9-11.1,8.6-15.5c3.7-4.4,8.4-8,13.8-10.6c5.4-2.6,11.6-3.9,18.3-3.9H779.4z"/>
	<g>
		<rect x="885.7" y="780.5" width="70.3" height="15"/>
		<polygon points="972,739.1 972,724.1 839.7,724.1 839.7,851.9 972,851.9 972,836.8 854.7,836.8 854.7,739.1 		"/>
	</g>
	<path d="M89.7,956.2c3.8-1.8,7.1-4.2,9.9-7.2c2.7-3,4.9-6.7,6.4-10.8c1.5-4.2,2.3-8.7,2.3-13.4c0-4.7-0.8-9.2-2.3-13.3
		c-1.5-4.1-3.7-7.8-6.4-10.8c-2.7-3.1-6.1-5.5-9.9-7.3c-3.8-1.8-8.1-2.7-12.8-2.7H27.4v68.3H35v-60.7h42c3.7,0,7,0.7,10,2.1
		c2.9,1.4,5.4,3.3,7.5,5.8c2,2.4,3.6,5.2,4.7,8.4c1.1,3.2,1.6,6.6,1.6,10.2c0,3.6-0.5,7.1-1.6,10.3c-1.1,3.2-2.7,6.1-4.7,8.5
		c-2,2.4-4.5,4.3-7.5,5.7c-2.9,1.4-6.3,2.1-9.9,2.1H52.1v7.6H77C81.6,958.9,85.9,958,89.7,956.2z"/>
	<g>
		<rect x="164.7" y="921" width="37.3" height="7.6"/>
		<polygon points="210.6,898.2 210.6,890.6 139.9,890.6 139.9,958.9 210.6,958.9 210.6,951.3 147.5,951.3 147.5,898.2 		"/>
	</g>
	<path d="M316.7,898.2v-7.6h-44.3c-4.7,0-9,0.9-12.8,2.7c-3.8,1.8-7.2,4.2-9.9,7.3c-2.7,3.1-4.9,6.7-6.3,10.8
		c-1.5,4.1-2.2,8.6-2.2,13.3c0,4.7,0.8,9.2,2.2,13.4c1.5,4.1,3.6,7.8,6.3,10.8c2.7,3,6,5.5,9.9,7.2c3.8,1.8,8.2,2.6,12.8,2.6h44.3
		v-7.6h-44.3c-3.7,0-7-0.7-9.9-2.1c-2.9-1.4-5.5-3.3-7.5-5.7c-2-2.4-3.6-5.2-4.7-8.5c-1.1-3.2-1.6-6.6-1.6-10.3
		c0-3.6,0.5-7,1.6-10.2c1.1-3.2,2.7-6,4.7-8.4c2-2.4,4.5-4.3,7.5-5.8c2.9-1.4,6.3-2.1,10-2.1H316.7z"/>
	<g>
		<polygon points="428.5,898.2 428.5,890.6 357.8,890.6 357.8,958.9 428.5,958.9 428.5,951.3 365.4,951.3 365.4,898.2 		"/>
		<rect x="382.5" y="921" width="37.3" height="7.6"/>
	</g>
	<path d="M485.3,902.2c4.4,1.8,8.8,4.1,13.2,6.8c4.3,2.8,8.6,6,12.5,9.6c4,3.6,7.6,7.7,10.6,12c3.1,4.4,5.6,9,7.4,13.9
		c1.7,4.6,2.6,9.3,2.8,14.2h7.6v-68.3h-7.6v41.9l-2.3-3.6c-2.4-3.8-5.3-7.4-8.4-10.7c-3.1-3.3-6.5-6.5-10-9.3
		c-3.5-2.8-7.2-5.4-11-7.7c-3.8-2.2-7.6-4.2-11.4-5.8c-3.8-1.6-7.5-2.8-11.1-3.6c-3.6-0.8-7-1.3-10.2-1.3h-3.8v68.3h7.6v-60.5
		l1.5,0.2C476.7,899.2,480.9,900.4,485.3,902.2z"/>
	<polygon points="648.8,890.6 569.6,890.6 569.6,898.2 605.4,898.2 605.4,958.9 613,958.9 613,898.2 648.8,898.2 	"/>
	<path d="M725.5,939l20.9,19.9h10l-20.8-20.1l2.5-0.4c2.8-0.5,5.5-1.4,8-2.8c2.4-1.4,4.6-3.1,6.4-5.3c1.8-2.1,3.2-4.5,4.3-7.2
		c1-2.7,1.5-5.5,1.5-8.5c0-3.3-0.6-6.4-1.9-9.3c-1.3-2.9-3-5.5-5.2-7.6c-2.2-2.2-4.7-3.9-7.6-5.2c-2.9-1.3-6-1.9-9.3-1.9h-55.2v68.3
		h7.6v-60.7h47.6c2.3,0,4.4,0.4,6.4,1.3c2,0.8,3.7,2,5.2,3.5c1.5,1.5,2.6,3.2,3.5,5.2c0.9,2,1.3,4.2,1.3,6.4c0,2.3-0.4,4.4-1.3,6.4
		c-0.8,2-2,3.8-3.5,5.3c-1.5,1.5-3.2,2.7-5.2,3.6c-2,0.9-4.2,1.3-6.4,1.3h-29.8v7.4h20.7L725.5,939z"/>
	<path d="M806,906c2.4-2.4,5.2-4.3,8.4-5.7c3.2-1.4,6.7-2.1,10.3-2.1h37.5v32.9h-46.9v7.5h46.9v20.2h7.6v-68.3h-45.1
		c-3.1,0-6.2,0.4-9,1.2c-2.9,0.8-5.6,2-8.1,3.4c-2.5,1.5-4.8,3.3-6.9,5.4c-2.1,2.1-3.9,4.4-5.3,6.9c-1.5,2.5-2.6,5.3-3.4,8.1
		c-0.8,2.9-1.2,5.9-1.2,9.1v34.1h7.6v-34.1c0-3.7,0.7-7.1,2.1-10.3C801.7,911.2,803.6,908.4,806,906z"/>
	<polygon points="907.5,890.6 907.5,958.9 972.6,958.9 972.6,951.3 915.1,951.3 915.1,890.6 	"/>
	<g>
		<g>
			<path d="M539.9,311.7c0-22-17.9-39.9-39.9-39.9s-39.9,17.9-39.9,39.9s17.9,39.9,39.9,39.9S539.9,333.8,539.9,311.7z"/>
		</g>
		<g>
			<path d="M245,315.8h182.1v-8.1h-43c0.1-3,0.3-6,0.6-9l0.1-0.5l-8-0.9l-0.1,0.5c-0.4,3.3-0.6,6.6-0.7,9.9h-64.7
				C313.5,205.5,397.3,123,500,123c59.8,0,116.8,28.8,152.3,77.1l0.3,0.4l6.5-4.8l-0.3-0.4c-37-50.4-96.3-80.4-158.7-80.4
				c-107.2,0-194.6,86.1-196.8,192.8H245c-1.8-6.1-7.4-10.7-14.1-10.7s-12.3,4.5-14.1,10.7h-48.3v8.1h48.3
				c1.8,6.1,7.4,10.7,14.1,10.7S243.2,321.9,245,315.8z"/>
		</g>
		<g>
			<path d="M715.4,168.1c0.8,0.1,1.6,0.2,2.3,0.2c3.1,0,6.1-1,8.6-2.8c6.6-4.8,8-14,3.3-20.5c-2.3-3.2-5.7-5.3-9.6-5.9
				c-3.9-0.6-7.8,0.3-10.9,2.6c-3.2,2.3-5.3,5.7-5.9,9.6c-0.6,3.9,0.3,7.8,2.6,10.9C708.1,165.4,711.5,167.5,715.4,168.1z"/>
		</g>
		<g>
			<path d="M666.7,249.4c2.9,4,7.4,6.1,11.9,6.1c3,0,6-0.9,8.6-2.8c3.2-2.3,5.3-5.7,5.9-9.6c0.6-3.9-0.3-7.8-2.6-10.9
				c-2.3-3.2-5.7-5.3-9.6-5.9c-3.9-0.6-7.8,0.3-10.9,2.6c-3.2,2.3-5.3,5.7-5.9,9.6C663.5,242.3,664.4,246.2,666.7,249.4L666.7,249.4
				z"/>
		</g>
		<g>
			<path d="M578.6,69.8c1.5,0.5,3,0.7,4.6,0.7c2.3,0,4.6-0.5,6.7-1.6c3.5-1.8,6.1-4.8,7.3-8.6c1.2-3.7,0.9-7.7-0.9-11.2
				c-1.8-3.5-4.8-6.1-8.6-7.3c-7.7-2.5-16,1.7-18.5,9.4c-1.2,3.7-0.9,7.7,0.9,11.2C571.8,66,574.9,68.6,578.6,69.8z"/>
		</g>
		<g>
			<path d="M410.2,69c2.1,1.1,4.4,1.6,6.7,1.6c1.5,0,3.1-0.2,4.6-0.7c7.7-2.5,11.9-10.8,9.4-18.5c-1.2-3.7-3.8-6.8-7.3-8.6
				s-7.5-2.1-11.2-0.9c-7.7,2.5-11.9,10.8-9.4,18.5C404.1,64.1,406.7,67.2,410.2,69z"/>
		</g>
		<g>
			<path d="M273.7,165.5c2.6,1.9,5.6,2.8,8.6,2.8c4.6,0,9-2.1,11.9-6.1v0c4.8-6.6,3.3-15.8-3.3-20.5c-3.2-2.3-7.1-3.2-10.9-2.6
				c-3.9,0.6-7.3,2.7-9.6,5.9C265.7,151.5,267.1,160.7,273.7,165.5z"/>
		</g>
		<g>
			<path d="M391.1,242.8c-3.9,0.6-7.3,2.7-9.6,5.9c-2.3,3.2-3.2,7.1-2.6,10.9c0.6,3.9,2.7,7.3,5.9,9.6c2.6,1.9,5.6,2.8,8.6,2.8
				c4.6,0,9-2.1,11.9-6.1v0c4.8-6.6,3.3-15.8-3.3-20.5C398.9,243.2,395,242.2,391.1,242.8z"/>
		</g>
		<g>
			<path d="M831.4,307.7h-48.3c-1.8-6.1-7.4-10.7-14.1-10.7c-6.7,0-12.3,4.5-14.1,10.7h-58.2c-0.2-7.9-0.8-15.8-1.8-23.5l-0.1-0.5
				l-8,1.1l0.1,0.5c1,7.4,1.6,14.9,1.8,22.4H624c-2.1-66.6-56.9-120-124-120c-31.1,0-60.8,11.6-83.8,32.5l-0.4,0.3l5.4,5.9l0.4-0.3
				c21.4-19.6,49.2-30.4,78.3-30.4c62.6,0,113.8,49.9,115.9,112h-43v8.1H755c1.8,6.1,7.4,10.7,14.1,10.7c6.7,0,12.3-4.5,14.1-10.7
				h48.3V307.7z"/>
		</g>
		<g>
			<path d="M408.1,535.6l-0.5-1.7l-0.5,1.7c-2.7,9.8-10.5,17.6-20.4,20.4l-1.7,0.5l1.7,0.5c9.8,2.7,17.6,10.5,20.4,20.4l0.5,1.7
				l0.5-1.7c2.7-9.8,10.5-17.6,20.4-20.4l1.7-0.5l-1.7-0.5C418.6,553.2,410.8,545.4,408.1,535.6z"/>
		</g>
		<g>
			<path d="M280.4,439.3l-0.5-1.7l-0.5,1.7c-3.4,12.2-13.1,21.8-25.2,25.2l-1.7,0.5l1.7,0.5c12.2,3.4,21.8,13.1,25.2,25.2l0.5,1.7
				l0.5-1.7c3.4-12.2,13.1-21.8,25.2-25.2l1.7-0.5l-1.7-0.5C293.5,461.2,283.8,451.5,280.4,439.3z"/>
		</g>
		<g>
			<path d="M342.7,372.1l1.7-0.5l-1.7-0.5c-10.5-2.9-18.8-11.3-21.8-21.8l-0.5-1.7l-0.5,1.7c-2.9,10.5-11.3,18.8-21.8,21.8l-1.7,0.5
				l1.7,0.5c10.5,2.9,18.8,11.3,21.8,21.8l0.5,1.7l0.5-1.7C323.8,383.3,332.2,375,342.7,372.1z"/>
		</g>
		<g>
			<path d="M457.4,421.2l-1.7-0.5c-10.5-2.9-18.8-11.3-21.8-21.8l-0.5-1.7l-0.5,1.7c-2.9,10.5-11.3,18.8-21.8,21.8l-1.7,0.5l1.7,0.5
				c10.5,2.9,18.8,11.3,21.8,21.8l0.5,1.7l0.5-1.7c2.9-10.5,11.3-18.8,21.8-21.8L457.4,421.2z"/>
		</g>
		<g>
			<path d="M494.9,496.9l-1.7-0.5c-10.5-2.9-18.8-11.3-21.8-21.8l-0.5-1.7l-0.5,1.7c-2.9,10.5-11.3,18.8-21.8,21.8l-1.7,0.5l1.7,0.5
				c10.5,2.9,18.8,11.3,21.8,21.8l0.5,1.7l0.5-1.7c2.9-10.5,11.3-18.8,21.8-21.8L494.9,496.9z"/>
		</g>
		<g>
			<path d="M718,456.1l-0.5-1.7l-0.5,1.7c-2.5,8.8-9.4,15.7-18.2,18.2l-1.7,0.5l1.7,0.5c8.8,2.4,15.7,9.4,18.2,18.2l0.5,1.7l0.5-1.7
				c2.5-8.8,9.4-15.7,18.2-18.2l1.7-0.5l-1.7-0.5C727.4,471.9,720.5,464.9,718,456.1z"/>
		</g>
		<g>
			<path d="M571.2,485.6l1.7,0.5c7.6,2.1,13.7,8.2,15.8,15.8l0.5,1.7l0.5-1.7c2.1-7.6,8.2-13.7,15.8-15.8l1.7-0.5l-1.7-0.5
				c-7.6-2.1-13.7-8.2-15.8-15.8l-0.5-1.7l-0.5,1.7c-2.1,7.6-8.2,13.7-15.8,15.8L571.2,485.6z"/>
		</g>
		<g>
			<path d="M560.8,445.5l0.5,1.7l0.5-1.7c2.1-7.6,8.2-13.7,15.8-15.8l1.7-0.5l-1.7-0.5c-7.6-2.1-13.7-8.2-15.8-15.8l-0.5-1.7
				l-0.5,1.7c-2.1,7.6-8.2,13.7-15.8,15.8l-1.7,0.5l1.7,0.5C552.6,431.8,558.6,437.9,560.8,445.5z"/>
		</g>
		<g>
			<path d="M383.4,448.4c-7.6-2.1-13.7-8.2-15.8-15.8l-0.5-1.7l-0.5,1.7c-2.1,7.6-8.2,13.7-15.8,15.8l-1.7,0.5l1.7,0.5
				c7.6,2.1,13.7,8.2,15.8,15.8l0.5,1.7l0.5-1.7c2.1-7.6,8.2-13.7,15.8-15.8l1.7-0.5L383.4,448.4z"/>
		</g>
		<g>
			<path d="M405.8,351.6l1.7-0.5l-1.7-0.5c-7.6-2.1-13.7-8.2-15.8-15.8l-0.5-1.7l-0.5,1.7c-2.1,7.6-8.2,13.7-15.8,15.8l-1.7,0.5
				l1.7,0.5c7.6,2.1,13.7,8.2,15.8,15.8l0.5,1.7l0.5-1.7C392.1,359.8,398.2,353.8,405.8,351.6z"/>
		</g>
		<g>
			<path d="M254.4,404.3l0.5-1.7c1.6-5.9,6.3-10.5,12.2-12.2l1.7-0.5l-1.7-0.5c-5.9-1.6-10.5-6.3-12.2-12.2l-0.5-1.7l-0.5,1.7
				c-1.6,5.9-6.3,10.5-12.2,12.2l-1.7,0.5l1.7,0.5c5.9,1.6,10.5,6.3,12.2,12.2L254.4,404.3z"/>
		</g>
		<g>
			<path d="M483.9,386.4l-0.5-1.7l-0.5,1.7c-1.6,5.9-6.3,10.5-12.2,12.2L469,399l1.7,0.5c5.9,1.6,10.5,6.3,12.2,12.2l0.5,1.7
				l0.5-1.7c1.6-5.9,6.3-10.5,12.2-12.2l1.7-0.5l-1.7-0.5C490.2,396.9,485.5,392.2,483.9,386.4z"/>
		</g>
		<g>
			<path d="M403.3,494.5l0.5,1.7l0.5-1.7c1.6-5.9,6.3-10.5,12.2-12.2l1.7-0.5l-1.7-0.5c-5.9-1.6-10.5-6.3-12.2-12.2l-0.5-1.7
				l-0.5,1.7c-1.6,5.9-6.3,10.5-12.2,12.2l-1.7,0.5l1.7,0.5C397,484,401.6,488.7,403.3,494.5z"/>
		</g>
		<g>
			<path d="M529.5,452.4l-0.5-1.7l-0.5,1.7c-1.6,5.9-6.3,10.5-12.2,12.2l-1.7,0.5l1.7,0.5c5.9,1.6,10.5,6.3,12.2,12.2l0.5,1.7
				l0.5-1.7c1.6-5.9,6.3-10.5,12.2-12.2l1.7-0.5l-1.7-0.5C535.8,462.9,531.1,458.3,529.5,452.4z"/>
		</g>
		<g>
			<path d="M500.5,542.4l-0.5-1.7l-0.5,1.7c-1.6,5.9-6.3,10.5-12.2,12.2l-1.7,0.5l1.7,0.5c5.9,1.6,10.5,6.3,12.2,12.2l0.5,1.7
				l0.5-1.7c1.6-5.9,6.3-10.5,12.2-12.2l1.7-0.5l-1.7-0.5C506.8,552.9,502.1,548.2,500.5,542.4z"/>
		</g>
		<g>
			<path d="M640.8,493.2l-0.5-1.7l-0.5,1.7c-1.6,5.9-6.3,10.5-12.2,12.2l-1.7,0.5l1.7,0.5c5.9,1.6,10.5,6.3,12.2,12.2l0.5,1.7
				l0.5-1.7c1.6-5.9,6.3-10.5,12.2-12.2l1.7-0.5l-1.7-0.5C647.1,503.7,642.5,499.1,640.8,493.2z"/>
		</g>
		<g>
			<path d="M736.5,378.7l-0.5-1.7l-0.5,1.7c-1.6,5.9-6.3,10.5-12.2,12.2l-1.7,0.5l1.7,0.5c5.9,1.6,10.5,6.3,12.2,12.2l0.5,1.7
				l0.5-1.7c1.6-5.9,6.3-10.5,12.2-12.2l1.7-0.5l-1.7-0.5C742.9,389.2,738.2,384.5,736.5,378.7z"/>
		</g>
		<g>
			<path d="M579.6,529.6l-0.5-1.7l-0.5,1.7c-3.8,13.6-14.7,24.5-28.3,28.3l-1.7,0.5l1.7,0.5c13.6,3.8,24.5,14.7,28.3,28.3l0.5,1.7
				l0.5-1.7c3.8-13.6,14.7-24.5,28.3-28.3l1.7-0.5l-1.7-0.5C594.3,554.1,583.4,543.3,579.6,529.6z"/>
		</g>
		<g>
			<path d="M653.3,421l-0.5-1.7l-0.5,1.7c-2,7.1-7.7,12.8-14.8,14.8l-1.7,0.5l1.7,0.5c7.1,2,12.8,7.7,14.8,14.8l0.5,1.7l0.5-1.7
				c2-7.1,7.7-12.8,14.8-14.8l1.7-0.5l-1.7-0.5C661,433.9,655.3,428.2,653.3,421z"/>
		</g>
		<g>
			<path d="M704.4,358l-1.7-0.5c-7.1-2-12.8-7.7-14.8-14.8l-0.5-1.7l-0.5,1.7c-2,7.1-7.7,12.8-14.8,14.8l-1.7,0.5l1.7,0.5
				c7.1,2,12.8,7.7,14.8,14.8l0.5,1.7l0.5-1.7c2-7.2,7.7-12.8,14.8-14.8L704.4,358z"/>
		</g>
		<g>
			<path d="M338.9,496.4l-0.5-1.7l-0.5,1.7c-1.6,5.9-6.3,10.5-12.2,12.2L324,509l1.7,0.5c5.9,1.6,10.5,6.3,12.2,12.2l0.5,1.7
				l0.5-1.7c1.6-5.9,6.3-10.5,12.2-12.2l1.7-0.5l-1.7-0.5C345.2,506.9,340.5,502.2,338.9,496.4z"/>
		</g>
		<g>
			<path d="M635.3,368.5l-1.7-0.5c-12.2-3.4-21.9-13.1-25.3-25.3l-0.5-1.7l-0.5,1.7c-3.4,12.2-13.1,21.9-25.3,25.3l-1.7,0.5l1.7,0.5
				c12.2,3.4,21.9,13.1,25.3,25.3l0.5,1.7l0.5-1.7c3.4-12.2,13.1-21.9,25.3-25.3L635.3,368.5z"/>
		</g>
	</g>
</g>
</svg>
