<?xml version="1.0" encoding="utf-8"?>
<!-- Generator: Adobe Illustrator 16.0.0, SVG Export Plug-In . SVG Version: 6.00 Build 0)  -->
<!DOCTYPE svg PUBLIC "-//W3C//DTD SVG 1.1//EN" "http://www.w3.org/Graphics/SVG/1.1/DTD/svg11.dtd">
<svg version="1.1" id="Layer_1" xmlns="http://www.w3.org/2000/svg" xmlns:xlink="http://www.w3.org/1999/xlink" x="0px" y="0px"
	 width="48px" height="48px" viewBox="0 0 48 48" enable-background="new 0 0 48 48" xml:space="preserve">
<g>
	<path d="M42.559,42.25H5.443C2.442,42.25,0,39.809,0,36.809V11.191c0-3,2.442-5.441,5.443-5.441h37.116
		c3,0,5.441,2.441,5.441,5.441v25.618C48,39.809,45.559,42.25,42.559,42.25z M5.443,7.75C3.544,7.75,2,9.293,2,11.191v25.618
		c0,1.897,1.544,3.441,3.443,3.441h37.116c1.897,0,3.441-1.544,3.441-3.441V11.191c0-1.897-1.544-3.441-3.441-3.441H5.443z"/>
	<polygon points="23.012,25.287 2.274,8.324 3.541,6.776 23.021,22.71 43.771,5.972 45.026,7.528 	"/>
</g>
</svg>
