<?xml version="1.0" encoding="UTF-8"?>
<svg width="45px" height="46px" viewBox="0 0 45 46" version="1.1" xmlns="http://www.w3.org/2000/svg" xmlns:xlink="http://www.w3.org/1999/xlink">
    <!-- Generator: Sketch 43.2 (39069) - http://www.bohemiancoding.com/sketch -->
    <title>chat</title>
    <desc>Created with Sketch.</desc>
    <defs></defs>
    <g id="Wireframes---CURRENT" stroke="none" stroke-width="1" fill="none" fill-rule="evenodd">
        <g id="Artboard" transform="translate(-301.000000, -58.000000)" fill="#FFFFFF">
            <g id="chat" transform="translate(301.000000, 58.000000)">
                <path d="M22.3390118,45.0534693 C10.0218392,45.0534693 0,34.9474129 0,22.5267346 C0,10.1060563 10.0218392,0 22.3390118,0 C34.6561845,0 44.6780237,10.1060563 44.6780237,22.5267346 C44.6780237,34.9474129 34.6561845,45.0534693 22.3390118,45.0534693 Z M12.85625,33.8549048 L12.9755208,33.848619 C13.5817708,33.7700476 14.1036458,33.667381 14.5604167,33.540619 C16.8859375,32.9450476 18.9651042,31.866 20.7442708,30.3301905 C21.3473958,30.3872857 21.9364583,30.4171429 22.5,30.4171429 C29.3916667,30.4171429 35,26.3178095 35,21.2808571 C35,16.2439048 29.3916667,12.145619 22.5,12.145619 C15.6072917,12.145619 10,16.2439048 10,21.2808571 C10,23.9994286 11.6010417,26.522619 14.4109375,28.2574762 C13.909375,29.795381 13.2302083,30.5360476 12.5697917,31.2541905 C12.4510417,31.3840952 12.3338542,31.5124286 12.2088542,31.654381 L12.1354167,31.7402857 C11.9390625,31.9681429 11.6453125,32.3101905 11.7213542,32.8287619 L11.7322917,32.908381 C11.8463542,33.4568095 12.3192708,33.8549048 12.85625,33.8549048 Z" id="Combined-Shape"></path>
                <path d="M12.8036458,32.7077619 C12.8177083,32.7454762 12.8442708,32.7601429 12.8546875,32.7622381 C13.3947917,32.6915238 13.8739583,32.5982857 14.2807292,32.4851429 C16.5276042,31.91 18.5177083,30.8576667 20.2041667,29.3543333 L20.384375,29.1935238 L20.6223958,29.2191905 C21.2692708,29.2899048 21.9010417,29.3244762 22.5,29.3244762 C28.79375,29.3244762 33.9135417,25.7159524 33.9135417,21.2808571 C33.9135417,16.8462857 28.79375,13.2382857 22.5,13.2382857 C16.20625,13.2382857 11.0864583,16.8462857 11.0864583,21.2808571 C11.0864583,23.715 12.6307292,25.9914762 15.3223958,27.5304286 L15.6927083,27.7420476 L15.5765625,28.1542857 C14.9989583,30.2207143 14.13125,31.1640952 13.3682292,31.9959048 C13.2541667,32.1195238 13.1411458,32.242619 13.0317708,32.3672857 L12.95625,32.4563333 C12.8963542,32.5249524 12.8057292,32.6302381 12.7953125,32.669 L12.8036458,32.7077619 Z" id="Shape-Copy-2"></path>
            </g>
        </g>
    </g>
</svg>