<?xml version="1.0" encoding="UTF-8"?>
<svg width="45px" height="46px" viewBox="0 0 45 46" version="1.1" xmlns="http://www.w3.org/2000/svg" xmlns:xlink="http://www.w3.org/1999/xlink">
    <!-- Generator: Sketch 42 (36781) - http://www.bohemiancoding.com/sketch -->
    <title>Group 2</title>
    <desc>Created with Sketch.</desc>
    <defs></defs>
    <g id="Wireframes---CURRENT" stroke="none" stroke-width="1" fill="none" fill-rule="evenodd">
        <g id="User-Profile" transform="translate(-548.000000, -384.000000)" fill="#FFFFFF">
            <g id="Group-8" transform="translate(487.000000, 384.000000)">
                <g id="Group-2" transform="translate(61.000000, 0.000000)">
                    <path d="M22.3390118,45.0534693 C10.0218392,45.0534693 0,34.9474129 0,22.5267346 C0,10.1060563 10.0218392,0 22.3390118,0 C34.6561845,0 44.6780237,10.1060563 44.6780237,22.5267346 C44.6780237,34.9474129 34.6561845,45.0534693 22.3390118,45.0534693 Z M22.3390118,1.87722789 C11.0475721,1.87722789 1.86158432,11.1404089 1.86158432,22.5267346 C1.86158432,33.9130604 11.0475721,43.1762414 22.3390118,43.1762414 C33.6304515,43.1762414 42.8164394,33.9130604 42.8164394,22.5267346 C42.8164394,11.1404089 33.6304515,1.87722789 22.3390118,1.87722789 Z" id="Shape-Copy"></path>
                    <g id="1349" transform="translate(10.000000, 12.000000)">
                        <g id="Layer_1">
                            <path d="M2.85625,21.8549048 C2.31927083,21.8549048 1.84635417,21.4568095 1.73229167,20.908381 L1.72135417,20.8287619 C1.6453125,20.3101905 1.9390625,19.9681429 2.13541667,19.7402857 L2.20885417,19.654381 C2.33385417,19.5124286 2.45104167,19.3840952 2.56979167,19.2541905 C3.23020833,18.5360476 3.909375,17.795381 4.4109375,16.2574762 C1.60104167,14.522619 0,11.9994286 0,9.28085714 C0,4.24390476 5.60729167,0.145619048 12.5,0.145619048 C19.3916667,0.145619048 25,4.24390476 25,9.28085714 C25,14.3178095 19.3916667,18.4171429 12.5,18.4171429 C11.9364583,18.4171429 11.3473958,18.3872857 10.7442708,18.3301905 C8.96510417,19.866 6.8859375,20.9450476 4.56041667,21.540619 C4.10364583,21.667381 3.58177083,21.7700476 2.97552083,21.848619 L2.85625,21.8549048 Z M2.80364583,20.7077619 C2.81770833,20.7454762 2.84427083,20.7601429 2.8546875,20.7622381 C3.39479167,20.6915238 3.87395833,20.5982857 4.28072917,20.4851429 C6.52760417,19.91 8.51770833,18.8576667 10.2041667,17.3543333 L10.384375,17.1935238 L10.6223958,17.2191905 C11.2692708,17.2899048 11.9010417,17.3244762 12.5,17.3244762 C18.79375,17.3244762 23.9135417,13.7159524 23.9135417,9.28085714 C23.9135417,4.84628571 18.79375,1.23828571 12.5,1.23828571 C6.20625,1.23828571 1.08645833,4.84628571 1.08645833,9.28085714 C1.08645833,11.715 2.63072917,13.9914762 5.32239583,15.5304286 L5.69270833,15.7420476 L5.5765625,16.1542857 C4.99895833,18.2207143 4.13125,19.1640952 3.36822917,19.9959048 C3.25416667,20.1195238 3.14114583,20.242619 3.03177083,20.3672857 L2.95625,20.4563333 C2.89635417,20.5249524 2.80572917,20.6302381 2.7953125,20.669 L2.80364583,20.7077619 Z" id="Shape"></path>
                        </g>
                    </g>
                </g>
            </g>
        </g>
    </g>
</svg>