<?xml version="1.0" encoding="UTF-8"?>
<svg width="45px" height="46px" viewBox="0 0 45 46" version="1.1" xmlns="http://www.w3.org/2000/svg" xmlns:xlink="http://www.w3.org/1999/xlink">
    <!-- Generator: Sketch 42 (36781) - http://www.bohemiancoding.com/sketch -->
    <title>Combined Shape</title>
    <desc>Created with Sketch.</desc>
    <defs></defs>
    <g id="Wireframes---CURRENT" stroke="none" stroke-width="1" fill="none" fill-rule="evenodd">
        <g id="Mission-Landing-Copy-2" transform="translate(-575.000000, -276.000000)" fill="#FFFFFF">
            <path d="M597.537428,321.053469 C585.220256,321.053469 575.198417,310.947413 575.198417,298.526735 C575.198417,286.106056 585.220256,276 597.537428,276 C609.854601,276 619.87644,286.106056 619.87644,298.526735 C619.87644,310.947413 609.854601,321.053469 597.537428,321.053469 Z M588.187347,295.565971 C586.700818,295.565971 585.491883,296.81001 585.491883,298.339012 C585.491883,299.868014 586.700818,301.112053 588.187347,301.112053 C589.673877,301.112053 590.88336,299.868014 590.88336,298.339012 C590.88336,296.81001 589.673877,295.565971 588.187347,295.565971 Z M606.887509,295.565971 C605.401527,295.565971 604.192592,296.81001 604.192592,298.339012 C604.192592,299.868014 605.401527,301.112053 606.887509,301.112053 C608.374039,301.112053 609.582974,299.868014 609.582974,298.339012 C609.582974,296.81001 608.374039,295.565971 606.887509,295.565971 Z M597.537428,295.565971 C596.051446,295.565971 594.841964,296.81001 594.841964,298.339012 C594.841964,299.868014 596.051446,301.112053 597.537428,301.112053 C599.023958,301.112053 600.232893,299.868014 600.232893,298.339012 C600.232893,296.81001 599.023958,295.565971 597.537428,295.565971 Z" id="Combined-Shape"></path>
        </g>
    </g>
</svg>