<?xml version="1.0" encoding="UTF-8"?>
<svg width="45px" height="46px" viewBox="0 0 45 46" version="1.1" xmlns="http://www.w3.org/2000/svg" xmlns:xlink="http://www.w3.org/1999/xlink">
    <!-- Generator: Sketch 42 (36781) - http://www.bohemiancoding.com/sketch -->
    <title>Group 14</title>
    <desc>Created with Sketch.</desc>
    <defs></defs>
    <g id="Wireframes---CURRENT" stroke="none" stroke-width="1" fill="none" fill-rule="evenodd">
        <g id="Mission-Landing" transform="translate(-576.000000, -277.000000)" fill="#FFFFFF">
            <g id="Group-14" transform="translate(576.000000, 277.000000)">
                <path d="M22.3390118,45.0534693 C10.0218392,45.0534693 0,34.9474129 0,22.5267346 C0,10.1060563 10.0218392,0 22.3390118,0 C34.6561845,0 44.6780237,10.1060563 44.6780237,22.5267346 C44.6780237,34.9474129 34.6561845,45.0534693 22.3390118,45.0534693 Z M22.3390118,1.87722789 C11.0475721,1.87722789 1.86158432,11.1404089 1.86158432,22.5267346 C1.86158432,33.9130604 11.0475721,43.1762414 22.3390118,43.1762414 C33.6304515,43.1762414 42.8164394,33.9130604 42.8164394,22.5267346 C42.8164394,11.1404089 33.6304515,1.87722789 22.3390118,1.87722789 Z" id="Shape-Copy"></path>
                <g id="760" transform="translate(10.198417, 19.396833)">
                    <g id="Layer_1">
                        <g id="Group">
                            <path d="M2.79051419,0.169137527 C4.27704402,0.169137527 5.48652631,1.41317645 5.48652631,2.94217856 C5.48652631,4.47118067 4.27704402,5.71521959 2.79051419,5.71521959 C1.30398436,5.71521959 0.0950496001,4.47118067 0.0950496001,2.94217856 C0.0950496001,1.41317645 1.30398436,0.169137527 2.79051419,0.169137527 L2.79051419,0.169137527 Z" id="Shape"></path>
                            <path d="M12.1405952,0.169137527 C13.627125,0.169137527 14.8360598,1.41317645 14.8360598,2.94217856 C14.8360598,4.47118067 13.627125,5.71521959 12.1405952,5.71521959 C10.6546129,5.71521959 9.44513061,4.47118067 9.44513061,2.94217856 C9.44513061,1.41317645 10.6546129,0.169137527 12.1405952,0.169137527 L12.1405952,0.169137527 Z" id="Shape"></path>
                            <path d="M21.4906762,0.169137527 C22.977206,0.169137527 24.1861408,1.41317645 24.1861408,2.94217856 C24.1861408,4.47118067 22.977206,5.71521959 21.4906762,5.71521959 C20.0046939,5.71521959 18.7957591,4.47118067 18.7957591,2.94217856 C18.7957591,1.41317645 20.0046939,0.169137527 21.4906762,0.169137527 L21.4906762,0.169137527 Z" id="Shape"></path>
                        </g>
                    </g>
                </g>
            </g>
        </g>
    </g>
</svg>