<?xml version="1.0" encoding="utf-8"?>
<!-- Generator: Adobe Illustrator 16.0.0, SVG Export Plug-In . SVG Version: 6.00 Build 0)  -->
<!DOCTYPE svg PUBLIC "-//W3C//DTD SVG 1.1//EN" "http://www.w3.org/Graphics/SVG/1.1/DTD/svg11.dtd">
<svg version="1.1" id="Layer_1" xmlns="http://www.w3.org/2000/svg" xmlns:xlink="http://www.w3.org/1999/xlink" x="0px" y="0px"
	 width="48px" height="48px" viewBox="0 0 48 48" enable-background="new 0 0 48 48" xml:space="preserve">
<g>
	<path d="M24,25.569c0,0-0.001,0-0.002,0c-1.971,0-3.815-0.819-5.194-2.308L2.764,5.952C2.388,5.546,2.412,4.914,2.817,4.539
		C3.221,4.164,3.855,4.186,4.23,4.592l16.041,17.31c0.996,1.075,2.32,1.667,3.728,1.667c0,0,0.001,0,0.001,0
		c1.41,0,2.735-0.592,3.732-1.668l16.03-17.31c0.373-0.406,1.007-0.43,1.413-0.054c0.405,0.375,0.43,1.008,0.054,1.414l-16.03,17.31
		C27.819,24.75,25.973,25.569,24,25.569z"/>
	<path d="M23.495,34.672H7.132C3.199,34.672,0,31.474,0,27.542V10.015c0-1.898,0.743-3.688,2.091-5.038
		C3.441,3.626,5.23,2.882,7.13,2.882c0.001,0,0.001,0,0.002,0h33.734c3.934,0,7.134,3.2,7.134,7.134v9.963c0,0.552-0.447,1-1,1
		s-1-0.448-1-1v-9.963c0-2.831-2.303-5.134-5.134-5.134H7.132c0,0-0.001,0-0.001,0c-1.365,0-2.652,0.536-3.624,1.509
		C2.535,7.363,2,8.65,2,10.015v17.527c0,2.829,2.302,5.13,5.132,5.13h16.363c0.552,0,1,0.447,1,1S24.047,34.672,23.495,34.672z"/>
	<path d="M23.997,45.118c-0.261,0-0.519-0.103-0.71-0.296c-0.292-0.293-0.373-0.736-0.203-1.114l4.035-8.972
		c0.05-0.11,0.119-0.211,0.205-0.297L40.98,20.784c0.391-0.391,1.023-0.391,1.414,0l4.992,4.991
		c0.188,0.188,0.293,0.441,0.293,0.707s-0.105,0.52-0.293,0.707L33.732,40.843c-0.087,0.088-0.19,0.158-0.304,0.208l-9.029,3.982
		C24.27,45.091,24.132,45.118,23.997,45.118z M28.868,35.724l-2.891,6.428l6.473-2.855l12.815-12.813l-3.578-3.577L28.868,35.724z"
		/>
</g>
</svg>
