<?xml version="1.0" encoding="UTF-8"?>
<svg width="100px" height="93px" viewBox="0 0 100 93" version="1.1" xmlns="http://www.w3.org/2000/svg" xmlns:xlink="http://www.w3.org/1999/xlink">
    <!-- Generator: Sketch 46.2 (44496) - http://www.bohemiancoding.com/sketch -->
    <title>Group</title>
    <desc>Created with Sketch.</desc>
    <defs></defs>
    <g id="Page-1" stroke="none" stroke-width="1" fill="none" fill-rule="evenodd" stroke-linejoin="round">
        <g id="03_success_tactics" transform="translate(0.000000, 1.000000)" stroke-width="2" stroke="#C1C0C1">
            <g id="Group">
                <path d="M50,62.5 L50,90.625" id="Shape"></path>
                <polyline id="Shape" points="65.625 62.5 75 89.0625 75 90.625"></polyline>
                <polyline id="Shape" points="34.375 62.5 25 89.0625 25 90.625"></polyline>
                <polyline id="Shape" points="92.1875 17.1875 92.1875 62.5 7.8125 62.5 7.8125 17.1875"></polyline>
                <polygon id="Shape" points="1.5625 12.5 1.5625 6.25 39.0625 6.25 42.1875 0 57.8125 0 60.9375 6.25 98.4375 6.25 98.4375 12.5"></polygon>
                <path d="M45.3125,6.25 L54.6875,6.25" id="Shape"></path>
                <path d="M0,90.625 L100,90.625" id="Shape"></path>
                <circle id="Oval" cx="40.625" cy="26.5625" r="1.5625"></circle>
                <circle id="Oval" cx="56.25" cy="48.4375" r="1.5625"></circle>
                <path d="M48.4375,29.6875 L48.4375,26.5625 C48.4375,22.246875 44.940625,18.75 40.625,18.75 C36.309375,18.75 32.8125,22.246875 32.8125,26.5625 L32.8125,35.9375 C32.8125,40.253125 29.315625,43.75 25,43.75 L15.625,43.75" id="Shape"></path>
                <path d="M84.375,31.25 L71.875,31.25 C67.559375,31.25 64.0625,34.746875 64.0625,39.0625 L64.0625,48.4375 C64.0625,52.753125 60.565625,56.25 56.25,56.25 C51.934375,56.25 48.4375,52.753125 48.4375,48.4375 L48.4375,45.3125" id="Shape"></path>
                <polyline id="Shape" points="78.125 37.5 84.375 31.25 78.125 25"></polyline>
                <path d="M48.4375,32.8125 L48.4375,35.9375" id="Shape"></path>
                <path d="M48.4375,39.0625 L48.4375,42.1875" id="Shape"></path>
                <path d="M12.5,18.75 L15.625,18.75" id="Shape"></path>
                <path d="M84.375,18.75 L87.5,18.75" id="Shape"></path>
                <path d="M84.375,56.25 L87.5,56.25" id="Shape"></path>
                <path d="M12.5,56.25 L15.625,56.25" id="Shape"></path>
            </g>
        </g>
    </g>
</svg>