<svg width="72" height="73" viewBox="0 0 72 73" version="1.1" xmlns="http://www.w3.org/2000/svg" xmlns:xlink="http://www.w3.org/1999/xlink">
<title>Group</title>
<desc>Created using Figma</desc>
<g id="Canvas" transform="translate(2183 -280)">
<g id="Group">
<g id="887" opacity="0.4">
<g id="Layer_1">
<g id="Group">
<g id="Shape">
<use xlink:href="#path0_fill" transform="translate(-2183 280.493)"/>
</g>
<g id="Shape">
<use xlink:href="#path1_fill" transform="translate(-2156.58 306.91)"/>
</g>
</g>
</g>
</g>
</g>
</g>
<defs>
<path id="path0_fill" fill-rule="evenodd" d="M 39.0812 71.7185L 32.6374 71.7185C 30.6294 71.7185 28.9949 70.084 28.9949 68.076L 28.9949 63.2503C 26.3071 62.5795 23.7448 61.5157 21.3499 60.0754L 17.93 63.4953C 16.5555 64.8698 14.1486 64.8698 12.7771 63.4923L 8.22321 58.937C 7.53894 58.2572 7.16095 57.3458 7.15945 56.3702C 7.15945 55.3931 7.53744 54.4758 8.2247 53.787L 11.6431 50.3687C 10.2073 47.9812 9.14354 45.4189 8.46973 42.7251L 3.64248 42.7251C 1.63448 42.7251 0 41.0906 0 39.0812L 0 32.6374C 0 30.6309 1.63299 28.9964 3.63949 28.9964L 8.46973 28.9964C 9.14354 26.3026 10.2073 23.7403 11.6446 21.3514L 8.2262 17.933C 7.53894 17.2457 7.15945 16.3284 7.16095 15.3528C 7.16095 14.3787 7.54043 13.4658 8.22769 12.7815L 12.7771 8.22769C 13.4613 7.54043 14.3757 7.16244 15.3513 7.16244C 16.3254 7.16244 17.2412 7.54043 17.927 8.22769L 21.3469 11.6461C 23.7373 10.2088 26.2981 9.14503 28.9904 8.47122L 28.9904 3.64248C 28.9904 1.63448 30.6249 0 32.6329 0L 39.0767 0C 41.0847 0 42.7192 1.63448 42.7192 3.64248L 42.7192 8.46973C 45.4114 9.14205 47.9752 10.2058 50.3642 11.6446L 53.7825 8.2262C 55.1541 6.85317 57.5655 6.85168 58.934 8.22919L 63.4893 12.78C 64.1751 13.4643 64.5546 14.3772 64.5546 15.3513C 64.5561 16.3269 64.1781 17.2442 63.4893 17.9315L 60.0725 21.3499C 61.5097 23.7388 62.5735 26.3011 63.2458 28.9949L 68.0701 28.9949C 70.0736 28.9949 71.7096 30.6264 71.7155 32.6314L 71.7155 39.0812C 71.7155 41.0906 70.0811 42.7236 68.0731 42.7236L 63.2488 42.7236C 62.5765 45.4174 61.5127 47.9797 60.0754 50.3672L 63.4938 53.787C 64.1811 54.4713 64.5591 55.3856 64.5591 56.3628C 64.5591 57.3399 64.1811 58.2542 63.4923 58.94L 58.937 63.4968C 57.5729 64.8698 55.1615 64.8743 53.7855 63.4953L 50.3687 60.0769C 47.9752 61.5172 45.4129 62.581 42.7236 63.2533L 42.7236 68.0775C 42.7236 70.084 41.0892 71.7185 39.0812 71.7185ZM 20.9434 56.2567L 21.9609 56.9275C 24.6726 58.7189 27.6427 59.9515 30.7877 60.5939L 31.9829 60.8374L 31.9829 68.0761C 31.9829 68.4301 32.2832 68.7304 32.6373 68.7304L 39.0811 68.7304C 39.4352 68.7304 39.7355 68.4316 39.7355 68.0761L 39.7355 60.8389L 40.9307 60.5954C 44.0787 59.9529 47.0503 58.7189 49.7575 56.9305L 50.7765 56.2582L 55.901 61.3842C 56.0669 61.5501 56.2626 61.5755 56.3657 61.5755C 56.4658 61.5755 56.6615 61.5501 56.8244 61.3872L 61.3842 56.8259C 61.55 56.6616 61.5739 56.4659 61.5739 56.3628C 61.5739 56.2597 61.55 56.0654 61.3857 55.9011L 56.2611 50.7721L 56.9334 49.7546C 58.7188 47.0534 59.9529 44.0847 60.5953 40.9308L 60.8389 39.7356L 68.0775 39.7356C 68.4316 39.7356 68.7319 39.4353 68.7319 39.0812L 68.7319 32.6374C 68.7304 32.2863 68.4301 31.983 68.0745 31.983L 60.8359 31.983L 60.5923 30.7877C 59.9469 27.6323 58.7158 24.6637 56.9304 21.9609L 56.2581 20.9435L 61.3812 15.8174C 61.547 15.6516 61.5724 15.4559 61.5709 15.3528C 61.5709 15.2512 61.547 15.057 61.3827 14.8941L 56.8229 10.3373C 56.6585 10.1715 56.4643 10.1475 56.3627 10.1475C 56.2611 10.1475 56.0639 10.1715 55.8981 10.3373L 50.7735 15.4634L 49.7546 14.7895C 47.0488 13.0012 44.0802 11.7686 40.9277 11.1261L 39.7325 10.8811L 39.7325 3.64249C 39.7325 3.2884 39.4337 2.9881 39.0781 2.9881L 32.6343 2.9881C 32.2802 2.9881 31.9799 3.2884 31.9799 3.64249L 31.9799 10.8826L 30.7847 11.1276C 27.6323 11.7716 24.6621 13.0042 21.9579 14.791L 20.9405 15.4648L 15.8159 10.3388C 15.65 10.1744 15.4543 10.149 15.3527 10.149C 15.2511 10.149 15.0554 10.1729 14.8926 10.3373L 10.3387 14.8956C 10.1729 15.0615 10.149 15.2557 10.149 15.3573C 10.149 15.4589 10.1729 15.6561 10.3387 15.8219L 15.4648 20.9465L 14.791 21.9639C 13.0041 24.6667 11.7715 27.6353 11.1276 30.7907L 10.8826 31.986L 3.64243 31.986C 3.40936 31.986 3.25248 32.107 3.18077 32.1787C 3.10905 32.2504 2.98804 32.4058 2.98804 32.6374L 2.98804 39.0812C 2.98804 39.4353 3.28834 39.7356 3.64243 39.7356L 10.8826 39.7356L 11.1276 40.9308C 11.773 44.0892 13.0041 47.0579 14.791 49.7546L 15.4648 50.7721L 10.3387 55.8996C 10.1729 56.0655 10.149 56.2627 10.149 56.3658C 10.149 56.4688 10.1744 56.6601 10.3357 56.8229L 14.8956 61.3842C 15.0599 61.5501 15.2541 61.5755 15.3557 61.5755C 15.4573 61.5755 15.653 61.5501 15.8189 61.3842L 20.9434 56.2567Z"/>
<path id="path1_fill" fill-rule="evenodd" d="M 9.44085 18.8802C 4.23561 18.8802 0 14.6461 0 9.44085C 0 4.23561 4.23412 0 9.44085 0C 14.6476 0 18.8802 4.23412 18.8802 9.44085C 18.8802 14.6476 14.6461 18.8802 9.44085 18.8802ZM 9.44081 2.9881C 5.88349 2.9881 2.98804 5.88355 2.98804 9.44087C 2.98804 12.9982 5.88349 15.8921 9.44081 15.8921C 12.9981 15.8921 15.8921 12.9967 15.8921 9.44087C 15.8921 5.88355 12.9981 2.9881 9.44081 2.9881Z"/>
</defs>
</svg>
