<svg width="32" height="22" xmlns="http://www.w3.org/2000/svg">
 <title/>
 <desc/>

 <g>
  <title>background</title>
  <rect fill="none" id="canvas_background" height="24" width="34" y="-1" x="-1"/>
 </g>
 <g>
  <title>Layer 1</title>
  <g id="Page-1" fill-rule="evenodd" fill="none">
   <g id="icon-21-eye-hidden" fill="#929292">
    <path id="eye-hidden" d="m8.108699,17.141971c-3.491491,-2.061186 -5.108699,-4.891301 -5.108699,-4.891301c0,0 4,-7 13,-7c1.304511,0 2.503975,0.147065 3.601439,0.398561l-0.849537,0.849537c-0.854754,-0.158043 -1.771809,-0.248098 -2.751902,-0.248098c-8,0 -11.800049,6 -11.800049,6c0,0 1.514777,2.391723 4.644976,4.155073l-0.736228,0.736228l0,0l0,0zm4.289862,1.710138c1.097464,0.251497 2.296928,0.398561 3.601439,0.398561c9,-0.000001 13,-7 13,-7c0,0 -1.617208,-2.830114 -5.108699,-4.891301l-0.736228,0.736228c3.130199,1.763351 4.644976,4.155073 4.644976,4.155073c0,0 -3.800049,5.999999 -11.800049,6c-0.980093,0 -1.897149,-0.090055 -2.751902,-0.248098l-0.849537,0.849537l0,0l0,0zm7.500092,-7.500092c0.066313,0.288864 0.101347,0.589667 0.101347,0.898653c0,2.209139 -1.790861,4 -4,4c-0.308986,0 -0.609789,-0.035034 -0.898653,-0.101347l0.898653,-0.898653c0.767767,0 1.535534,-0.292893 2.12132,-0.87868c0.585787,-0.585786 0.87868,-1.353553 0.87868,-2.12132l0.898653,-0.898653l0,0l0,0zm-3,-3c-0.288864,-0.066313 -0.589667,-0.101347 -0.898653,-0.101347c-2.209139,0 -4,1.790861 -4,4c0,0.308986 0.035034,0.609789 0.101347,0.898653l0.898653,-0.898653c0,-0.767767 0.292893,-1.535534 0.87868,-2.12132c0.585786,-0.585787 1.353553,-0.87868 2.12132,-0.87868l0.898653,-0.898653l0,0l0,0zm7.101347,-5.101347l-17,17l1,1l17,-17l-1,-1l0,0z"/>
   </g>
  </g>
 </g>
</svg>

