<?xml version="1.0" encoding="UTF-8"?>
<svg width="18px" height="16px" viewBox="0 0 18 16" version="1.1" xmlns="http://www.w3.org/2000/svg" xmlns:xlink="http://www.w3.org/1999/xlink">
    <!-- Generator: Sketch 43.2 (39069) - http://www.bohemiancoding.com/sketch -->
    <title>1201</title>
    <desc>Created with Sketch.</desc>
    <defs></defs>
    <g id="Wireframes---CURRENT" stroke="none" stroke-width="1" fill="none" fill-rule="evenodd">
        <g id="Program-Landing-Copy-6" transform="translate(-338.000000, -1568.000000)" fill="#000000">
            <g id="1201" transform="translate(338.000000, 1568.000000)">
                <g id="Layer_1">
                    <path d="M16.1934836,1.22052174 C14.8290932,-0.130434783 12.6164827,-0.130434783 11.2517409,1.22052174 L7.88205146,4.55652174 L2.26531677,10.1158261 L1.14232121,11.2278261 C0.0874924579,12.2726957 0.0874924579,13.9641739 1.14232121,15.0097391 C2.19750133,16.0532174 3.90659095,16.0532174 4.9614197,15.0097391 L9.50294587,10.5137391 L11.70115,8.33773913 L13.8663248,6.19304348 C14.5936717,5.47234783 14.5936717,4.30713043 13.8663248,3.58747826 C13.1403833,2.86817391 11.963276,2.86817391 11.2352263,3.58747826 L4.68910382,10.0685217 L5.13781012,10.5133913 L11.6846353,4.032 C11.924976,3.79478261 12.2362946,3.67756522 12.5514783,3.67756522 C12.8666619,3.67756522 13.1772777,3.79478261 13.4176185,4.032 C13.6579592,4.26991304 13.7763727,4.57878261 13.7763727,4.8893913 C13.7763727,5.20104348 13.6576078,5.51026087 13.4176185,5.74852174 L11.2517409,7.89286957 L9.05353682,10.0685217 L4.51201065,14.5641739 C4.10863177,14.9634783 3.58192014,15.1613913 3.05239752,15.1627826 C2.52217214,15.1613913 1.99616327,14.9638261 1.59137888,14.5641739 C1.18835138,14.1648696 0.987364685,13.6431304 0.987364685,13.1186087 C0.987364685,12.5947826 1.188,12.0723478 1.59137888,11.6723478 L2.71472582,10.5610435 L8.33110914,5.0013913 L11.70115,1.66608696 C12.259134,1.11165217 12.9899947,0.836869565 13.7222609,0.836869565 C14.4552298,0.836869565 15.1860905,1.11304348 15.7447773,1.66608696 C16.3034641,2.21947826 16.581402,2.94156522 16.581402,3.66713043 C16.581402,4.39304348 16.3034641,5.11617391 15.7447773,5.66852174 L7.99378882,13.3412174 L8.44249512,13.7867826 L16.1931322,6.11269565 C17.5585768,4.76278261 17.5585768,2.57217391 16.1934836,1.22052174 Z" id="Shape"></path>
                </g>
            </g>
        </g>
    </g>
</svg>
