<?xml version="1.0" encoding="UTF-8"?>
<svg width="45px" height="46px" viewBox="0 0 45 46" version="1.1" xmlns="http://www.w3.org/2000/svg" xmlns:xlink="http://www.w3.org/1999/xlink">
    <!-- Generator: Sketch 44.1 (41455) - http://www.bohemiancoding.com/sketch -->
    <title>Group 4</title>
    <desc>Created with Sketch.</desc>
    <defs></defs>
    <g id="Page-2" stroke="none" stroke-width="1" fill="none" fill-rule="evenodd">
        <g id="Action-Icons" transform="translate(-457.000000, -117.000000)">
            <g id="Group-4" transform="translate(457.000000, 117.000000)">
                <g id="Layer_1" fill="#FFFFFF">
                    <g id="Group">
                        <path d="M22.3390118,45.0553465 C10.0218392,45.0553465 0,34.9492902 0,22.5286119 C0,10.1079336 10.0218392,0.00187722789 22.3390118,0.00187722789 C34.6561845,0.00187722789 44.6780237,10.1079336 44.6780237,22.5286119 C44.6780237,34.9492902 34.6561845,45.0553465 22.3390118,45.0553465 Z M22.3390118,1.87910511 C11.0475721,1.87910511 1.86158432,11.1422861 1.86158432,22.5286119 C1.86158432,33.9149376 11.0475721,43.1781186 22.3390118,43.1781186 C33.6304515,43.1781186 42.8164394,33.9149376 42.8164394,22.5286119 C42.8164394,11.1422861 33.6304515,1.87910511 22.3390118,1.87910511 Z" id="Shape"></path>
                    </g>
                </g>
                <g id="Group-2" transform="translate(21.667262, 23.667262) rotate(-45.000000) translate(-21.667262, -23.667262) translate(9.167262, 19.667262)">
                    <path d="M5.07925887,3.97903932e-13 L23.0760343,3.97903932e-13 C23.628319,3.97802479e-13 24.0760343,0.44771525 24.0760343,1 L24.0760343,6.35220993 C24.0760343,6.90449468 23.628319,7.35220993 23.0760343,7.35220993 L5.07925887,7.35220993 L5.07925887,7.35220993 C4.88183389,7.35220993 4.68882619,7.2937719 4.52455868,7.18426022 L0.510401233,4.50815526 L0.510401233,4.50815526 C0.0508725446,4.2018028 -0.073301324,3.58093346 0.233051135,3.12140477 C0.306285993,3.01155248 0.400548946,2.91728953 0.510401233,2.84405467 L4.52455868,0.167949706 L4.52455868,0.167949706 C4.68882619,0.0584380275 4.88183389,3.98384288e-13 5.07925887,3.98348021e-13 L5.07925887,3.97903932e-13 Z M5.82222784,0.919026241 L5.82222784,0.919026241 C5.63051401,0.919026241 5.44284076,0.974134908 5.2815637,1.0777877 L5.2815637,1.0777877 L2.54764643,2.83487677 C2.42707076,2.91237077 2.32456279,3.01487924 2.24706938,3.13545529 C1.9484711,3.60005998 2.08304588,4.21875822 2.54765056,4.5173565 L2.54765056,4.5173565 L5.28156516,6.27442488 C5.44284132,6.37807598 5.63051302,6.43318368 5.82222517,6.43318368 L5.82222517,6.43318368 L22.3238052,6.43318368 C22.8760899,6.43318368 23.3238052,5.98546843 23.3238052,5.43318368 L23.3238052,1.91902624 C23.3238052,1.36674149 22.8760899,0.919026241 22.3238052,0.919026241 L5.82222784,0.919026241 Z" id="Combined-Shape" fill="#FFFFFF"></path>
                    <path d="M5.97367056,0.45951312 L5.97367056,6.89269681" id="Line" stroke="#FFFFFF" stroke-linecap="square"></path>
                    <path d="M19.7568147,0.45951312 L19.7568147,6.89269681" id="Line-Copy" stroke="#FFFFFF" stroke-linecap="square"></path>
                </g>
            </g>
        </g>
    </g>
</svg>