<?xml version="1.0" encoding="UTF-8"?>
<svg width="27px" height="27px" viewBox="0 0 27 27" version="1.1" xmlns="http://www.w3.org/2000/svg" xmlns:xlink="http://www.w3.org/1999/xlink">
    <!-- Generator: Sketch 44.1 (41455) - http://www.bohemiancoding.com/sketch -->
    <title>516</title>
    <desc>Created with Sketch.</desc>
    <defs></defs>
    <g id="Wireframes---CURRENT" stroke="none" stroke-width="1" fill="none" fill-rule="evenodd">
        <g id="Program---Discussion---List-Topics-Copy" transform="translate(-926.000000, -416.000000)" fill="#FFFFFF">
            <g id="Group-5-Copy" transform="translate(906.000000, 404.000000)">
                <g id="Group-4" transform="translate(20.000000, 12.000000)">
                    <g id="516">
                        <g id="Layer_1">
                            <g id="Group">
                                <path d="M10.060875,23.0855625 L10.060875,23.0855625 C9.9118125,23.0855625 9.768375,23.0265 9.6631875,22.92075 L4.078125,17.334 C3.8581875,17.1140625 3.8581875,16.7585625 4.078125,16.538625 L20.4553125,0.1648125 C20.67525,-0.055125 21.03075,-0.055125 21.2506875,0.1648125 L26.8351875,5.7470625 C26.9409375,5.85225 27,5.9956875 27,6.14475 C27,6.2938125 26.9409375,6.43725 26.8351875,6.5424375 L10.4585625,22.92075 C10.3528125,23.0265 10.2099375,23.0855625 10.060875,23.0855625 Z M5.2711875,16.9363125 L10.060875,21.7276875 L25.642125,6.14475 L20.853,1.357875 L5.2711875,16.9363125 Z" id="Shape"></path>
                                <path d="M0.5625,27 C0.41625,27 0.27225,26.942625 0.1648125,26.8351875 C0.0039375,26.6743125 -0.0444375,26.4324375 0.04275,26.2220625 L3.969,16.7338125 C4.0404375,16.56 4.1945625,16.4345625 4.3790625,16.3974375 C4.5635625,16.3580625 4.7536875,16.41825 4.8864375,16.551 L10.4506875,22.114125 C10.5834375,22.246875 10.641375,22.437 10.6048125,22.6215 C10.56825,22.8054375 10.4416875,22.9595625 10.267875,23.0315625 L0.777375,26.95725 C0.7081875,26.9865 0.6350625,27 0.5625,27 Z M4.68675,17.9420625 L1.600875,25.399125 L9.059625,22.314375 L4.68675,17.9420625 Z" id="Shape"></path>
                                <path d="M22.775625,9.831375 C22.631625,9.831375 22.487625,9.77625 22.3779375,9.6665625 L17.3930625,4.676625 C17.173125,4.4566875 17.173125,4.1011875 17.3930625,3.88125 C17.613,3.661875 17.9685,3.6613125 18.1884375,3.8818125 L23.1733125,8.87175 C23.39325,9.0916875 23.39325,9.4471875 23.1733125,9.667125 C23.063625,9.77625 22.919625,9.831375 22.775625,9.831375 Z" id="Shape"></path>
                                <path d="M8.897625,18.664875 C8.753625,18.664875 8.609625,18.60975 8.4999375,18.5000625 C8.28,18.280125 8.28,17.924625 8.4999375,17.7046875 L18.293625,7.911 C18.5135625,7.6910625 18.8690625,7.6910625 19.089,7.911 C19.3089375,8.1309375 19.3089375,8.4864375 19.089,8.706375 L9.2953125,18.5000625 C9.185625,18.60975 9.041625,18.664875 8.897625,18.664875 Z" id="Shape"></path>
                            </g>
                        </g>
                    </g>
                </g>
            </g>
        </g>
    </g>
</svg>
