<?xml version="1.0" encoding="UTF-8"?>
<svg width="46px" height="46px" viewBox="0 0 46 46" version="1.1" xmlns="http://www.w3.org/2000/svg" xmlns:xlink="http://www.w3.org/1999/xlink">
    <!-- Generator: Sketch 44.1 (41455) - http://www.bohemiancoding.com/sketch -->
    <title>pencil</title>
    <desc>Created with Sketch.</desc>
    <defs></defs>
    <g id="Page-2" stroke="none" stroke-width="1" fill="none" fill-rule="evenodd">
        <g id="Action-Icons" transform="translate(-457.000000, -190.000000)">
            <g id="Group-3" transform="translate(446.000000, 180.000000)">
                <g id="pencil" transform="translate(33.338835, 33.019030) rotate(-45.000000) translate(-33.338835, -33.019030) translate(10.338835, 10.019030)">
                    <path d="M23.1912378,45.8814381 C10.8740652,45.8814381 0.85222599,35.7753818 0.85222599,23.3547035 C0.85222599,10.9340252 10.8740652,0.827968857 23.1912378,0.827968857 C35.5084105,0.827968857 45.5302497,10.9340252 45.5302497,23.3547035 C45.5302497,35.7753818 35.5084105,45.8814381 23.1912378,45.8814381 Z M16.0142637,20 C15.8168387,20 15.623831,20.058438 15.4595635,20.1679497 L11.4454061,22.8440547 C11.3355538,22.9172895 11.2412908,23.0115525 11.168056,23.1214048 C10.8617035,23.5809335 10.9858774,24.2018028 11.4454061,24.5081553 L15.4595635,27.1842602 C15.623831,27.2937719 15.8168387,27.3522099 16.0142637,27.3522099 L16.0142637,27.3522099 L34.0110391,27.3522099 C34.5633239,27.3522099 35.0110391,26.9044947 35.0110391,26.3522099 L35.0110391,21 C35.0110391,20.4477153 34.5633239,20 34.0110391,20 L16.0142637,20 Z" id="Combined-Shape" fill="#FFFFFF"></path>
                    <path d="M16.3785394,20.4595131 L16.3785394,26.8926968" id="Line" stroke="#FFFFFF" stroke-linecap="square"></path>
                    <path d="M30.3785394,20.4595131 L30.3785394,26.8926968" id="Line-Copy" stroke="#FFFFFF" stroke-linecap="square"></path>
                </g>
            </g>
        </g>
    </g>
</svg>