<?xml version="1.0" encoding="UTF-8"?>
<svg width="18px" height="18px" viewBox="0 0 18 18" version="1.1" xmlns="http://www.w3.org/2000/svg" xmlns:xlink="http://www.w3.org/1999/xlink">
    <!-- Generator: Sketch 46.2 (44496) - http://www.bohemiancoding.com/sketch -->
    <title>342</title>
    <desc>Created with Sketch.</desc>
    <defs></defs>
    <g id="WIREFRAMES" stroke="none" stroke-width="1" fill-rule="evenodd">
        <g id="Mission-Landing---v2" transform="translate(-526.000000, -168.000000)">
            <g id="Group-18" transform="translate(0.000000, 100.000000)">
                <g id="Group-2" transform="translate(526.000000, 66.000000)">
                    <g id="342" transform="translate(0.000000, 2.000000)">
                        <g id="Group">
                            <path d="M8.99925,7.78875 C6.823875,7.78875 5.053875,6.041625 5.053875,3.894 C5.05425,1.74675 6.82425,0 8.99925,0 C11.1735,0 12.94275,1.74675 12.94275,3.894 C12.94275,6.041625 11.1735,7.78875 8.99925,7.78875 L8.99925,7.78875 Z M8.99925,0.75 C7.2375,0.75 5.80425,2.160375 5.803875,3.894 C5.803875,5.628 7.237125,7.03875 8.99925,7.03875 C10.759875,7.03875 12.19275,5.628 12.19275,3.894 C12.19275,2.160375 10.759875,0.75 8.99925,0.75 L8.99925,0.75 Z" id="Shape"></path>
                            <path d="M17.624625,18 L0.375375,18 C0.168375,18 0.000375,17.832375 0.000375,17.625 C0.000375,12.727875 4.03725,8.743875 8.99925,8.743875 C13.962,8.743875 17.999625,12.72825 17.999625,17.625 C17.999625,17.832375 17.832,18 17.624625,18 L17.624625,18 Z M0.759,17.25 L17.241,17.25 C17.0415,12.93975 13.42125,9.4935 8.99925,9.4935 C4.578,9.4935 0.9585,12.93975 0.759,17.25 L0.759,17.25 Z" id="Shape"></path>
                        </g>
                    </g>
                </g>
            </g>
        </g>
    </g>
</svg>
