<?xml version="1.0" encoding="utf-8"?>
	<svg version="1.1" xmlns="http://www.w3.org/2000/svg" xmlns:xlink="http://www.w3.org/1999/xlink" x="0px" y="0px" width="42" height="48" viewBox="0 0 512 512" xml:space="preserve">
		<g>
			<path d="M415.353,96.715C346.141,27.503,288.248-1.795,270.59,15.87c-9.626,9.63-5.189,31.289,11.968,60.165   L149.386,209.197c-42.972-29.426-75.531-38.641-88.813-25.358c-19.156,19.166,8.387,78.299,76.007,151.05L9.049,488.912   l14.25,14.247l154.024-127.534c72.69,67.53,131.759,95.013,150.898,75.881c13.296-13.289,4.075-45.879-25.392-88.874   l133.149-133.15c28.909,17.189,50.595,21.632,60.225,12.002C513.862,223.833,484.571,165.919,415.353,96.715z M308.212,143.993   L207.781,244.439c-6.119,6.119-16.04,6.119-22.158,0c-6.118-6.132-6.118-16.05,0-22.168l100.434-100.434   c6.111-6.118,16.036-6.111,22.155,0C314.322,127.963,314.33,137.888,308.212,143.993z"/>
		</g>
</svg>
