<?xml version="1.0" encoding="UTF-8"?>
<svg width="30px" height="30px" viewBox="0 0 30 30" version="1.1" xmlns="http://www.w3.org/2000/svg" xmlns:xlink="http://www.w3.org/1999/xlink">
    <!-- Generator: Sketch 43.2 (39069) - http://www.bohemiancoding.com/sketch -->
    <title>1355 copy</title>
    <desc>Created with Sketch.</desc>
    <defs></defs>
    <g id="Wireframes---CURRENT" stroke="none" stroke-width="1" >
        <g id="Program-Landing-Copy-5" transform="translate(-705.000000, -352.000000)" >
            <g id="1355-copy" transform="translate(705.000000, 352.000000)">
                <g id="Layer_1">
                    <g id="Group">
                        <g transform="translate(8.750000, 0.000000)" id="Shape">
                            <path d="M6.25,1.25 C6.955625,1.25 7.529375,1.82375 7.529375,2.52875 C7.529375,3.23375 6.955625,3.808125 6.25,3.808125 C5.544375,3.808125 4.97,3.234375 4.97,2.52875 C4.97,1.82375 5.544375,1.25 6.25,1.25 L6.25,1.25 Z M6.25,0 C4.853125,0 3.72,1.1325 3.72,2.52875 C3.72,3.92625 4.853125,5.058125 6.25,5.058125 C7.64625,5.058125 8.779375,3.92625 8.779375,2.52875 C8.779375,1.1325 7.64625,0 6.25,0 L6.25,0 Z"></path>
                            <path d="M6.25,6.61125 C8.3225,6.61125 10.083125,7.691875 10.67,9.175 L1.829375,9.175 C2.418125,7.69125 4.1775,6.61125 6.25,6.61125 L6.25,6.61125 Z M6.25,5.36125 C3.0025,5.36125 0.369375,7.55625 0.369375,10.26375 C0.369375,10.3175 0.376875,10.371875 0.379375,10.425 L12.120625,10.425 C12.123125,10.371875 12.13125,10.3175 12.13125,10.26375 C12.13,7.55625 9.498125,5.36125 6.25,5.36125 L6.25,5.36125 Z"></path>
                        </g>
                        <g transform="translate(0.000000, 21.250000)" id="Shape">
                            <g>
                                <path d="M4.629375,1.793125 C5.038125,1.793125 5.370625,2.125 5.370625,2.534375 C5.370625,2.941875 5.038125,3.275 4.629375,3.275 C4.220625,3.275 3.888125,2.943125 3.888125,2.534375 C3.88875,2.125 4.220625,1.793125 4.629375,1.793125 L4.629375,1.793125 Z M4.629375,0.543125 C3.529375,0.543125 2.638125,1.433125 2.638125,2.534375 C2.638125,3.634375 3.529375,4.525 4.629375,4.525 C5.729375,4.525 6.620625,3.634375 6.620625,2.534375 C6.620625,1.433125 5.729375,0.543125 4.629375,0.543125 L4.629375,0.543125 Z"></path>
                                <path d="M4.629375,6.013125 C5.9725,6.013125 7.135625,6.6225 7.679375,7.5 L1.57875,7.5 C2.123125,6.6225 3.28625,6.013125 4.629375,6.013125 L4.629375,6.013125 Z M4.629375,4.763125 C2.0725,4.763125 0,6.490625 0,8.621875 C0,8.665625 0.005625,8.7075 0.0075,8.75 L9.25125,8.75 C9.2525,8.7075 9.25875,8.665625 9.25875,8.621875 C9.258125,6.490625 7.186875,4.763125 4.629375,4.763125 L4.629375,4.763125 Z"></path>
                            </g>
                            <g transform="translate(10.000000, 0.000000)">
                                <path d="M5,1.793125 C5.4075,1.793125 5.74125,2.125 5.74125,2.534375 C5.74125,2.941875 5.409375,3.275 5,3.275 C4.59125,3.275 4.258125,2.943125 4.258125,2.534375 C4.258125,2.125 4.59125,1.793125 5,1.793125 L5,1.793125 Z M5,0.543125 C3.899375,0.543125 3.008125,1.433125 3.008125,2.534375 C3.008125,3.634375 3.899375,4.525 5,4.525 C6.1,4.525 6.99125,3.634375 6.99125,2.534375 C6.99125,1.433125 6.1,0.543125 5,0.543125 L5,0.543125 Z"></path>
                                <path d="M5,6.013125 C6.3425,6.013125 7.50625,6.6225 8.050625,7.5 L1.949375,7.5 C2.49375,6.6225 3.656875,6.013125 5,6.013125 L5,6.013125 Z M5,4.763125 C2.443125,4.763125 0.370625,6.490625 0.370625,8.621875 C0.370625,8.665625 0.376875,8.7075 0.37875,8.75 L9.621875,8.75 C9.623125,8.7075 9.63,8.665625 9.63,8.621875 C9.62875,6.490625 7.55625,4.763125 5,4.763125 L5,4.763125 Z"></path>
                            </g>
                            <g transform="translate(20.625000, 0.000000)">
                                <path d="M4.745,1.793125 C5.153125,1.793125 5.48625,2.125 5.48625,2.534375 C5.48625,2.941875 5.154375,3.275 4.745,3.275 C4.335625,3.275 4.00375,2.943125 4.00375,2.534375 C4.00375,2.125 4.33625,1.793125 4.745,1.793125 L4.745,1.793125 Z M4.745,0.543125 C3.645,0.543125 2.75375,1.433125 2.75375,2.534375 C2.75375,3.634375 3.645,4.525 4.745,4.525 C5.845,4.525 6.73625,3.634375 6.73625,2.534375 C6.735625,1.433125 5.845,0.543125 4.745,0.543125 L4.745,0.543125 Z"></path>
                                <path d="M4.745,6.013125 C6.08875,6.013125 7.2525,6.6225 7.796875,7.5 L1.694375,7.5 C2.23875,6.6225 3.400625,6.013125 4.745,6.013125 L4.745,6.013125 Z M4.745,4.763125 C2.1875,4.763125 0.11625,6.490625 0.11625,8.621875 C0.11625,8.665625 0.1225,8.7075 0.124375,8.75 L9.368125,8.75 C9.36875,8.7075 9.375,8.665625 9.375,8.621875 C9.375,6.490625 7.3025,4.763125 4.745,4.763125 L4.745,4.763125 Z"></path>
                            </g>
                        </g>
                        <polygon id="Shape" points="25.995 19.90125 24.745 19.90125 24.745 15.19875 5.254375 15.19875 5.254375 19.90125 4.004375 19.90125 4.004375 13.94875 25.995 13.94875"></polygon>
                        <rect id="Rectangle-path" x="14.375" y="11.515625" width="1.25" height="8.385625"></rect>
                    </g>
                </g>
            </g>
        </g>
    </g>
</svg>
