<?xml version="1.0" encoding="UTF-8"?>
<svg width="45px" height="46px" viewBox="0 0 45 46" version="1.1" xmlns="http://www.w3.org/2000/svg" xmlns:xlink="http://www.w3.org/1999/xlink">
    <!-- Generator: Sketch 42 (36781) - http://www.bohemiancoding.com/sketch -->
    <title>1153</title>
    <desc>Created with Sketch.</desc>
    <defs></defs>
    <g id="Wireframes---CURRENT" stroke="none" stroke-width="1" fill="none" fill-rule="evenodd">
        <g id="Mission-Landing" transform="translate(-514.000000, -277.000000)" fill="#FFFFFF">
            <g id="1153" transform="translate(514.000000, 277.000000)">
                <g id="Layer_1">
                    <g id="Group">
                        <path d="M22.3390118,45.0553465 C10.0218392,45.0553465 0,34.9492902 0,22.5286119 C0,10.1079336 10.0218392,0.00187722789 22.3390118,0.00187722789 C34.6561845,0.00187722789 44.6780237,10.1079336 44.6780237,22.5286119 C44.6780237,34.9492902 34.6561845,45.0553465 22.3390118,45.0553465 Z M22.3390118,1.87910511 C11.0475721,1.87910511 1.86158432,11.1422861 1.86158432,22.5286119 C1.86158432,33.9149376 11.0475721,43.1781186 22.3390118,43.1781186 C33.6304515,43.1781186 42.8164394,33.9149376 42.8164394,22.5286119 C42.8164394,11.1422861 33.6304515,1.87910511 22.3390118,1.87910511 Z" id="Shape"></path>
                        <rect id="Rectangle-path" x="21.4072889" y="12.5145397" width="1.86158432" height="19.3973957"></rect>
                        <rect id="Rectangle-path" x="12.4102519" y="21.2765009" width="20.1674737" height="1.87722789"></rect>
                    </g>
                </g>
            </g>
        </g>
    </g>
</svg>