<?xml version="1.0" encoding="UTF-8"?>
<svg width="99px" height="102px" viewBox="0 0 99 102" version="1.1" xmlns="http://www.w3.org/2000/svg" xmlns:xlink="http://www.w3.org/1999/xlink">
    <!-- Generator: Sketch 46.2 (44496) - http://www.bohemiancoding.com/sketch -->
    <title>Group</title>
    <desc>Created with Sketch.</desc>
    <defs></defs>
    <g id="Page-1" stroke="none" stroke-width="1" fill="none" fill-rule="evenodd">
        <g id="Group" transform="translate(1.000000, 1.000000)" stroke="#C1C0C1" stroke-width="2">
            <path d="M40.5612903,3.08387097 C43,1.09032258 45.6370968,0 48.3870968,0 C60.8580645,0 70.9677419,22.3854839 70.9677419,50 C70.9677419,77.6145161 60.8580645,100 48.3870968,100 C35.916129,100 25.8064516,77.6145161 25.8064516,50 C25.8064516,38.4532258 27.5741935,27.8193548 30.5435484,19.3548387" id="Shape"></path>
            <path d="M93.0564516,67.6096774 C93.3532258,70.3532258 92.9258065,72.8564516 91.6870968,75 C85.4516129,85.8 61.0112903,83.3629032 37.0967742,69.5564516 C13.1822581,55.75 -1.15,35.8 5.08548387,25 C11.3209677,14.2 35.7629032,16.6370968 59.6774194,30.4435484 C69.7419355,36.2564516 78.1112903,43.1548387 83.9629032,50.0032258" id="Shape"></path>
            <path d="M3.71774194,67.6064516 C3.41935484,70.35 3.8483871,72.8548387 5.08548387,75 C11.3209677,85.8 35.7629032,83.3629032 59.6774194,69.5564516 C83.5919355,55.75 97.9241935,35.8 91.6887097,25 C85.4532258,14.2 61.0112903,16.6370968 37.0967742,30.4435484 C27.0322581,36.2564516 18.6645161,43.1532258 12.8145161,50" id="Shape"></path>
            <circle id="Oval" cx="4.83870968" cy="62.9032258" r="4.83870968"></circle>
            <circle id="Oval" cx="91.9354839" cy="62.9032258" r="4.83870968"></circle>
            <circle id="Oval" cx="37.0967742" cy="6.4516129" r="4.83870968"></circle>
            <g transform="translate(33.870968, 33.870968)" id="Shape">
                <path d="M0,29.0322581 C0,19.3548387 9.67741935,17.7419355 9.67741935,17.7419355"></path>
                <path d="M29.0322581,29.0322581 C29.0322581,19.3548387 19.3548387,17.7419355 19.3548387,17.7419355"></path>
                <path d="M22.5806452,8.87096774 C22.5806452,14.516129 19.4145161,19.3548387 14.516129,19.3548387 C9.61774194,19.3548387 6.4516129,14.516129 6.4516129,8.87096774 C6.4516129,3.22580645 8.06451613,0 14.516129,0 C20.9677419,0 22.5806452,3.22580645 22.5806452,8.87096774 Z"></path>
            </g>
        </g>
    </g>
</svg>