<svg width="42" height="48" viewBox="0 0 42 48" version="1.1" xmlns="http://www.w3.org/2000/svg" xmlns:xlink="http://www.w3.org/1999/xlink">
<title>888</title>
<desc>Created using Figma</desc>
<g id="Canvas" transform="matrix(2 0 0 2 260 1640)">
<g id="888">
<g id="Layer_1">
<g id="Group">
<g id="Group">
<g id="Shape">
<use xlink:href="#path0_fill" transform="translate(-123.538 -820)"/>
</g>
<g id="Shape">
<use xlink:href="#path1_fill" transform="translate(-129.66 -815.203)"/>
</g>
<g id="Shape">
<use xlink:href="#path2_fill" transform="translate(-129.544 -815.386)"/>
</g>
</g>
</g>
</g>
</g>
</g>
<defs>
<path id="path0_fill" fill-rule="evenodd" d="M 3.82348 23.1016C 1.33995 23.1016 0 17.1505 0 11.5508C 0 5.95107 1.33995 0 3.82348 0C 6.30701 0 7.64696 5.95107 7.64696 11.5508C 7.64696 17.1505 6.30701 23.1016 3.82348 23.1016ZM 3.82348 0.962585C 2.61725 0.962585 0.935066 4.99093 0.935066 11.5508C 0.935066 18.1112 2.61772 22.1391 3.82348 22.1391C 5.02972 22.1391 6.7119 18.1112 6.7119 11.5508C 6.7119 4.99093 5.02972 0.962585 3.82348 0.962585Z"/>
<path id="path1_fill" fill-rule="evenodd" d="M 2.54142 13.5164C 1.36745 13.5164 0.583863 13.178 0.212642 12.5114C -1.02258 10.2922 3.32501 6.13107 8.04288 3.34203C 11.5302 1.28021 15.0956 0 17.3477 0C 18.5231 0 19.3071 0.338342 19.6788 1.00636C 20.9145 3.22364 16.5669 7.38385 11.8486 10.1729C 8.3594 12.2352 4.79306 13.5164 2.54142 13.5164ZM 17.3477 0.962097C 15.2499 0.962097 11.8631 2.1937 8.50853 4.17659C 2.9809 7.4445 0.423493 10.9545 1.0238 12.0326C 1.21082 12.3685 1.75035 12.5538 2.54188 12.5538C 4.6397 12.5538 8.02744 11.3212 11.3834 9.33787C 16.911 6.07044 19.468 2.56188 18.8676 1.48477C 18.6802 1.14787 18.1402 0.962097 17.3477 0.962097Z"/>
<path id="path2_fill" fill-rule="evenodd" d="M 17.2169 13.8788C 14.9667 13.8788 11.376 12.5095 7.84571 10.3057C 3.6987 7.71738 0.57605 4.5616 0.0753228 2.45406C -0.0635343 1.86882 -0.0102356 1.36251 0.233816 0.94861C 0.60457 0.319091 1.34795 0 2.44384 0C 4.69361 0 8.28426 1.36925 11.8146 3.57353C 14.3103 5.13144 16.4773 6.91316 17.9159 8.59139C 19.4933 10.4318 20.0156 11.9325 19.426 12.9316C 19.0553 13.5602 18.3124 13.8788 17.2169 13.8788ZM 2.44384 0.962097C 1.71869 0.962097 1.2175 1.1344 1.03282 1.44771C 0.922019 1.63541 0.905655 1.89675 0.983266 2.22498C 1.42181 4.07167 4.44301 7.05611 8.33007 9.48226C 11.6715 11.5686 15.1598 12.9162 17.2165 12.9162C 17.9416 12.9162 18.4423 12.7444 18.627 12.4316C 18.9622 11.8627 18.4213 10.6359 17.2146 9.22814C 15.8372 7.62113 13.7469 5.90488 11.3298 4.39605C 7.98831 2.31017 4.50051 0.962097 2.44384 0.962097Z"/>
</defs>
</svg>
