<?xml version="1.0" encoding="UTF-8"?>
<svg width="30px" height="30px" viewBox="0 0 30 30" version="1.1" xmlns="http://www.w3.org/2000/svg" xmlns:xlink="http://www.w3.org/1999/xlink">
    <!-- Generator: Sketch 43.2 (39069) - http://www.bohemiancoding.com/sketch -->
    <title>085</title>
    <desc>Created with Sketch.</desc>
    <defs></defs>
    <g id="Wireframes---CURRENT" stroke="none" stroke-width="1" >
        <g id="Mission-Landing-Copy-6" transform="translate(-178.000000, -376.000000)" >
            <g id="085" transform="translate(178.000000, 376.000000)">
                <g id="Layer_1">
                    <g id="Group">
                        <path d="M18.140625,7.29125 L9.493125,7.29125 C9.148125,7.29125 8.868125,7.01125 8.868125,6.66625 C8.868125,6.32125 9.148125,6.04125 9.493125,6.04125 L18.140625,6.04125 C18.48625,6.04125 18.765625,6.32125 18.765625,6.66625 C18.765625,7.01125 18.48625,7.29125 18.140625,7.29125 Z" id="Shape"></path>
                        <path d="M18.140625,12.17125 L9.493125,12.17125 C9.148125,12.17125 8.868125,11.89125 8.868125,11.54625 C8.868125,11.20125 9.148125,10.92125 9.493125,10.92125 L18.140625,10.92125 C18.48625,10.92125 18.765625,11.20125 18.765625,11.54625 C18.765625,11.89125 18.48625,12.17125 18.140625,12.17125 Z" id="Shape"></path>
                        <path d="M18.140625,17.050625 L9.493125,17.050625 C9.148125,17.050625 8.868125,16.77125 8.868125,16.425625 C8.868125,16.08 9.148125,15.800625 9.493125,15.800625 L18.140625,15.800625 C18.48625,15.800625 18.765625,16.08 18.765625,16.425625 C18.765625,16.77125 18.48625,17.050625 18.140625,17.050625 Z" id="Shape"></path>
                        <g id="Shape">
                            <path d="M19.669375,29.8725 L8.325625,29.8725 C7.980625,29.8725 7.700625,29.593125 7.700625,29.2475 C7.700625,28.901875 7.980625,28.6225 8.325625,28.6225 L19.669375,28.6225 C21.22125,28.6225 22.484375,27.19625 22.484375,25.443125 L22.484375,4.556875 C22.484375,4.211875 22.76375,3.931875 23.109375,3.931875 C23.455,3.931875 23.734375,4.211875 23.734375,4.556875 L23.734375,25.443125 C23.734375,27.885625 21.910625,29.8725 19.669375,29.8725 Z"></path>
                            <path d="M4.890625,22.964375 C4.545625,22.964375 4.265625,22.685 4.265625,22.339375 L4.265625,4.556875 C4.265625,2.114375 6.086875,0.1275 8.325625,0.1275 L26.26,0.1275 C26.605625,0.1275 26.885,0.4075 26.885,0.7525 C26.885,1.0975 26.605625,1.3775 26.26,1.3775 L8.325625,1.3775 C6.77625,1.3775 5.515625,2.80375 5.515625,4.556875 L5.515625,22.339375 C5.515625,22.685 5.235625,22.964375 4.890625,22.964375 Z"></path>
                            <path d="M3.743125,29.8725 C1.679375,29.8725 0,28.043125 0,25.794375 C0,23.544375 1.679375,21.714375 3.743125,21.714375 L20.40375,21.714375 C20.749375,21.714375 21.02875,21.99375 21.02875,22.339375 C21.02875,22.685 20.749375,22.964375 20.40375,22.964375 L3.743125,22.964375 C2.36875,22.964375 1.25,24.23375 1.25,25.794375 C1.25,27.35375 2.36875,28.621875 3.743125,28.621875 C3.84375,28.621875 20.4025,28.59375 20.4025,28.59375 L20.405,29.84375 C20.405,29.844375 3.830625,29.8725 3.743125,29.8725 Z"></path>
                            <path d="M20.02125,29.8725 C17.956875,29.8725 16.2775,28.043125 16.2775,25.795 C16.2775,23.546875 17.9575,21.716875 20.02125,21.716875 C22.085,21.716875 23.764375,23.546875 23.764375,25.795 C23.764375,28.043125 22.085625,29.8725 20.02125,29.8725 Z M20.02125,22.96625 C18.64625,22.96625 17.5275,24.235 17.5275,25.794375 C17.5275,27.35375 18.64625,28.621875 20.02125,28.621875 C21.395625,28.621875 22.514375,27.35375 22.514375,25.794375 C22.514375,24.235 21.395625,22.96625 20.02125,22.96625 Z"></path>
                            <path d="M26.26,8.28375 C24.195,8.28375 22.515,6.455 22.515,4.206875 C22.515,1.956875 24.195,0.126875 26.26,0.126875 C28.321875,0.1275 30,1.958125 30,4.206875 C30,6.455 28.321875,8.28375 26.26,8.28375 Z M26.26,1.376875 C24.884375,1.376875 23.765,2.64625 23.765,4.206875 C23.765,5.765625 24.884375,7.03375 26.26,7.03375 C27.633125,7.03375 28.75,5.765625 28.75,4.206875 C28.75,2.646875 27.633125,1.3775 26.26,1.376875 Z"></path>
                        </g>
                    </g>
                </g>
            </g>
        </g>
    </g>
</svg>