<?xml version="1.0" encoding="UTF-8"?>
<svg width="102px" height="96px" viewBox="0 0 102 96" version="1.1" xmlns="http://www.w3.org/2000/svg" xmlns:xlink="http://www.w3.org/1999/xlink">
    <!-- Generator: Sketch 46.2 (44496) - http://www.bohemiancoding.com/sketch -->
    <title>publications</title>
    <desc>Created with Sketch.</desc>
    <defs></defs>
    <g id="Page-1" stroke="none" stroke-width="1" fill="none" fill-rule="evenodd">
        <g id="publications" transform="translate(1.000000, 1.000000)" stroke="#C1C0C1" stroke-width="2">
            <rect id="Rectangle-path" x="0" y="0" width="32.2580645" height="93.5483871"></rect>
            <path d="M37.0967742,0 L62.9032258,0" id="Shape"></path>
            <path d="M62.9032258,93.5483871 L37.0967742,93.5483871" id="Shape"></path>
            <rect id="Rectangle-path" x="67.7419355" y="0" width="32.2580645" height="93.5483871"></rect>
            <circle id="Oval" cx="50" cy="75.8064516" r="8.06451613"></circle>
            <circle id="Oval" cx="83.8709677" cy="75.8064516" r="8.06451613"></circle>
            <circle id="Oval" cx="16.1290323" cy="75.8064516" r="8.06451613"></circle>
            <path d="M0,58.0645161 L27.4193548,58.0645161" id="Shape"></path>
            <path d="M37.0967742,58.0645161 L62.9032258,58.0645161" id="Shape"></path>
            <path d="M72.5806452,58.0645161 L100,58.0645161" id="Shape"></path>
            <g id="Group" transform="translate(6.451613, 6.451613)">
                <rect id="Rectangle-path" x="0" y="0" width="19.3548387" height="45.1612903"></rect>
                <path d="M8.06451613,9.67741935 L11.2903226,9.67741935" id="Shape"></path>
                <path d="M8.06451613,35.483871 L11.2903226,35.483871" id="Shape"></path>
                <path d="M4.83870968,16.1290323 L14.516129,16.1290323" id="Shape"></path>
                <path d="M4.83870968,22.5806452 L14.516129,22.5806452" id="Shape"></path>
                <path d="M4.83870968,29.0322581 L14.516129,29.0322581" id="Shape"></path>
            </g>
            <g id="Group" transform="translate(40.322581, 6.451613)">
                <rect id="Rectangle-path" x="0" y="0" width="19.3548387" height="45.1612903"></rect>
                <path d="M8.06451613,9.67741935 L11.2903226,9.67741935" id="Shape"></path>
                <path d="M8.06451613,35.483871 L11.2903226,35.483871" id="Shape"></path>
                <path d="M4.83870968,16.1290323 L14.516129,16.1290323" id="Shape"></path>
                <path d="M4.83870968,22.5806452 L14.516129,22.5806452" id="Shape"></path>
                <path d="M4.83870968,29.0322581 L14.516129,29.0322581" id="Shape"></path>
            </g>
            <g id="Group" transform="translate(74.193548, 6.451613)">
                <rect id="Rectangle-path" x="0" y="0" width="19.3548387" height="45.1612903"></rect>
                <path d="M8.06451613,9.67741935 L11.2903226,9.67741935" id="Shape"></path>
                <path d="M8.06451613,35.483871 L11.2903226,35.483871" id="Shape"></path>
                <path d="M4.83870968,16.1290323 L14.516129,16.1290323" id="Shape"></path>
                <path d="M4.83870968,22.5806452 L14.516129,22.5806452" id="Shape"></path>
                <path d="M4.83870968,29.0322581 L14.516129,29.0322581" id="Shape"></path>
            </g>
        </g>
    </g>
</svg>