<?xml version="1.0" encoding="UTF-8"?>
<svg width="20px" height="23px" viewBox="0 0 20 23" version="1.1" xmlns="http://www.w3.org/2000/svg" xmlns:xlink="http://www.w3.org/1999/xlink">
    <!-- Generator: Sketch 43.2 (39069) - http://www.bohemiancoding.com/sketch -->
    <title>1028</title>
    <desc>Created with Sketch.</desc>
    <defs></defs>
    <g id="Wireframes---CURRENT" stroke="none" stroke-width="1" fill="none" fill-rule="evenodd">
        <g id="Mission-Landing-Copy-6" transform="translate(-84.000000, -805.000000)" fill="#838384">
            <g id="Group-8" transform="translate(21.000000, 805.000000)">
                <g id="1028" transform="translate(63.000000, 0.000000)">
                    <g id="Layer_1">
                        <path d="M6.72210204,23 C6.60006122,23 6.47989796,22.9521224 6.3902449,22.8624694 L0.360020408,16.8327143 C0.27177551,16.7444694 0.222489796,16.6257143 0.222489796,16.5008571 C0.222489796,16.376 0.27177551,16.2567755 0.360020408,16.169 L6.3902449,10.1406531 C6.5244898,10.0059388 6.72632653,9.96604082 6.90187755,10.0387959 C7.07742857,10.111551 7.1914898,10.2828776 7.1914898,10.4725102 L7.1914898,12.4124898 C7.2525102,12.4129592 7.31681633,12.4134286 7.38253061,12.4134286 C9.52246939,12.4134286 13.1569388,11.9937959 13.4554694,9.1845102 C13.7746531,6.17010204 11.5089184,3.61287755 6.52918367,1.36638776 C6.32546939,1.27438776 6.21516327,1.05236735 6.26444898,0.834571429 C6.31373469,0.61677551 6.50946939,0.460938776 6.73289796,0.469387755 C6.86057143,0.472204082 19.4917959,0.875408163 19.4917959,10.4725102 C19.4917959,19.4110612 9.67408163,20.8342449 7.1914898,21.0506327 L7.1914898,22.5306122 C7.1914898,22.7202449 7.07695918,22.8920408 6.90187755,22.9643265 C6.84367347,22.9887347 6.78265306,23 6.72210204,23 Z M1.35606122,16.5008571 L6.25271429,21.3975102 L6.25271429,20.6136327 C6.25271429,20.3643878 6.44797959,20.1583265 6.69722449,20.1447143 C8.67710204,20.0386327 18.5530204,19.0749796 18.5530204,10.4725102 C18.5530204,4.24795918 12.7124286,2.29530612 9.22957143,1.68463265 C13.0072041,3.8564898 14.6988776,6.35691837 14.3890816,9.28355102 C14.1144898,11.8694082 11.5610204,13.3522041 7.383,13.3522041 C7.11685714,13.3522041 6.88544898,13.3456327 6.70144898,13.3376531 C6.45032653,13.3268571 6.25271429,13.1198571 6.25271429,12.8687347 L6.25271429,11.6056122 L1.35606122,16.5008571 Z" id="Shape"></path>
                    </g>
                </g>
            </g>
        </g>
    </g>
</svg>