<?xml version="1.0" encoding="UTF-8"?>
<svg width="101px" height="101px" viewBox="0 0 101 101" version="1.1" xmlns="http://www.w3.org/2000/svg" xmlns:xlink="http://www.w3.org/1999/xlink">
    <!-- Generator: Sketch 44.1 (41455) - http://www.bohemiancoding.com/sketch -->
    <title>Group 2</title>
    <desc>Created with Sketch.</desc>
    <defs></defs>
    <g id="Page-1" stroke="none" stroke-width="1" fill="none" fill-rule="evenodd">
        <g id="Group-2" transform="translate(1.000000, 1.000000)" stroke="#C1C0C1" stroke-width="2">
            <path d="M16.3126984,4.32222222 C21.0746032,-0.43968254 44.884127,20.1952381 51.2333333,26.5444444 C57.5825397,32.8936508 78.2174603,56.7031746 73.4555556,61.4650794 C68.6936508,66.2269841 44.884127,45.5920635 38.5349206,39.2428571 C32.1857143,32.8936508 11.5507937,9.08412698 16.3126984,4.32222222 Z" id="Shape"></path>
            <path d="M49.2063492,57.1428571 C49.2063492,57.1428571 44.4444444,53.968254 34.9206349,44.4444444 C25.3968254,34.9206349 20.6349206,28.5714286 20.6349206,28.5714286" id="Shape"></path>
            <path d="M49.2063492,41.2698413 L70.8555556,6.92222222" id="Shape"></path>
            <path d="M36.5079365,28.5714286 L70.8555556,6.92222222" id="Shape"></path>
            <path d="M12.6984127,36.8968254 C11.5730159,32.4825397 11.0984127,28.0031746 11.1111111,23.8095238 C11.1396825,14.8746032 13.3904762,7.24444444 16.3126984,4.32063492" id="Shape"></path>
            <path d="M73.4555556,61.4650794 C70.5333333,64.3873016 62.9015873,66.6365079 53.968254,66.6666667 C49.8984127,66.6793651 45.5587302,66.231746 41.2698413,65.1777778" id="Shape"></path>
            <polygon id="Shape" points="73.015873 7.93650794 69.8412698 4.76190476 69.8412698 3.17460317 73.015873 0 74.6031746 0 77.7777778 3.17460317 77.7777778 4.76190476 74.6031746 7.93650794"></polygon>
            <polyline id="Shape" points="34.9206349 98.4126984 34.9206349 53.968254 23.8095238 42.8571429 6.34920635 42.8571429 6.34920635 61.9047619 15.8730159 71.4285714"></polyline>
            <path d="M6.34920635,55.5555556 L34.9206349,55.5555556" id="Shape"></path>
            <polyline id="Shape" points="58.7301587 98.4126984 0 98.4126984 0 82.5396825 53.968254 82.5396825 53.968254 92.0634921"></polyline>
            <path d="M100,98.4126984 L61.9047619,98.4126984" id="Shape"></path>
            <polyline id="Shape" points="66.6666667 98.4126984 66.6666667 92.0634921 26.984127 92.0634921"></polyline>
            <path d="M22.2222222,60.3174603 L22.2222222,82.5396825" id="Shape"></path>
            <path d="M15.8730159,55.5555556 L15.8730159,82.5396825" id="Shape"></path>
            <path d="M23.8095238,92.0634921 L20.6349206,92.0634921" id="Shape"></path>
            <path d="M17.4603175,92.0634921 L14.2857143,92.0634921" id="Shape"></path>
            <path d="M11.1111111,92.0634921 L7.93650794,92.0634921" id="Shape"></path>
            <path d="M11.1111111,49.2063492 L14.2857143,49.2063492" id="Shape"></path>
            <path d="M92.0634921,98.4126984 L92.0634921,80.952381" id="Shape"></path>
            <circle id="Oval" cx="92.0634921" cy="74.6031746" r="6.34920635"></circle>
            <path d="M80.952381,98.4126984 L80.952381,92.0634921" id="Shape"></path>
            <circle id="Oval" cx="80.952381" cy="87.3015873" r="4.76190476"></circle>
        </g>
    </g>
</svg>