<?xml version="1.0" encoding="utf-8"?>
<!-- Generator: Adobe Illustrator 16.0.0, SVG Export Plug-In . SVG Version: 6.00 Build 0)  -->
<!DOCTYPE svg PUBLIC "-//W3C//DTD SVG 1.1//EN" "http://www.w3.org/Graphics/SVG/1.1/DTD/svg11.dtd">
<svg version="1.1" id="Layer_1" xmlns="http://www.w3.org/2000/svg" xmlns:xlink="http://www.w3.org/1999/xlink" x="0px" y="0px"
	 width="48px" height="48px" viewBox="0 0 48 48" enable-background="new 0 0 48 48" xml:space="preserve">
<g>
	<path d="M19.764,39.613L19.764,39.613C8.866,39.611,0,30.743,0,19.845C0,8.941,8.866,0.071,19.764,0.071
		c10.903,0,19.773,8.871,19.773,19.774C39.537,30.745,30.667,39.613,19.764,39.613z M19.764,2.071C9.969,2.071,2,10.044,2,19.845
		c0,9.795,7.969,17.766,17.764,17.768c9.8,0,17.773-7.971,17.773-17.768C37.537,10.044,29.564,2.071,19.764,2.071z"/>
	<path d="M47,47.93c-0.256,0-0.512-0.098-0.707-0.293l-13.732-13.73c-0.391-0.391-0.391-1.023,0-1.414s1.023-0.391,1.414,0
		l13.732,13.73c0.391,0.391,0.391,1.023,0,1.414C47.512,47.832,47.256,47.93,47,47.93z"/>
</g>
</svg>
