<?xml version="1.0" encoding="UTF-8"?>
<svg width="21px" height="21px" viewBox="0 0 21 21" version="1.1" xmlns="http://www.w3.org/2000/svg" xmlns:xlink="http://www.w3.org/1999/xlink">
    <!-- Generator: Sketch 44.1 (41455) - http://www.bohemiancoding.com/sketch -->
    <title>606</title>
    <desc>Created with Sketch.</desc>
    <defs></defs>
    <g id="Wireframes---CURRENT" stroke="none" stroke-width="1" fill="none" fill-rule="evenodd">
        <g id="606" transform="translate(1.000000, 1.000000)" stroke-width="2" stroke="#4A4A4A" fill="#4A4A4A">
            <g id="Layer_1">
                <g id="Group">
                    <path d="M7.5392503,15.1634501 L7.5392503,15.1634501 C3.38205794,15.1626845 0,11.7681051 0,7.59646246 C0,3.4225231 3.38205794,0.0271780718 7.5392503,0.0271780718 C11.69835,0.0271780718 15.0819338,3.42290589 15.0819338,7.59646246 C15.0819338,11.7688707 11.69835,15.1634501 7.5392503,15.1634501 Z M7.5392503,0.792757559 C3.8028125,0.792757559 0.762927576,3.84474019 0.762927576,7.59646246 C0.762927576,11.345888 3.8028125,14.397105 7.5392503,14.3978706 C11.2775954,14.3978706 14.3190062,11.3466536 14.3190062,7.59646246 C14.3190062,3.84474019 11.2775954,0.792757559 7.5392503,0.792757559 Z" id="Shape"></path>
                    <path d="M17.928798,18.3471124 C17.8311433,18.3471124 17.7334886,18.309599 17.6591031,18.234955 L12.4208424,12.9792518 C12.2716901,12.829581 12.2716901,12.5876579 12.4208424,12.4379871 C12.5699947,12.2883164 12.8110798,12.2883164 12.9602322,12.4379871 L18.1984929,17.6936903 C18.3476453,17.8433611 18.3476453,18.0852842 18.1984929,18.234955 C18.1241075,18.309599 18.0264528,18.3471124 17.928798,18.3471124 Z" id="Shape"></path>
                </g>
            </g>
        </g>
    </g>
</svg>