<?xml version="1.0" encoding="UTF-8"?>
<svg width="23px" height="23px" viewBox="0 0 23 23" version="1.1" xmlns="http://www.w3.org/2000/svg" xmlns:xlink="http://www.w3.org/1999/xlink">
    <!-- Generator: Sketch 43.1 (39012) - http://www.bohemiancoding.com/sketch -->
    <title>516</title>
    <desc>Created with Sketch.</desc>
    <defs></defs>
    <g id="Wireframes---CURRENT" stroke="none" stroke-width="1" fill="none" fill-rule="evenodd">
        <g id="Program-Landing-Copy-4" transform="translate(-904.000000, -438.000000)" fill="#FFFFFF">
            <g id="516" transform="translate(904.000000, 438.000000)">
                <g id="Layer_1">
                    <g id="Group">
                        <path d="M8.570375,19.6654792 L8.570375,19.6654792 C8.44339583,19.6654792 8.32120833,19.6151667 8.23160417,19.5250833 L3.47395833,14.766 C3.28660417,14.5786458 3.28660417,14.2758125 3.47395833,14.0884583 L17.4248958,0.140395833 C17.61225,-0.0469583333 17.9150833,-0.0469583333 18.1024375,0.140395833 L22.8596042,4.89564583 C22.9496875,4.98525 23,5.1074375 23,5.23441667 C23,5.36139583 22.9496875,5.48358333 22.8596042,5.5731875 L8.90914583,19.5250833 C8.8190625,19.6151667 8.69735417,19.6654792 8.570375,19.6654792 Z M4.49027083,14.4272292 L8.570375,18.5087708 L21.8432917,5.23441667 L17.7636667,1.15670833 L4.49027083,14.4272292 Z" id="Shape"></path>
                        <path d="M0.479166667,23 C0.354583333,23 0.231916667,22.951125 0.140395833,22.8596042 C0.00335416667,22.7225625 -0.0378541667,22.5165208 0.0364166667,22.3373125 L3.381,14.2547292 C3.44185417,14.1066667 3.57314583,13.9998125 3.7303125,13.9681875 C3.88747917,13.9346458 4.0494375,13.9859167 4.16252083,14.099 L8.9024375,18.8379583 C9.01552083,18.9510417 9.064875,19.113 9.03372917,19.2701667 C9.00258333,19.4268542 8.89477083,19.5581458 8.74670833,19.6194792 L0.662208333,22.9635833 C0.603270833,22.9885 0.540979167,23 0.479166667,23 Z M3.99241667,15.2839792 L1.36370833,21.6362917 L7.71745833,19.0085417 L3.99241667,15.2839792 Z" id="Shape"></path>
                        <path d="M19.4014583,8.374875 C19.2787917,8.374875 19.156125,8.32791667 19.0626875,8.23447917 L14.8163125,3.98379167 C14.6289583,3.7964375 14.6289583,3.49360417 14.8163125,3.30625 C15.0036667,3.119375 15.3065,3.11889583 15.4938542,3.30672917 L19.7402292,7.55741667 C19.9275833,7.74477083 19.9275833,8.04760417 19.7402292,8.23495833 C19.6467917,8.32791667 19.524125,8.374875 19.4014583,8.374875 Z" id="Shape"></path>
                        <path d="M7.57945833,15.8997083 C7.45679167,15.8997083 7.334125,15.85275 7.2406875,15.7593125 C7.05333333,15.5719583 7.05333333,15.269125 7.2406875,15.0817708 L15.5834583,6.739 C15.7708125,6.55164583 16.0736458,6.55164583 16.261,6.739 C16.4483542,6.92635417 16.4483542,7.2291875 16.261,7.41654167 L7.91822917,15.7593125 C7.82479167,15.85275 7.702125,15.8997083 7.57945833,15.8997083 Z" id="Shape"></path>
                    </g>
                </g>
            </g>
        </g>
    </g>
</svg>
