<?xml version="1.0" encoding="UTF-8"?>
<svg width="31px" height="31px" viewBox="0 0 31 31" version="1.1" xmlns="http://www.w3.org/2000/svg" xmlns:xlink="http://www.w3.org/1999/xlink">
    <!-- Generator: Sketch 45.1 (43504) - http://www.bohemiancoding.com/sketch -->
    <title>1155 copy</title>
    <desc>Created with Sketch.</desc>
    <defs></defs>
    <g id="WIREFRAMES" stroke="none" stroke-width="1" fill="none" fill-rule="evenodd">
        <g id="Forum---Landing-Page-Copy" transform="translate(-793.000000, -112.000000)" fill="#FFFFFF">
            <g id="Group-18" transform="translate(302.000000, 93.000000)">
                <g id="1155-copy" transform="translate(491.000000, 19.000000)">
                    <g id="Layer_1">
                        <g id="Group">
                            <path d="M15.0422383,30.08573 C6.74832414,30.08573 0,23.3374059 0,15.0434918 C0,6.74957766 6.74832414,0.00125351986 15.0422383,0.00125351986 C23.3361524,0.00125351986 30.0844765,6.74957766 30.0844765,15.0434918 C30.0844765,23.3374059 23.3361524,30.08573 15.0422383,30.08573 Z M15.0422383,1.25477338 C7.43901358,1.25477338 1.25351986,7.4402671 1.25351986,15.0434918 C1.25351986,22.6467165 7.43901358,28.8322102 15.0422383,28.8322102 C22.6454629,28.8322102 28.8309567,22.6467165 28.8309567,15.0434918 C28.8309567,7.4402671 22.6454629,1.25477338 15.0422383,1.25477338 Z" id="Shape"></path>
                            <rect id="Rectangle-path" transform="translate(15.072484, 14.758269) rotate(45.000000) translate(-15.072484, -14.758269) " x="14.44573" y="8.28264723" width="1.25350783" height="12.9512429"></rect>
                            <rect id="Rectangle-path" transform="translate(15.146963, 14.834076) rotate(45.000000) translate(-15.146963, -14.834076) " x="8.35702461" y="14.2073217" width="13.5798771" height="1.25350783"></rect>
                        </g>
                    </g>
                </g>
            </g>
        </g>
    </g>
</svg>