<?xml version="1.0" encoding="iso-8859-1"?>
<!-- Generator: Adobe Illustrator 21.0.2, SVG Export Plug-In . SVG Version: 6.00 Build 0)  -->
<svg version="1.1" id="Layer_1_1_" xmlns="http://www.w3.org/2000/svg" xmlns:xlink="http://www.w3.org/1999/xlink" x="0px" y="0px"
	 viewBox="0 0 64 64" style="enable-background:new 0 0 64 64;" xml:space="preserve">
<polygon style="fill:#DDA137;" points="54,22 46.731,17.705 40.191,13.84 35.145,10.858 32,9 27.484,11.668 21.103,15.439 10,22 
	32,35 "/>
<polygon style="fill:#DDD8CE;" points="40,46 62,33 54,22 32,35 "/>
<polygon style="fill:#DDD8CE;" points="10,22 2,33 24,46 32,35 "/>
<polygon style="fill:#512869;" points="32,35 32,61 54,48 54,37.727 40,46 "/>
<polygon style="fill:#B53C33;" points="24,46 10,37.727 10,48 32,61 32,35 "/>
<g>
</g>
<path style="fill:#201F2D;" d="M62.809,32.412l-8-11c-0.009-0.013-0.024-0.019-0.034-0.032c-0.059-0.073-0.126-0.138-0.205-0.193
	c-0.016-0.011-0.029-0.026-0.046-0.036c-0.006-0.004-0.01-0.009-0.016-0.012l-6.252-3.695C49.712,15.94,51.747,15,54,15v-2
	c-2.987,0-5.665,1.324-7.499,3.407l-4.725-2.792C44.667,10.765,48.63,9,53,9V7c-5.105,0-9.71,2.146-12.989,5.572l-3.284-1.94
	C40.56,6.56,45.981,4,52,4V2c-6.755,0-12.839,2.928-17.051,7.581l-2.441-1.442c-0.314-0.186-0.703-0.186-1.018,0l-3.497,2.067
	C26.139,5.969,21.912,3,17,3v2c4.18,0,7.765,2.581,9.257,6.232l-4.815,2.845C18.442,9.239,13.099,6,7,6v2
	c5.368,0,10.072,2.843,12.723,7.093L9.491,21.139c-0.007,0.004-0.011,0.01-0.018,0.014c-0.014,0.008-0.025,0.021-0.038,0.03
	c-0.081,0.056-0.151,0.123-0.211,0.198c-0.01,0.012-0.024,0.019-0.034,0.032l-8,11c-0.166,0.228-0.228,0.515-0.171,0.791
	c0.058,0.275,0.229,0.515,0.471,0.658L9,38.298V48c0,0.354,0.187,0.681,0.491,0.861l22,13C31.648,61.954,31.824,62,32,62
	s0.352-0.046,0.509-0.139l22-13C54.813,48.681,55,48.354,55,48v-9.702l7.509-4.437c0.242-0.144,0.413-0.383,0.471-0.658
	C63.036,32.927,62.975,32.64,62.809,32.412z M22,23h2c0-2.561-0.586-4.983-1.604-7.163l4.436-2.621C26.936,13.796,27,14.39,27,15h2
	c0-0.985-0.132-1.938-0.357-2.855L32,10.161l1.659,0.98C30.737,14.998,29,19.799,29,25h2c0-4.831,1.656-9.273,4.408-12.825
	l3.288,1.943C36.388,17.144,35,20.909,35,25h2c0-3.72,1.287-7.14,3.425-9.86l4.905,2.898C44.489,19.502,44,21.194,44,23h2
	c0-1.435,0.385-2.78,1.049-3.946L52.034,22L32,33.838L11.966,22l8.704-5.143C21.517,18.734,22,20.81,22,23z M10.274,23.324
	l16.892,9.982l3.378,1.996l-6.818,9.375L3.456,32.698L10.274,23.324z M11,39.48l12.491,7.381c0.099,0.058,0.205,0.091,0.312,0.113
	c0.033,0.007,0.065,0.01,0.098,0.013C23.934,46.99,23.966,47,23.999,47c0.025,0,0.047-0.015,0.072-0.017
	c0.103-0.008,0.2-0.031,0.297-0.07c0.038-0.015,0.075-0.025,0.111-0.045c0.125-0.069,0.241-0.157,0.33-0.28L31,38.075v21.173
	L11,47.43V39.48z M53,47.43L33,59.248V38.075l6.191,8.513c0.089,0.122,0.204,0.21,0.329,0.279c0.037,0.021,0.075,0.031,0.114,0.047
	c0.095,0.038,0.19,0.061,0.292,0.069C39.953,46.985,39.975,47,40.001,47c0.034,0,0.067-0.01,0.101-0.013
	c0.032-0.003,0.062-0.006,0.094-0.012c0.108-0.021,0.214-0.054,0.313-0.113L53,39.48V47.43z M40.274,44.677l-6.818-9.375
	l3.378-1.996l16.892-9.982l6.818,9.374L40.274,44.677z"/>
<rect x="54" y="2" style="fill:#201F2D;" width="2" height="2"/>
<rect x="55" y="7" style="fill:#201F2D;" width="5" height="2"/>
<rect x="58" y="2" style="fill:#201F2D;" width="2" height="2"/>
<path style="fill:#201F2D;" d="M10,17h2c0-2.757-2.243-5-5-5v2C8.654,14,10,15.346,10,17z"/>
<rect x="3" y="6" style="fill:#201F2D;" width="2" height="2"/>
<rect x="3" y="12" style="fill:#201F2D;" width="2" height="2"/>
<rect x="29" y="27" style="fill:#201F2D;" width="2" height="2"/>
<rect x="26" y="18" style="fill:#201F2D;" width="2" height="2"/>
<rect x="24" y="25" style="fill:#201F2D;" width="2" height="2"/>
<rect x="40" y="21" style="fill:#201F2D;" width="2" height="2"/>
<rect x="38" y="26" style="fill:#201F2D;" width="2" height="2"/>
<rect x="13" y="3" style="fill:#201F2D;" width="2" height="2"/>
</svg>
