<?xml version="1.0" encoding="iso-8859-1"?>
<!-- Generator: Adobe Illustrator 21.0.2, SVG Export Plug-In . SVG Version: 6.00 Build 0)  -->
<svg version="1.1" id="Layer_1_1_" xmlns="http://www.w3.org/2000/svg" xmlns:xlink="http://www.w3.org/1999/xlink" x="0px" y="0px"
	 viewBox="0 0 64 64" style="enable-background:new 0 0 64 64;" xml:space="preserve">
<polygon style="fill:#B53C33;" points="36,12 38,3 29,5 33,9 "/>
<polygon style="fill:#512869;" points="20,22 26,22 36,12 33,9 "/>
<path style="fill:#B53C33;" d="M51,22H26h-6h-7C7.477,22,3,26.477,3,32c0,5.523,4.477,10,10,10h7h26h5c5.523,0,10-4.477,10-10
	C61,26.477,56.523,22,51,22z M11,36c-1.105,0-2.105-0.448-2.828-1.172C7.448,34.105,7,33.105,7,32c0-2.209,1.791-4,4-4
	c1.105,0,2.105,0.448,2.828,1.172C14.552,29.895,15,30.895,15,32C15,34.209,13.209,36,11,36z M55.828,34.828
	C55.105,35.552,54.105,36,53,36c-2.209,0-4-1.791-4-4c0-1.105,0.448-2.105,1.172-2.828C50.895,28.448,51.895,28,53,28
	c2.209,0,4,1.791,4,4C57,33.105,56.552,34.105,55.828,34.828z"/>
<polygon style="fill:#DDA137;" points="43,3 43,8 43,13 55,11 55,5 "/>
<polygon style="fill:#DDD8CE;" points="55,11 59,11 60,11 60,5 55,5 "/>
<polygon style="fill:#DDD8CE;" points="46,49 52,49 52,42 51,42 46,42 "/>
<polygon style="fill:#512869;" points="44,53 49,61 54,53 52,49 46,49 "/>
<path style="fill:#DDD8CE;" d="M11,28c-2.209,0-4,1.791-4,4c0,1.105,0.448,2.105,1.172,2.828C8.895,35.552,9.895,36,11,36
	c2.209,0,4-1.791,4-4c0-1.105-0.448-2.105-1.172-2.828C13.105,28.448,12.105,28,11,28z"/>
<path style="fill:#DDD8CE;" d="M53,28c-1.105,0-2.105,0.448-2.828,1.172C49.448,29.895,49,30.895,49,32c0,2.209,1.791,4,4,4
	c1.105,0,2.105-0.448,2.828-1.172C56.552,34.105,57,33.105,57,32C57,29.791,55.209,28,53,28z"/>
<polygon style="fill:#DDD8CE;" points="33,9 29,5 12,22 13,22 20,22 "/>
<polygon style="fill:#DDA137;" points="12,42 21,51 25,47 20,42 13,42 "/>
<polygon style="fill:#DDD8CE;" points="22,55 27,58 24,56 27,54 27,52 30,52 32,56 34,57 30,51 28,47 25,47 21,51 "/>
<polygon style="fill:#DDA137;" points="30,52 27,52 27,54 24,56 27,58 32,58 34,57 32,56 "/>
<g>
</g>
<path style="fill:#201F2D;" d="M53.614,21.327L59.549,12H60c0.552,0,1-0.447,1-1V5c0-0.553-0.448-1-1-1h-4.917L43.165,2.014
	c-0.29-0.047-0.586,0.033-0.811,0.224C42.129,2.427,42,2.706,42,3v4h-1v2h1v4c0,0.294,0.129,0.573,0.354,0.763
	C42.536,13.917,42.765,14,43,14c0.055,0,0.11-0.005,0.165-0.014L55.083,12h2.096l-5.741,9.022C51.291,21.016,51.147,21,51,21H28.414
	l8.293-8.293c0.135-0.135,0.228-0.305,0.269-0.49l2-9c0.074-0.334-0.027-0.683-0.269-0.924c-0.242-0.242-0.593-0.343-0.924-0.27
	l-9,2c-0.186,0.042-0.356,0.135-0.49,0.27L11.466,21.12C6.126,21.87,2,26.456,2,32s4.126,10.13,9.466,10.88l8.554,8.554
	c-0.116,1.451,0.482,3.011,1.654,4.213c1.978,2.029,5.053,3.345,8.435,3.61c0.233,0.019,0.464,0.027,0.693,0.027
	c1.515,0,2.921-0.398,4.014-1.147c0.462-0.314,0.804-0.737,0.987-1.222c0.177-0.468-0.019-0.994-0.459-1.232
	c-0.408-0.224-0.912-0.132-1.219,0.209c-0.069-0.002-0.191-0.025-0.311-0.093c-1.213-0.683-1.935-2.537-2.572-4.172
	c-0.225-0.577-0.439-1.127-0.664-1.606c-0.455-0.975-0.971-2.08-1.854-2.955c-0.997-0.99-2.304-1.445-3.491-1.246L22.414,43H45
	v5.764l-1.895,3.789c-0.156,0.312-0.138,0.682,0.046,0.978l5,8C48.335,61.822,48.655,62,49,62s0.665-0.178,0.848-0.47l5-8
	c0.185-0.296,0.202-0.666,0.046-0.978L53,48.764v-5.955c5.112-0.944,9-5.427,9-10.809C62,26.837,58.419,22.505,53.614,21.327z
	 M44,4.181l10,1.666v4.307l-10,1.666V4.181z M56,6h3v4h-3V6z M22.414,21L33,10.414L34.586,12l-9,9H22.414z M31.586,9l-12,12h-5.172
	L29,6.414L31.586,9z M35.419,10.005l-4.424-4.424l5.688-1.264L35.419,10.005z M32.215,57.124c-0.6,0.146-1.26,0.196-1.95,0.14
	c-1.526-0.12-2.966-0.485-4.232-1.044c0.071-0.047,0.14-0.109,0.212-0.149l0.122-0.065c0.231-0.121,0.547-0.287,0.812-0.585
	c0.501-0.566,0.635-1.408,0.367-2.31c-0.015-0.049-0.03-0.098-0.046-0.146c0.131,0.036,0.245,0.069,0.315,0.09
	c0.208,0.061,0.375,0.106,0.462,0.123c0.515,0.095,0.994,0.091,1.433,0.016C30.306,54.665,31.022,56.168,32.215,57.124z
	 M28.767,50.867c0.055,0.118,0.109,0.251,0.163,0.378c-0.089-0.007-0.18-0.016-0.276-0.034c-0.06-0.014-0.156-0.043-0.275-0.078
	c-1.189-0.347-2.151-0.569-2.788-0.004c-0.321,0.284-0.461,0.702-0.387,1.145c0.063,0.375,0.182,0.705,0.287,0.996
	c0.049,0.135,0.098,0.27,0.139,0.409c0.07,0.236,0.058,0.394,0.057,0.41c-0.034,0.032-0.163,0.1-0.249,0.145l-0.156,0.084
	c-0.429,0.235-0.789,0.528-1.125,0.824c-0.379-0.277-0.737-0.569-1.051-0.891c-0.825-0.846-1.227-1.961-1.059-2.883l3.566-3.566
	c0.606-0.078,1.276,0.26,1.705,0.685C27.947,49.11,28.364,50.004,28.767,50.867z M23.586,47L21,49.586L14.414,43h5.172L23.586,47z
	 M50,57.513V53h-2v4.513l-2.855-4.568L46.618,50h4.764l1.473,2.945L50,57.513z M51,48h-4v-5h4V48z M51,41h-5H13
	c-4.962,0-9-4.037-9-9s4.038-9,9-9h38c4.962,0,9,4.037,9,9S55.962,41,51,41z"/>
<path style="fill:#201F2D;" d="M11,27c-2.757,0-5,2.243-5,5s2.243,5,5,5s5-2.243,5-5S13.757,27,11,27z M11,29
	c0.462,0,0.894,0.113,1.285,0.301l-3.985,3.985C8.113,32.894,8,32.462,8,32C8,30.346,9.346,29,11,29z M11,35
	c-0.462,0-0.894-0.113-1.285-0.301l3.985-3.985C13.887,31.106,14,31.538,14,32C14,33.654,12.654,35,11,35z"/>
<path style="fill:#201F2D;" d="M53,27c-2.757,0-5,2.243-5,5s2.243,5,5,5s5-2.243,5-5S55.757,27,53,27z M56,32
	c0,0.462-0.113,0.894-0.301,1.285l-3.985-3.985C52.106,29.113,52.538,29,53,29C54.654,29,56,30.346,56,32z M50,32
	c0-0.462,0.113-0.894,0.301-1.285l3.985,3.985C53.894,34.887,53.462,35,53,35C51.346,35,50,33.654,50,32z"/>
<rect x="39" y="37" style="fill:#201F2D;" width="2" height="2"/>
<rect x="43" y="37" style="fill:#201F2D;" width="2" height="2"/>
<rect x="47" y="37" style="fill:#201F2D;" width="2" height="2"/>
</svg>
