<?xml version="1.0" encoding="iso-8859-1"?>
<!-- Generator: Adobe Illustrator 21.0.2, SVG Export Plug-In . SVG Version: 6.00 Build 0)  -->
<svg version="1.1" id="Layer_1_1_" xmlns="http://www.w3.org/2000/svg" xmlns:xlink="http://www.w3.org/1999/xlink" x="0px" y="0px"
	 viewBox="0 0 64 64" style="enable-background:new 0 0 64 64;" xml:space="preserve">
<path style="fill:#DDD8CE;" d="M24,3v8H12v19h12h5v-7h6v7h5h12V11H40V3H24z M34.745,12.151L32,15l-2.745-2.849l-0.686-0.712
	c-0.758-0.787-0.758-2.062,0-2.849c0.758-0.787,1.987-0.787,2.745,0L32,9.302l0.686-0.712c0.758-0.787,1.987-0.787,2.745,0
	c0.758,0.787,0.758,2.062,0,2.849L34.745,12.151z"/>
<rect x="29" y="23" style="fill:#DDA137;" width="6" height="7"/>
<path style="fill:#B53C33;" d="M35.431,8.59c-0.758-0.787-1.987-0.787-2.745,0L32,9.302L31.314,8.59
	c-0.758-0.787-1.987-0.787-2.745,0c-0.758,0.787-0.758,2.062,0,2.849l0.686,0.712L32,15l2.745-2.849l0.686-0.712
	C36.19,10.652,36.19,9.377,35.431,8.59z"/>
<path style="fill:#DDA137;" d="M58.5,17c-1.381,0-2.5,1.119-2.5,2.5V32L43,45v17h9v-9l9-11V19.5C61,18.119,59.881,17,58.5,17z"/>
<path style="fill:#DDA137;" d="M5.5,17C4.119,17,3,18.119,3,19.5V42l9,11v9h9V45L8,32V19.5C8,18.119,6.881,17,5.5,17z"/>
<g>
</g>
<path style="fill:#201F2D;" d="M5.5,16C3.57,16,2,17.57,2,19.5v22c0,0.224,0.075,0.44,0.213,0.616L11,53.345V62h2v-9
	c0-0.224-0.075-0.44-0.213-0.616L4,41.155V19.5C4,18.673,4.673,18,5.5,18S7,18.673,7,19.5V32c0,0.266,0.105,0.52,0.293,0.707
	l1.464,1.464C7.17,34.638,6,36.092,6,37.828c0,1.022,0.398,1.984,1.121,2.707l6.172,6.172l1.414-1.414l-6.172-6.172
	C8.195,38.781,8,38.31,8,37.828C8,36.82,8.82,36,9.828,36c0.481,0,0.953,0.195,1.293,0.535l0.172,0.172L20,45.414V62h2V45
	c0-0.266-0.105-0.52-0.293-0.707l-9-9l-0.172-0.172L9,31.586V19.5C9,17.57,7.43,16,5.5,16z"/>
<path style="fill:#201F2D;" d="M58.5,16c-1.93,0-3.5,1.57-3.5,3.5v12.086l-3.535,3.535l-0.172,0.172l-9,9
	C42.105,44.48,42,44.734,42,45v17h2V45.414l8.707-8.707l0.172-0.172C53.219,36.195,53.69,36,54.172,36C55.18,36,56,36.82,56,37.828
	c0,0.481-0.195,0.953-0.535,1.293l-6.172,6.172l1.414,1.414l6.172-6.172C57.602,39.812,58,38.851,58,37.828
	c0-1.736-1.17-3.19-2.757-3.657l1.464-1.464C56.895,32.52,57,32.266,57,32V19.5c0-0.827,0.673-1.5,1.5-1.5s1.5,0.673,1.5,1.5v21.655
	l-8.787,11.229C51.075,52.56,51,52.776,51,53v9h2v-8.655l8.787-11.229C61.925,41.94,62,41.724,62,41.5v-22
	C62,17.57,60.43,16,58.5,16z"/>
<path style="fill:#201F2D;" d="M40,2H24c-0.553,0-1,0.447-1,1v7H12c-0.553,0-1,0.447-1,1v19c0,0.553,0.447,1,1,1h12h5h6h5h12
	c0.553,0,1-0.447,1-1V11c0-0.553-0.447-1-1-1H41V3C41,2.447,40.553,2,40,2z M13,12h10v17H13V12z M25,11V4h14v7v18h-3v-5h1v-2h-2h-6
	h-2v2h1v5h-3V11z M30,29v-5h4v5H30z M51,12v17H41V12H51z"/>
<rect x="43" y="14" style="fill:#201F2D;" width="2" height="2"/>
<rect x="47" y="14" style="fill:#201F2D;" width="2" height="2"/>
<rect x="43" y="18" style="fill:#201F2D;" width="2" height="2"/>
<rect x="47" y="18" style="fill:#201F2D;" width="2" height="2"/>
<rect x="15" y="14" style="fill:#201F2D;" width="2" height="2"/>
<rect x="19" y="14" style="fill:#201F2D;" width="2" height="2"/>
<rect x="15" y="18" style="fill:#201F2D;" width="2" height="2"/>
<rect x="19" y="18" style="fill:#201F2D;" width="2" height="2"/>
<path style="fill:#201F2D;" d="M31.28,15.694C31.469,15.89,31.729,16,32,16s0.531-0.11,0.72-0.306l3.432-3.562
	c1.126-1.168,1.126-3.068,0.001-4.236l-0.001-0.001C35.05,6.752,33.117,6.737,32,7.861c-1.118-1.124-3.049-1.11-4.152,0.035
	c-1.125,1.168-1.125,3.068,0,4.235L31.28,15.694z M29.288,9.284C29.465,9.101,29.696,9,29.941,9c0.244,0,0.476,0.101,0.652,0.284
	l0.687,0.712c0.377,0.391,1.062,0.391,1.439,0l0.687-0.712c0.354-0.368,0.953-0.366,1.306,0c0.381,0.396,0.381,1.064-0.001,1.461
	L32,13.559l-2.712-2.814C28.907,10.349,28.907,9.68,29.288,9.284z"/>
</svg>
