<?xml version="1.0" encoding="iso-8859-1"?>
<!-- Generator: Adobe Illustrator 21.0.2, SVG Export Plug-In . SVG Version: 6.00 Build 0)  -->
<svg version="1.1" id="Layer_1_1_" xmlns="http://www.w3.org/2000/svg" xmlns:xlink="http://www.w3.org/1999/xlink" x="0px" y="0px"
	 viewBox="0 0 64 64" style="enable-background:new 0 0 64 64;" xml:space="preserve">
<rect x="3" y="40" style="fill:#512869;" width="9" height="16"/>
<path style="fill:#B53C33;" d="M33,47l20.054-3.646c0.695-0.126,1.388,0.037,1.946,0.414V23c0-6.627-5.373-12-12-12h-1l3-8l-3,1
	l-2-1l-2,1l-2-1l-2,1l-3-1l3,8h-1c-6.627,0-12,5.373-12,12v18h6L33,47z M38,21c5.523,0,10,4.477,10,10c0,5.523-4.477,10-10,10
	s-10-4.477-10-10C28,25.477,32.477,21,38,21z"/>
<circle style="fill:#DDA137;" cx="38" cy="31" r="10"/>
<path style="fill:#DDA137;" d="M14,23c-2.764,0-5-2.236-5-5c0,2.764-2.236,5-5,5c2.764,0,5,2.236,5,5C9,25.236,11.236,23,14,23z"/>
<path style="fill:#DDA137;" d="M56,3c0,2.764-2.236,5-5,5c2.764,0,5,2.236,5,5c0-2.764,2.236-5,5-5C58.236,8,56,5.764,56,3z"/>
<polygon style="fill:#B53C33;" points="16,40 12,40 12,56 16,56 16,55 16,41 "/>
<path style="fill:#DDD8CE;" d="M53.343,43.462L33,47l-6-6h-6h-5v14h4l10.902,5.451c0.685,0.342,1.496,0.316,2.157-0.07
	l21.815-12.725C55.571,47.25,56,46.504,56,45.697C56,44.289,54.73,43.221,53.343,43.462z"/>
<g>
</g>
<path style="fill:#201F2D;" d="M2,40v16c0,0.553,0.447,1,1,1h9h4c0.553,0,1-0.447,1-1h2.764l10.691,5.346
	c0.462,0.231,0.963,0.347,1.462,0.347c0.569,0,1.137-0.149,1.646-0.446L55.379,48.52c1-0.583,1.621-1.664,1.621-2.822
	c0-0.886-0.37-1.715-1-2.329V23c0-7.021-5.599-12.746-12.565-12.978l2.501-6.67c0.135-0.361,0.051-0.768-0.217-1.046
	c-0.267-0.276-0.669-0.378-1.036-0.254L42.077,2.92l-1.63-0.814c-0.281-0.141-0.613-0.141-0.895,0L38,2.882l-1.553-0.776
	c-0.281-0.141-0.613-0.141-0.895,0l-1.63,0.814l-2.606-0.868c-0.366-0.125-0.77-0.023-1.036,0.254
	c-0.268,0.278-0.352,0.685-0.217,1.046l2.501,6.67C25.599,10.254,20,15.979,20,23v17h-3c0-0.553-0.447-1-1-1h-4H3
	C2.447,39,2,39.447,2,40z M33.684,4.948c0.254,0.086,0.526,0.064,0.764-0.054L36,4.118l1.553,0.776c0.281,0.141,0.613,0.141,0.895,0
	L40,4.118l1.553,0.776c0.238,0.119,0.511,0.141,0.764,0.054l1.012-0.337L41.307,10h-6.613l-2.021-5.389L33.684,4.948z M22,23
	c0-6.065,4.935-11,11-11h1h8h1c6.065,0,11,4.935,11,11v19.343c-0.37-0.05-0.749-0.042-1.124,0.027l-19.539,3.553l-5.63-5.63
	C27.52,40.105,27.266,40,27,40h-5V23z M21,42h5.586l5.707,5.707l2.172,2.172C34.805,50.219,35,50.69,35,51.172
	C35,52.18,34.18,53,33.172,53c-0.481,0-0.953-0.195-1.293-0.535l-5.172-5.172l-1.414,1.414l5.172,5.172
	C31.188,54.602,32.149,55,33.172,55C35.282,55,37,53.282,37,51.172c0-1.022-0.398-1.984-1.121-2.707l-0.81-0.81l18.444-3.208
	c0.372-0.067,0.747,0.037,1.034,0.279C54.835,44.968,55,45.322,55,45.697c0,0.449-0.241,0.869-0.629,1.095L32.556,59.519
	c-0.369,0.216-0.821,0.23-1.206,0.038l-10.902-5.451C20.309,54.036,20.155,54,20,54h-3V42H21z M15,55h-2V41h2V55z M4,41h7v14H4V41z"
	/>
<path style="fill:#201F2D;" d="M38,42c6.065,0,11-4.935,11-11s-4.935-11-11-11s-11,4.935-11,11S31.935,42,38,42z M38,22
	c4.963,0,9,4.037,9,9s-4.037,9-9,9s-9-4.037-9-9S33.037,22,38,22z"/>
<path style="fill:#201F2D;" d="M39,35h-2c-0.552,0-1-0.448-1-1h-2c0,1.654,1.346,3,3,3v1h2v-1c1.654,0,3-1.346,3-3v-1
	c0-1.654-1.346-3-3-3h-2c-0.552,0-1-0.448-1-1v-1c0-0.552,0.448-1,1-1h2c0.552,0,1,0.448,1,1h2c0-1.654-1.346-3-3-3v-1h-2v1
	c-1.654,0-3,1.346-3,3v1c0,1.654,1.346,3,3,3h2c0.552,0,1,0.448,1,1v1C40,34.552,39.552,35,39,35z"/>
<path style="fill:#201F2D;" d="M8,28c0,0.553,0.447,1,1,1s1-0.447,1-1c0-2.206,1.794-4,4-4c0.553,0,1-0.447,1-1s-0.447-1-1-1
	c-2.206,0-4-1.794-4-4c0-0.553-0.447-1-1-1s-1,0.447-1,1c0,2.206-1.794,4-4,4c-0.553,0-1,0.447-1,1s0.447,1,1,1
	C6.206,24,8,25.794,8,28z M9,21.313c0.444,0.668,1.019,1.242,1.687,1.687C10.019,23.444,9.444,24.019,9,24.687
	C8.556,24.019,7.981,23.444,7.313,23C7.981,22.556,8.556,21.981,9,21.313z"/>
<path style="fill:#201F2D;" d="M61,7c-2.206,0-4-1.794-4-4c0-0.553-0.447-1-1-1s-1,0.447-1,1c0,2.206-1.794,4-4,4
	c-0.553,0-1,0.447-1,1s0.447,1,1,1c2.206,0,4,1.794,4,4c0,0.553,0.447,1,1,1s1-0.447,1-1c0-2.206,1.794-4,4-4c0.553,0,1-0.447,1-1
	S61.553,7,61,7z M56,9.687C55.556,9.019,54.981,8.444,54.313,8C54.981,7.556,55.556,6.981,56,6.313
	C56.444,6.981,57.019,7.556,57.687,8C57.019,8.444,56.444,9.019,56,9.687z"/>
</svg>
