<?xml version="1.0" encoding="iso-8859-1"?>
<!-- Generator: Adobe Illustrator 21.0.2, SVG Export Plug-In . SVG Version: 6.00 Build 0)  -->
<svg version="1.1" id="Layer_1_1_" xmlns="http://www.w3.org/2000/svg" xmlns:xlink="http://www.w3.org/1999/xlink" x="0px" y="0px"
	 viewBox="0 0 64 64" style="enable-background:new 0 0 64 64;" xml:space="preserve">
<path style="fill:#DDA137;" d="M26.05,20.95L15,32l4,4l-3.088,3.088L3,52l9,9l13-13l15-15l0.05,0.05
	c1.068,1.068,2.398,1.7,3.782,1.933C43.889,34.985,43.943,35,44,35v0.021c0.001,0,0.001,0,0.002,0
	c2.108,0.302,4.326-0.349,5.948-1.971L61,22l-4-4L46.414,28.586c-0.781,0.781-2.047,0.781-2.828,0L35.95,20.95
	c-0.9-0.9-1.985-1.497-3.132-1.805C30.481,18.519,27.884,19.116,26.05,20.95z"/>
<path style="fill:#B53C33;" d="M7.389,32.395c2.27,2.852,5.215,5.162,8.523,6.692L19,36l-4-4l11.05-11.05
	c1.834-1.834,4.43-2.431,6.767-1.805c-1.151-1.503-3.053-2.393-4.927-1.89c-1.229,0.33-2.346,1.009-3.462,1.599
	c-1.783,0.943-3.471,2.052-5.232,3.033C13.937,24.816,8.01,26.537,2,26.881C4.366,27.956,5.771,30.362,7.389,32.395z"/>
<circle style="fill:#DDA137;" cx="44" cy="20" r="6"/>
<path style="fill:#B53C33;" d="M43.833,34.983c-1.219-0.043-2.381-0.532-3.247-1.398L40.05,33.05L40,33L25,48v1l3,3l5,5l9,3l-2-4
	l1-7l3-9v-4.979V35C43.943,35,43.889,34.985,43.833,34.983z"/>
<g>
</g>
<path style="fill:#201F2D;" d="M1.587,27.792c1.655,0.752,2.813,2.301,4.039,3.942c0.325,0.435,0.648,0.867,0.981,1.285
	c2.071,2.602,4.684,4.774,7.616,6.344l-11.93,11.93c-0.391,0.391-0.391,1.023,0,1.414l9,9C11.488,61.902,11.744,62,12,62
	s0.512-0.098,0.707-0.293l11.892-11.892c1.331,0.899,2.382,2.179,3.48,3.544c0.604,0.752,1.229,1.529,1.915,2.248
	c3.074,3.22,7.388,5.185,11.834,5.392C41.844,61,41.859,61,41.875,61c0.359,0,0.692-0.193,0.87-0.507
	c0.186-0.328,0.171-0.733-0.038-1.047c-1.87-2.809-1.99-6.804-0.366-12.214c0.327-1.09,0.699-2.117,1.06-3.11
	c0.94-2.589,1.83-5.052,1.698-8.034c2.016-0.025,4.025-0.796,5.559-2.33l11.05-11.05c0.391-0.391,0.391-1.023,0-1.414l-4-4
	c-0.391-0.391-1.023-0.391-1.414,0l-6.291,6.291C50.631,22.534,51,21.311,51,20c0-3.86-3.141-7-7-7s-7,3.14-7,7
	c0,0.208,0.013,0.413,0.031,0.617l-0.374-0.374c-0.94-0.94-2.06-1.592-3.248-1.965c-1.476-1.747-3.709-2.543-5.778-1.988
	c-1.125,0.302-2.121,0.842-3.085,1.365L23.96,17.97c-1.031,0.545-2.036,1.148-3.008,1.731c-0.743,0.445-1.486,0.891-2.242,1.312
	c-5.119,2.852-10.917,4.535-16.767,4.869c-0.46,0.026-0.842,0.363-0.927,0.815C0.933,27.149,1.168,27.601,1.587,27.792z
	 M41.521,43.44c-0.37,1.019-0.752,2.073-1.096,3.217c-1.508,5.025-1.616,9.024-0.315,12.149c-3.279-0.553-6.366-2.169-8.668-4.58
	c-0.627-0.657-1.198-1.368-1.804-2.12c-1.067-1.327-2.185-2.674-3.61-3.719l14.01-14.01c0.913,0.723,1.951,1.211,3.033,1.478
	C43.268,38.584,42.46,40.853,41.521,43.44z M44,15c2.757,0,5,2.243,5,5s-2.243,5-5,5s-5-2.243-5-5S41.243,15,44,15z M44,27
	c1.31,0,2.534-0.369,3.584-0.998l-1.877,1.876c-0.391,0.391-1.023,0.39-1.414,0l-0.91-0.91C43.587,26.987,43.792,27,44,27z
	 M42.879,29.293c1.169,1.167,3.071,1.169,4.242,0L57,19.414L59.586,22L49.243,32.343c-2.341,2.34-6.148,2.337-8.532-0.047
	C40.523,32.107,40.269,32,40.002,32c0,0-0.001,0-0.002,0c-0.266,0-0.52,0.105-0.707,0.293L12,59.586L8.914,56.5l16.293-16.293
	l-1.414-1.414L7.5,55.086L4.414,52l26.293-26.293l-1.414-1.414L19,34.586L16.414,32l10.343-10.343c2.338-2.339,6.145-2.339,8.486,0
	L42.879,29.293z M19.683,22.76c0.775-0.432,1.537-0.888,2.298-1.345c0.949-0.569,1.931-1.158,2.914-1.678l0.604-0.325
	c0.901-0.489,1.753-0.951,2.65-1.191c0.341-0.092,0.674-0.11,1-0.093c-1.395,0.33-2.72,1.029-3.807,2.114l-11.05,11.05
	c-0.391,0.391-0.391,1.023,0,1.414L17.586,36l-1.873,1.873c-2.914-1.459-5.512-3.551-7.541-6.1c-0.32-0.402-0.631-0.818-0.943-1.236
	c-0.752-1.006-1.52-2.032-2.431-2.908C10.006,26.974,15.103,25.312,19.683,22.76z"/>
<path style="fill:#201F2D;" d="M42.587,21.293C42.209,20.915,42,20.413,42,19.879c0-0.534,0.209-1.036,0.587-1.415l-1.414-1.414
	C40.417,17.806,40,18.811,40,19.879c0,1.068,0.417,2.072,1.173,2.828L42.587,21.293z"/>
<rect x="20.55" y="5.5" transform="matrix(0.7071 -0.7071 0.7071 0.7071 2.8726 19.935)" style="fill:#201F2D;" width="9.899" height="2"/>
<rect x="17.586" y="12" transform="matrix(0.7071 -0.7071 0.7071 0.7071 -3.6274 17.2426)" style="fill:#201F2D;" width="2.828" height="2"/>
<rect x="13.586" y="16" transform="matrix(0.7071 -0.7071 0.7071 0.7071 -7.6274 15.5858)" style="fill:#201F2D;" width="2.828" height="2"/>
<rect x="35.964" y="4.5" transform="matrix(0.7071 -0.7071 0.7071 0.7071 7.6802 29.5416)" style="fill:#201F2D;" width="7.071" height="2"/>
<rect x="32.586" y="10" transform="matrix(0.7071 -0.7071 0.7071 0.7071 2.1802 27.2635)" style="fill:#201F2D;" width="2.828" height="2"/>
<rect x="52.55" y="33.5" transform="matrix(0.7071 -0.7071 0.7071 0.7071 -7.5538 50.7635)" style="fill:#201F2D;" width="9.899" height="2"/>
<rect x="49.586" y="40" transform="matrix(0.7071 -0.7071 0.7071 0.7071 -14.0538 48.0711)" style="fill:#201F2D;" width="2.828" height="2"/>
<rect x="45.586" y="44" transform="matrix(0.7071 -0.7071 0.7071 0.7071 -18.0538 46.4142)" style="fill:#201F2D;" width="2.828" height="2"/>
<rect x="22.586" y="56" transform="matrix(0.7071 -0.7071 0.7071 0.7071 -33.2757 33.6655)" style="fill:#201F2D;" width="2.828" height="2"/>
<rect x="51.55" y="44.5" transform="matrix(0.7071 -0.7071 0.7071 0.7071 -15.6249 53.2782)" style="fill:#201F2D;" width="9.899" height="2"/>
<rect x="48.586" y="51" transform="matrix(0.7071 -0.7071 0.7071 0.7071 -22.1249 50.5858)" style="fill:#201F2D;" width="2.828" height="2"/>
<rect x="44.586" y="55" transform="matrix(0.7071 -0.7071 0.7071 0.7071 -26.1249 48.9289)" style="fill:#201F2D;" width="2.828" height="2"/>
</svg>
