<?xml version="1.0" encoding="iso-8859-1"?>
<!-- Generator: Adobe Illustrator 21.0.2, SVG Export Plug-In . SVG Version: 6.00 Build 0)  -->
<svg version="1.1" id="Layer_1_1_" xmlns="http://www.w3.org/2000/svg" xmlns:xlink="http://www.w3.org/1999/xlink" x="0px" y="0px"
	 viewBox="0 0 64 64" style="enable-background:new 0 0 64 64;" xml:space="preserve">
<path style="fill:#DDD8CE;" d="M36.5,61c1.381,0,2.5-1.119,2.5-2.5c0-1.381-1.119-2.5-2.5-2.5c1.381,0,2.5-1.119,2.5-2.5
	c0-1.381-1.119-2.5-2.5-2.5c1.381,0,2.5-1.119,2.5-2.5c0-1.381-1.119-2.5-2.5-2.5c1.381,0,2.5-1.119,2.5-2.5
	c0-1.381-1.119-2.5-2.5-2.5H32v-5h-7l-3,3h-6v22H36.5z"/>
<path style="fill:#DDA137;" d="M14,9v5c0,9.941,8.059,18,18,18s18-8.059,18-18V9V3H14V9z M25.528,11.297l2.946-0.152l1.054-2.755
	L32,10l2.473-1.61l1.054,2.755l2.946,0.152l-0.764,2.848L40,16l-2.292,1.855l0.764,2.848l-2.946,0.152l-1.054,2.755L32,22
	l-2.473,1.61l-1.054-2.755l-2.946-0.152l0.764-2.848L24,16l2.292-1.855L25.528,11.297z"/>
<rect x="12" y="39" style="fill:#B53C33;" width="4" height="22"/>
<polygon style="fill:#B53C33;" points="26.292,17.855 25.528,20.703 28.474,20.855 29.527,23.61 32,22 34.473,23.61 35.526,20.855 
	38.472,20.703 37.708,17.855 40,16 37.708,14.145 38.472,11.297 35.526,11.145 34.473,8.39 32,10 29.527,8.39 28.474,11.145 
	25.528,11.297 26.292,14.145 24,16 "/>
<path style="fill:#DDA137;" d="M56,38c0,2.764-2.236,5-5,5c2.764,0,5,2.236,5,5c0-2.764,2.236-5,5-5C58.236,43,56,40.764,56,38z"/>
<path style="fill:#DDA137;" d="M8,35c0-2.764,2.236-5,5-5c-2.764,0-5-2.236-5-5c0,2.764-2.236,5-5,5C5.764,30,8,32.236,8,35z"/>
<rect x="2" y="39" style="fill:#512869;" width="10" height="22"/>
<g>
</g>
<path style="fill:#201F2D;" d="M61,2h-5c-0.552,0-1,0.448-1,1c0,2.414-1.721,4.434-4,4.899V3c0-0.552-0.448-1-1-1H14
	c-0.552,0-1,0.448-1,1v4.899C10.721,7.434,9,5.414,9,3c0-0.552-0.448-1-1-1H3C2.448,2,2,2.448,2,3
	c0,11.897,6.473,21.611,14.524,21.982c3.265,4.587,8.507,7.654,14.476,7.967V35h-6c-0.265,0-0.52,0.105-0.707,0.293L21.586,38H16h-4
	H2v2h9v20H2v2h10h4h20.5c1.93,0,3.5-1.57,3.5-3.5c0-0.98-0.407-1.864-1.058-2.5C39.593,55.364,40,54.48,40,53.5
	s-0.407-1.864-1.058-2.5C39.593,50.364,40,49.48,40,48.5s-0.407-1.864-1.058-2.5C39.593,45.364,40,44.48,40,43.5
	c0-1.93-1.57-3.5-3.5-3.5H33v-4v-3.051c5.97-0.313,11.212-3.38,14.476-7.967C55.527,24.611,62,14.897,62,3C62,2.448,61.552,2,61,2z
	 M4.016,4h3.055C7.511,7.06,9.94,9.481,13,9.921V14c0,3.167,0.789,6.149,2.166,8.778C9.075,21.445,4.325,13.617,4.016,4z M13,40h2
	v20h-2V40z M26,40v2h10.5c0.827,0,1.5,0.673,1.5,1.5S37.327,45,36.5,45H33v2h3.5c0.827,0,1.5,0.673,1.5,1.5S37.327,50,36.5,50H33v2
	h3.5c0.827,0,1.5,0.673,1.5,1.5S37.327,55,36.5,55H33v2h3.5c0.827,0,1.5,0.673,1.5,1.5S37.327,60,36.5,60H17V40h5
	c0.265,0,0.52-0.105,0.707-0.293L25.414,37H31v3H26z M32,31c-9.374,0-17-7.626-17-17V4h34v10C49,23.374,41.374,31,32,31z
	 M48.834,22.778C50.211,20.149,51,17.167,51,14V9.921C54.06,9.481,56.489,7.06,56.929,4h3.055
	C59.675,13.617,54.925,21.445,48.834,22.778z"/>
<path style="fill:#201F2D;" d="M41,16c0-0.302-0.136-0.587-0.371-0.777l-1.787-1.446l0.596-2.22
	c0.078-0.292,0.021-0.603-0.157-0.847c-0.178-0.244-0.456-0.395-0.758-0.411l-2.295-0.119l-0.821-2.147
	c-0.108-0.282-0.338-0.5-0.625-0.594c-0.288-0.093-0.601-0.052-0.855,0.113L32,8.807l-1.927-1.255
	c-0.254-0.165-0.567-0.206-0.855-0.113c-0.287,0.093-0.517,0.312-0.625,0.594l-0.821,2.147l-2.295,0.119
	c-0.302,0.016-0.58,0.167-0.758,0.411c-0.177,0.244-0.235,0.556-0.157,0.847l0.596,2.22l-1.787,1.446C23.136,15.413,23,15.698,23,16
	s0.136,0.587,0.371,0.777l1.787,1.446l-0.596,2.22c-0.078,0.292-0.021,0.603,0.157,0.847c0.178,0.244,0.456,0.395,0.758,0.411
	l0.388,0.02l-2.571,2.571l1.414,1.414l3.292-3.292l0.594,1.553c0.108,0.282,0.338,0.5,0.625,0.594
	c0.287,0.092,0.601,0.051,0.855-0.113L32,23.193l1.927,1.255c0.165,0.107,0.354,0.162,0.546,0.162c0.104,0,0.208-0.016,0.309-0.049
	c0.287-0.093,0.517-0.312,0.625-0.594l0.594-1.553l3.292,3.292l1.414-1.414l-2.571-2.571l0.388-0.02
	c0.302-0.016,0.58-0.167,0.758-0.411c0.177-0.244,0.235-0.556,0.157-0.847l-0.596-2.22l1.787-1.446C40.864,16.587,41,16.302,41,16z
	 M36.742,18.114l0.444,1.654l-1.711,0.088c-0.396,0.02-0.741,0.271-0.883,0.641l-0.611,1.599l-1.435-0.935
	C32.38,21.054,32.19,21,32,21s-0.38,0.054-0.546,0.162l-1.435,0.935l-0.611-1.599c-0.142-0.37-0.487-0.621-0.883-0.641l-1.711-0.088
	l0.444-1.654c0.103-0.382-0.03-0.788-0.337-1.037L25.589,16l1.332-1.078c0.307-0.249,0.439-0.655,0.337-1.037l-0.444-1.654
	l1.711-0.088c0.396-0.02,0.741-0.271,0.883-0.641l0.611-1.599l1.435,0.935c0.332,0.216,0.76,0.216,1.092,0l1.435-0.935l0.611,1.599
	c0.142,0.37,0.487,0.621,0.883,0.641l1.711,0.088l-0.444,1.654c-0.103,0.382,0.03,0.788,0.337,1.037L38.411,16l-1.332,1.078
	C36.772,17.326,36.64,17.732,36.742,18.114z"/>
<path style="fill:#201F2D;" d="M61,42c-2.206,0-4-1.794-4-4c0-0.552-0.448-1-1-1s-1,0.448-1,1c0,2.206-1.794,4-4,4
	c-0.552,0-1,0.448-1,1s0.448,1,1,1c2.206,0,4,1.794,4,4c0,0.552,0.448,1,1,1s1-0.448,1-1c0-2.206,1.794-4,4-4c0.552,0,1-0.448,1-1
	S61.552,42,61,42z M56,44.687c-0.444-0.668-1.019-1.242-1.687-1.687c0.668-0.444,1.242-1.019,1.687-1.687
	c0.444,0.668,1.019,1.242,1.687,1.687C57.019,43.444,56.444,44.019,56,44.687z"/>
<path style="fill:#201F2D;" d="M7,35c0,0.552,0.448,1,1,1s1-0.448,1-1c0-2.206,1.794-4,4-4c0.552,0,1-0.448,1-1s-0.448-1-1-1
	c-2.206,0-4-1.794-4-4c0-0.552-0.448-1-1-1s-1,0.448-1,1c0,2.206-1.794,4-4,4c-0.552,0-1,0.448-1,1s0.448,1,1,1
	C5.206,31,7,32.794,7,35z M8,28.313C8.444,28.981,9.019,29.556,9.687,30C9.019,30.444,8.444,31.019,8,31.687
	C7.556,31.019,6.981,30.444,6.313,30C6.981,29.556,7.556,28.981,8,28.313z"/>
</svg>
