<?xml version="1.0" encoding="iso-8859-1"?>
<!-- Generator: Adobe Illustrator 21.0.2, SVG Export Plug-In . SVG Version: 6.00 Build 0)  -->
<svg version="1.1" id="Layer_1_1_" xmlns="http://www.w3.org/2000/svg" xmlns:xlink="http://www.w3.org/1999/xlink" x="0px" y="0px"
	 viewBox="0 0 64 64" style="enable-background:new 0 0 64 64;" xml:space="preserve">
<path style="fill:#DDA137;" d="M32,3L3,18l29,15l29-15L32,3z M11.707,18L32,7.503l9.38,4.852L21.087,22.852L11.707,18z
	 M37.78,25.507L32,28.497l-6.913-3.576L45.38,14.424L52.293,18l-8.613,4.455L37.78,25.507z"/>
<polygon style="fill:#DDD8CE;" points="45.38,14.424 25.087,24.921 32,28.497 37.78,25.507 43.68,22.455 52.293,18 "/>
<polygon style="fill:#DDD8CE;" points="32,7.503 11.707,18 21.087,22.852 41.38,12.355 "/>
<polygon style="fill:#512869;" points="3,32 32,47 61,32 47.467,25 32,33 16.533,25 "/>
<polygon style="fill:#B53C33;" points="3,46 32,61 61,46 47.467,39 32,47 16.533,39 "/>
<g>
</g>
<path style="fill:#201F2D;" d="M62,18c0-0.374-0.209-0.716-0.541-0.888l-29-15c-0.287-0.149-0.631-0.149-0.918,0l-29,15
	C2.209,17.284,2,17.626,2,18s0.209,0.716,0.541,0.888L14.357,25L2.541,31.112C2.209,31.284,2,31.626,2,32s0.209,0.716,0.541,0.888
	L14.357,39L2.541,45.112C2.209,45.284,2,45.626,2,46s0.209,0.716,0.541,0.888l29,15C31.685,61.963,31.843,62,32,62
	s0.315-0.037,0.459-0.112l29-15C61.791,46.716,62,46.374,62,46s-0.209-0.716-0.541-0.888L49.643,39l11.816-6.112
	C61.791,32.716,62,32.374,62,32s-0.209-0.716-0.541-0.888L49.643,25l11.816-6.112C61.791,18.716,62,18.374,62,18z M47.467,40.126
	L58.823,46L32,59.874L5.177,46l11.356-5.874l15.008,7.762c0.287,0.149,0.631,0.149,0.918,0L47.467,40.126z M47.467,26.126L58.823,32
	L32,45.874L5.177,32l11.356-5.874l15.008,7.762c0.287,0.149,0.631,0.149,0.918,0L47.467,26.126z M32,31.874L5.177,18L32,4.126
	L58.823,18L32,31.874z"/>
<path style="fill:#201F2D;" d="M24.087,24.921c0,0.374,0.209,0.716,0.541,0.888l6.913,3.576c0.144,0.075,0.302,0.112,0.459,0.112
	s0.315-0.037,0.459-0.112l20.293-10.497c0.332-0.172,0.541-0.514,0.541-0.888s-0.209-0.716-0.541-0.888l-6.913-3.576
	c-0.287-0.149-0.631-0.149-0.918,0L24.628,24.033C24.296,24.205,24.087,24.547,24.087,24.921z M37.78,24.381l-4.736-2.45
	l3.724-1.926l4.736,2.45L37.78,24.381z M45.38,15.55L50.116,18l-6.437,3.329l-4.736-2.45L45.38,15.55z M30.867,23.057l4.736,2.45
	L32,27.371l-4.736-2.45L30.867,23.057z"/>
<path style="fill:#201F2D;" d="M31.541,6.615L11.248,17.112c-0.332,0.172-0.541,0.514-0.541,0.888s0.209,0.716,0.541,0.888
	l9.38,4.852c0.144,0.075,0.302,0.112,0.459,0.112s0.315-0.037,0.459-0.112l20.293-10.496c0.332-0.172,0.541-0.514,0.541-0.888
	s-0.209-0.716-0.541-0.888l-9.38-4.852C32.172,6.466,31.828,6.466,31.541,6.615z M39.203,12.355l-18.116,9.37L13.884,18L32,8.629
	L39.203,12.355z"/>
</svg>
