<?xml version="1.0" encoding="iso-8859-1"?>
<!-- Generator: Adobe Illustrator 21.1.0, SVG Export Plug-In . SVG Version: 6.00 Build 0)  -->
<svg version="1.1" id="Layer_1_1_" xmlns="http://www.w3.org/2000/svg" xmlns:xlink="http://www.w3.org/1999/xlink" x="0px" y="0px"
	 viewBox="0 0 64 64" style="enable-background:new 0 0 64 64;" xml:space="preserve">
<path style="fill:#2BB0AF;" d="M18,34H3.069C3.031,33.904,3,33.929,3,33.961V61h19V37.179C22,35.37,20.209,33.904,18,34z"/>
<path style="fill:#EFC95B;" d="M33,33c0-5.5-4.5-10-10-10h-5h-5C7.5,23,3,27.5,3,33v0.961C3,33.929,3.031,33.904,3.069,34H18
	c2.209-0.096,4,1.37,4,3.179V61h4V45v-3c0,1.094,0.298,2.117,0.809,3H27l3.849,2.887C31.222,47.96,31.606,48,32,48h12.5
	c1.933,0,3.5-1.567,3.5-3.5S46.433,41,44.5,41H33V33z"/>
<path style="fill:#E7E7E7;" d="M57,5H18c4.97,0,9,4.033,9,9c0,2.294-0.867,4.382-2.281,5.972C23.07,21.825,20.675,23,18,23h5
	c5.5,0,10,4.5,10,10v8h11.5H57c2.209,0,4-1.791,4-4V9C61,6.791,59.209,5,57,5z"/>
<path style="fill:#EFC95B;" d="M24.719,19.972C26.133,18.382,27,16.294,27,14c0-4.967-4.03-9-9-9s-9,4.033-9,9c0,4.967,4.03,9,9,9
	C20.675,23,23.07,21.825,24.719,19.972z"/>
<polygon style="fill:#E7E7E7;" points="31,48 30.849,47.887 27,45 26.809,45 26,45 26,61 26,62 59,62 59,54 61,54 61,48 44.5,48 
	32,48 "/>
<g>
</g>
<rect x="37" y="36" style="fill:#383838;" width="2" height="2"/>
<rect x="36" y="25" style="fill:#383838;" width="5" height="2"/>
<rect x="44" y="25" style="fill:#383838;" width="5" height="2"/>
<rect x="52" y="25" style="fill:#383838;" width="5" height="2"/>
<path style="fill:#383838;" d="M50.707,8.293l-1.414,1.414L54.586,15l-5.293,5.293l1.414,1.414l6-6c0.391-0.391,0.391-1.023,0-1.414
	L50.707,8.293z"/>
<path style="fill:#383838;" d="M38.707,20.293L33.414,15l5.293-5.293l-1.414-1.414l-6,6c-0.391,0.391-0.391,1.023,0,1.414l6,6
	L38.707,20.293z"/>
<rect x="37.738" y="14.496" transform="matrix(0.4791 -0.8778 0.8778 0.4791 9.3172 46.6928)" style="fill:#383838;" width="12.523" height="2"/>
<path style="fill:#383838;" d="M57,4H18C12.486,4,8,8.486,8,14c0,3.301,1.614,6.224,4.087,8.046C6.448,22.513,2,27.243,2,33v0.96V61
	v0.096h0.019C2.07,61.601,2.482,62,3,62h23c0.552,0,1-0.448,1-1V46.895C28.271,48.193,30.043,49,32,49h12.5H60v4h-4v2h2v7h2v-7h1
	c0.552,0,1-0.448,1-1v-6c0-0.552-0.448-1-1-1H48.238C48.718,46.284,49,45.425,49,44.5s-0.282-1.784-0.762-2.5H57
	c2.757,0,5-2.243,5-5V9C62,6.243,59.757,4,57,4z M10,14c0-4.411,3.589-8,8-8s8,3.589,8,8c0,1.859-0.643,3.568-1.711,4.928
	C22.423,18.591,21,16.962,21,15h-2c0,2.468,1.498,4.59,3.631,5.511C21.323,21.445,19.727,22,18,22C13.589,22,10,18.411,10,14z M4,35
	l14.043-0.001c0.912-0.038,1.753,0.254,2.326,0.802C20.657,36.077,21,36.54,21,37.179V60H4V35z M47,44.5c0,1.378-1.122,2.5-2.5,2.5
	H32c-2.757,0-5-2.243-5-5v-9h-2v27h-2V37.179c0-1.049-0.443-2.052-1.248-2.822C20.787,33.432,19.398,32.941,18,33H4
	c0-4.962,4.038-9,9-9h10c4.962,0,9,4.038,9,9v8c0,0.552,0.448,1,1,1h11.5C45.878,42,47,43.122,47,44.5z M60,37c0,1.654-1.346,3-3,3
	H44.5H34v-6h26V37z M60,32H34v1c0-5.757-4.448-10.487-10.087-10.954C26.386,20.224,28,17.301,28,14c0-3.273-1.588-6.175-4.025-8H57
	c1.654,0,3,1.346,3,3V32z"/>
</svg>
