<?xml version="1.0" encoding="UTF-8"?>
<svg width="140px" height="140px" viewBox="0 0 140 140" version="1.1" xmlns="http://www.w3.org/2000/svg" xmlns:xlink="http://www.w3.org/1999/xlink">
    <!-- Generator: Sketch 51.3 (57544) - http://www.bohemiancoding.com/sketch -->
    <title>Group</title>
    <desc>Created with Sketch.</desc>
    <defs></defs>
    <g id="Page-1" stroke="none" stroke-width="1" fill="none" fill-rule="evenodd">
        <g id="Group">
            <circle id="Oval-2-Copy-3" fill="#B9C3F8" fill-rule="nonzero" cx="70" cy="70" r="70"></circle>
            <path d="M33.6,37.976 C36.798,37.976 39.294,40.446 39.294,43.644 C39.294,46.842 36.798,49.312 33.548,49.312 C30.35,49.312 27.88,46.79 27.88,43.54 C27.88,40.472 30.454,37.976 33.6,37.976 Z M33.548,39.666 C31.338,39.666 29.778,41.356 29.778,43.722 C29.778,45.932 31.416,47.622 33.574,47.622 C35.784,47.622 37.396,45.958 37.396,43.644 C37.396,41.304 35.81,39.666 33.548,39.666 Z M43.974,38.886 L43.974,39.51 C44.91,38.366 45.742,37.95 47.094,37.95 C48.394,37.95 49.59,38.522 50.188,39.432 C50.604,40.108 50.786,40.914 50.786,42.318 L50.786,48.324 C50.786,48.922 50.708,49 50.11,49 L49.616,49 C49.018,49 48.94,48.922 48.94,48.324 L48.94,42.63 C48.94,41.486 48.862,40.966 48.576,40.524 C48.238,39.952 47.536,39.614 46.652,39.614 C44.78,39.614 43.974,40.81 43.974,43.618 L43.974,48.324 C43.974,48.922 43.896,49 43.298,49 L42.804,49 C42.206,49 42.128,48.922 42.128,48.324 L42.128,38.886 C42.128,38.288 42.206,38.21 42.804,38.21 L43.298,38.21 C43.896,38.21 43.974,38.288 43.974,38.886 Z M63.318,43.982 L55.57,43.982 C55.674,46.192 57.052,47.622 59.002,47.622 C60.25,47.622 61.342,46.998 62.018,45.854 C62.2,45.568 62.278,45.516 62.486,45.516 C62.538,45.516 62.694,45.568 62.902,45.698 L63.292,45.906 C63.656,46.114 63.734,46.192 63.734,46.4 C63.734,46.504 63.682,46.608 63.578,46.764 C62.486,48.454 60.9,49.312 58.924,49.312 C55.804,49.312 53.62,46.998 53.62,43.67 C53.62,40.29 55.752,37.976 58.846,37.976 C61.888,37.976 63.994,40.238 63.994,43.514 C63.994,43.878 63.838,43.982 63.318,43.982 Z M55.7,42.422 L62.044,42.422 C61.706,40.732 60.458,39.64 58.872,39.64 C57.312,39.64 55.96,40.81 55.7,42.422 Z M66.88,42.63 L70.234,42.63 C70.832,42.63 70.91,42.708 70.91,43.306 L70.91,43.618 C70.91,44.216 70.832,44.294 70.234,44.294 L66.88,44.294 C66.282,44.294 66.204,44.216 66.204,43.618 L66.204,43.306 C66.204,42.708 66.282,42.63 66.88,42.63 Z M75.486,39.926 L75.486,48.324 C75.486,48.922 75.408,49 74.81,49 L74.316,49 C73.718,49 73.64,48.922 73.64,48.324 L73.64,39.926 L73.198,39.926 C72.6,39.926 72.522,39.848 72.522,39.25 L72.522,38.886 C72.522,38.288 72.6,38.21 73.198,38.21 L73.64,38.21 L73.64,34.986 C73.64,34.388 73.718,34.31 74.316,34.31 L74.81,34.31 C75.408,34.31 75.486,34.388 75.486,34.986 L75.486,38.21 L76.734,38.21 C77.332,38.21 77.41,38.288 77.41,38.886 L77.41,39.25 C77.41,39.848 77.332,39.926 76.734,39.926 L75.486,39.926 Z M81.206,38.886 L81.206,48.324 C81.206,48.922 81.128,49 80.53,49 L80.036,49 C79.438,49 79.36,48.922 79.36,48.324 L79.36,38.886 C79.36,38.288 79.438,38.21 80.036,38.21 L80.53,38.21 C81.128,38.21 81.206,38.288 81.206,38.886 Z M80.296,32.802 C81.024,32.802 81.622,33.4 81.622,34.128 C81.622,34.856 81.024,35.454 80.296,35.454 C79.568,35.454 78.97,34.856 78.97,34.102 C78.97,33.4 79.568,32.802 80.296,32.802 Z M86.614,38.886 L86.614,39.38 C87.368,38.366 88.148,37.95 89.292,37.95 C90.592,37.95 91.632,38.574 92.256,39.692 C92.906,38.548 93.998,37.95 95.402,37.95 C96.65,37.95 97.742,38.496 98.314,39.406 C98.73,40.082 98.912,40.862 98.912,42.162 L98.912,48.324 C98.912,48.922 98.834,49 98.236,49 L97.742,49 C97.144,49 97.066,48.922 97.066,48.324 L97.066,42.448 C97.066,40.472 96.494,39.64 95.116,39.64 C93.556,39.64 92.802,40.758 92.802,43.02 L92.802,48.324 C92.802,48.922 92.724,49 92.126,49 L91.632,49 C91.034,49 90.956,48.922 90.956,48.324 L90.956,42.604 C90.956,40.628 90.28,39.64 88.954,39.64 C88.148,39.64 87.368,40.108 87.004,40.81 C86.744,41.33 86.614,42.084 86.614,43.124 L86.614,48.324 C86.614,48.922 86.536,49 85.938,49 L85.444,49 C84.846,49 84.768,48.922 84.768,48.324 L84.768,38.886 C84.768,38.288 84.846,38.21 85.444,38.21 L85.938,38.21 C86.536,38.21 86.614,38.288 86.614,38.886 Z M111.444,43.982 L103.696,43.982 C103.8,46.192 105.178,47.622 107.128,47.622 C108.376,47.622 109.468,46.998 110.144,45.854 C110.326,45.568 110.404,45.516 110.612,45.516 C110.664,45.516 110.82,45.568 111.028,45.698 L111.418,45.906 C111.782,46.114 111.86,46.192 111.86,46.4 C111.86,46.504 111.808,46.608 111.704,46.764 C110.612,48.454 109.026,49.312 107.05,49.312 C103.93,49.312 101.746,46.998 101.746,43.67 C101.746,40.29 103.878,37.976 106.972,37.976 C110.014,37.976 112.12,40.238 112.12,43.514 C112.12,43.878 111.964,43.982 111.444,43.982 Z M103.826,42.422 L110.17,42.422 C109.832,40.732 108.584,39.64 106.998,39.64 C105.438,39.64 104.086,40.81 103.826,42.422 Z M30.064,64.886 L30.038,65.744 C31.13,64.496 32.274,63.95 33.782,63.95 C36.798,63.95 38.982,66.368 38.982,69.67 C38.982,72.92 36.798,75.312 33.834,75.312 C32.3,75.312 31.13,74.766 30.064,73.492 L30.064,80.408 C30.064,81.006 29.986,81.084 29.388,81.084 L28.894,81.084 C28.296,81.084 28.218,81.006 28.218,80.408 L28.218,64.886 C28.218,64.288 28.296,64.21 28.894,64.21 L29.388,64.21 C29.986,64.21 30.064,64.288 30.064,64.886 Z M33.522,65.64 C31.442,65.64 29.934,67.33 29.934,69.67 C29.934,71.984 31.442,73.622 33.574,73.622 C35.602,73.622 37.084,71.932 37.084,69.592 C37.084,67.33 35.55,65.64 33.522,65.64 Z M50.058,74.324 L50.058,73.492 C49.018,74.74 47.874,75.312 46.34,75.312 C43.324,75.312 41.14,72.894 41.14,69.566 C41.14,66.316 43.324,63.95 46.288,63.95 C47.848,63.95 48.992,64.496 50.058,65.744 L50.058,64.886 C50.058,64.288 50.136,64.21 50.76,64.21 L51.254,64.21 C51.852,64.21 51.93,64.288 51.93,64.886 L51.93,74.324 C51.93,74.922 51.852,75 51.254,75 L50.76,75 C50.136,75 50.058,74.922 50.058,74.324 Z M46.574,65.64 C44.52,65.64 43.038,67.33 43.038,69.67 C43.038,71.906 44.572,73.622 46.6,73.622 C48.68,73.622 50.188,71.932 50.188,69.592 C50.188,67.252 48.706,65.64 46.574,65.64 Z M58.82,73.986 L54.27,65.042 C54.166,64.834 54.114,64.652 54.114,64.574 C54.114,64.314 54.322,64.21 54.79,64.21 L55.466,64.21 C56.012,64.21 56.012,64.21 56.246,64.678 L59.808,71.932 L63.084,64.704 C63.318,64.21 63.318,64.21 63.838,64.21 L64.488,64.21 C64.956,64.21 65.164,64.34 65.164,64.574 C65.164,64.678 65.112,64.834 65.008,65.042 L57.65,80.616 C57.416,81.084 57.416,81.084 56.896,81.084 L56.246,81.084 C55.778,81.084 55.57,80.98 55.57,80.72 C55.57,80.642 55.622,80.46 55.726,80.252 L58.82,73.986 Z M69.22,64.886 L69.22,65.38 C69.974,64.366 70.754,63.95 71.898,63.95 C73.198,63.95 74.238,64.574 74.862,65.692 C75.512,64.548 76.604,63.95 78.008,63.95 C79.256,63.95 80.348,64.496 80.92,65.406 C81.336,66.082 81.518,66.862 81.518,68.162 L81.518,74.324 C81.518,74.922 81.44,75 80.842,75 L80.348,75 C79.75,75 79.672,74.922 79.672,74.324 L79.672,68.448 C79.672,66.472 79.1,65.64 77.722,65.64 C76.162,65.64 75.408,66.758 75.408,69.02 L75.408,74.324 C75.408,74.922 75.33,75 74.732,75 L74.238,75 C73.64,75 73.562,74.922 73.562,74.324 L73.562,68.604 C73.562,66.628 72.886,65.64 71.56,65.64 C70.754,65.64 69.974,66.108 69.61,66.81 C69.35,67.33 69.22,68.084 69.22,69.124 L69.22,74.324 C69.22,74.922 69.142,75 68.544,75 L68.05,75 C67.452,75 67.374,74.922 67.374,74.324 L67.374,64.886 C67.374,64.288 67.452,64.21 68.05,64.21 L68.544,64.21 C69.142,64.21 69.22,64.288 69.22,64.886 Z M94.05,69.982 L86.302,69.982 C86.406,72.192 87.784,73.622 89.734,73.622 C90.982,73.622 92.074,72.998 92.75,71.854 C92.932,71.568 93.01,71.516 93.218,71.516 C93.27,71.516 93.426,71.568 93.634,71.698 L94.024,71.906 C94.388,72.114 94.466,72.192 94.466,72.4 C94.466,72.504 94.414,72.608 94.31,72.764 C93.218,74.454 91.632,75.312 89.656,75.312 C86.536,75.312 84.352,72.998 84.352,69.67 C84.352,66.29 86.484,63.976 89.578,63.976 C92.62,63.976 94.726,66.238 94.726,69.514 C94.726,69.878 94.57,69.982 94.05,69.982 Z M86.432,68.422 L92.776,68.422 C92.438,66.732 91.19,65.64 89.604,65.64 C88.044,65.64 86.692,66.81 86.432,68.422 Z M99.406,64.886 L99.406,65.51 C100.342,64.366 101.174,63.95 102.526,63.95 C103.826,63.95 105.022,64.522 105.62,65.432 C106.036,66.108 106.218,66.914 106.218,68.318 L106.218,74.324 C106.218,74.922 106.14,75 105.542,75 L105.048,75 C104.45,75 104.372,74.922 104.372,74.324 L104.372,68.63 C104.372,67.486 104.294,66.966 104.008,66.524 C103.67,65.952 102.968,65.614 102.084,65.614 C100.212,65.614 99.406,66.81 99.406,69.618 L99.406,74.324 C99.406,74.922 99.328,75 98.73,75 L98.236,75 C97.638,75 97.56,74.922 97.56,74.324 L97.56,64.886 C97.56,64.288 97.638,64.21 98.236,64.21 L98.73,64.21 C99.328,64.21 99.406,64.288 99.406,64.886 Z M111.6,65.926 L111.6,74.324 C111.6,74.922 111.522,75 110.924,75 L110.43,75 C109.832,75 109.754,74.922 109.754,74.324 L109.754,65.926 L109.312,65.926 C108.714,65.926 108.636,65.848 108.636,65.25 L108.636,64.886 C108.636,64.288 108.714,64.21 109.312,64.21 L109.754,64.21 L109.754,60.986 C109.754,60.388 109.832,60.31 110.43,60.31 L110.924,60.31 C111.522,60.31 111.6,60.388 111.6,60.986 L111.6,64.21 L112.848,64.21 C113.446,64.21 113.524,64.288 113.524,64.886 L113.524,65.25 C113.524,65.848 113.446,65.926 112.848,65.926 L111.6,65.926 Z M44.26,92.956 L44.26,94.022 C44.26,94.724 44.182,94.932 43.896,94.932 C43.818,94.932 43.714,94.906 43.584,94.854 C42.882,94.516 42.414,94.412 41.764,94.412 C39.84,94.412 38.462,95.738 38.462,97.584 C38.462,99.404 39.84,100.73 41.712,100.73 C42.336,100.73 43.038,100.574 43.558,100.34 C43.688,100.262 43.818,100.236 43.896,100.236 C44.156,100.236 44.26,100.47 44.26,101.12 L44.26,102.16 C44.26,102.732 44.234,102.784 44.078,102.94 C43.688,103.252 42.336,103.564 41.374,103.564 C37.89,103.564 35.212,100.99 35.212,97.636 C35.212,94.204 37.89,91.578 41.4,91.578 C42.44,91.578 43.714,91.89 44.078,92.202 C44.234,92.332 44.26,92.41 44.26,92.956 Z M49.798,92.826 L49.798,93.658 C50.604,92.228 51.644,91.578 53.1,91.578 C53.906,91.578 54.374,91.812 54.374,92.228 C54.374,92.306 54.348,92.566 54.322,92.67 L54.166,93.788 C54.062,94.412 53.932,94.594 53.62,94.594 C53.542,94.594 53.464,94.594 53.386,94.568 C52.97,94.464 52.58,94.412 52.346,94.412 C51.67,94.412 50.968,94.724 50.5,95.244 C50.006,95.79 49.798,96.518 49.798,97.792 L49.798,102.316 C49.798,103.122 49.72,103.2 48.914,103.2 L47.536,103.2 C46.73,103.2 46.652,103.122 46.652,102.316 L46.652,92.826 C46.652,92.02 46.73,91.942 47.536,91.942 L48.914,91.942 C49.72,91.942 49.798,92.02 49.798,92.826 Z M60.484,101.484 L55.778,93.06 C55.57,92.67 55.544,92.592 55.544,92.436 C55.544,92.072 55.778,91.942 56.428,91.942 L58.144,91.942 C58.846,91.942 58.846,91.942 59.158,92.54 L62.2,98.338 L65.112,92.566 C65.424,91.942 65.424,91.942 66.126,91.942 L67.764,91.942 C68.44,91.942 68.674,92.072 68.674,92.436 C68.674,92.592 68.648,92.644 68.44,93.034 L60.25,108.608 C59.912,109.206 59.912,109.206 59.236,109.206 L57.624,109.206 C56.948,109.206 56.714,109.076 56.714,108.712 C56.714,108.556 56.74,108.504 56.948,108.114 L60.484,101.484 Z M73.692,92.826 L73.692,93.398 C74.706,92.124 75.824,91.578 77.384,91.578 C80.556,91.578 82.922,94.152 82.922,97.584 C82.922,100.964 80.53,103.564 77.436,103.564 C75.928,103.564 74.81,103.018 73.692,101.744 L73.692,108.322 C73.692,109.128 73.614,109.206 72.808,109.206 L71.43,109.206 C70.624,109.206 70.546,109.128 70.546,108.322 L70.546,92.826 C70.546,92.02 70.624,91.942 71.43,91.942 L72.808,91.942 C73.614,91.942 73.692,92.02 73.692,92.826 Z M76.526,94.412 C74.758,94.412 73.354,95.816 73.354,97.558 C73.354,99.3 74.784,100.73 76.526,100.73 C78.268,100.73 79.672,99.326 79.672,97.532 C79.672,95.816 78.242,94.412 76.526,94.412 Z M88.694,94.672 L88.694,102.316 C88.694,103.122 88.616,103.2 87.81,103.2 L86.432,103.2 C85.626,103.2 85.548,103.122 85.548,102.316 L85.548,94.672 L85.184,94.672 C84.378,94.672 84.3,94.594 84.3,93.762 L84.3,92.852 C84.3,92.02 84.378,91.942 85.184,91.942 L85.548,91.942 L85.548,89.004 C85.548,88.172 85.626,88.094 86.432,88.094 L87.81,88.094 C88.616,88.094 88.694,88.172 88.694,89.004 L88.694,91.942 L90.02,91.942 C90.852,91.942 90.93,92.02 90.93,92.852 L90.93,93.762 C90.93,94.594 90.852,94.672 90.02,94.672 L88.694,94.672 Z M98.392,91.578 C102.162,91.578 104.788,94.022 104.788,97.558 C104.788,101.12 102.136,103.564 98.288,103.564 C94.518,103.564 91.918,101.094 91.918,97.48 C91.918,94.048 94.622,91.578 98.392,91.578 Z M98.366,94.412 C96.572,94.412 95.168,95.816 95.168,97.61 C95.168,99.3 96.624,100.73 98.366,100.73 C100.108,100.73 101.538,99.326 101.538,97.584 C101.538,95.842 100.108,94.412 98.366,94.412 Z" id="one-time-payment-cry" fill="#4A4A4A"></path>
        </g>
    </g>
</svg>