<?xml version="1.0" encoding="UTF-8"?>
<svg width="140px" height="140px" viewBox="0 0 140 140" version="1.1" xmlns="http://www.w3.org/2000/svg" xmlns:xlink="http://www.w3.org/1999/xlink">
    <!-- Generator: Sketch 51.3 (57544) - http://www.bohemiancoding.com/sketch -->
    <title>Group 5</title>
    <desc>Created with Sketch.</desc>
    <defs></defs>
    <g id="Page-1" stroke="none" stroke-width="1" fill="none" fill-rule="evenodd">
        <g id="Group-5">
            <g id="Group-Copy" fill="#B9C3F8" fill-rule="nonzero">
                <circle id="Oval-2-Copy-3" cx="70" cy="70" r="70"></circle>
            </g>
            <path d="M46.138,24.484 L46.138,25.212 C46.138,25.654 46.008,25.836 45.722,25.836 C45.644,25.836 45.54,25.784 45.41,25.68 C44.422,24.926 43.72,24.666 42.758,24.666 C40.574,24.666 38.936,26.382 38.936,28.644 C38.936,30.932 40.574,32.622 42.732,32.622 C43.746,32.622 44.422,32.362 45.488,31.504 C45.618,31.426 45.722,31.374 45.8,31.374 C46.086,31.374 46.216,31.582 46.216,31.972 L46.216,32.7 C46.216,33.09 46.19,33.168 46.06,33.272 C45.254,33.896 43.902,34.312 42.784,34.312 C39.534,34.312 37.038,31.842 37.038,28.67 C37.038,25.446 39.534,22.976 42.784,22.976 C43.954,22.976 45.332,23.392 45.982,23.912 C46.112,24.016 46.138,24.094 46.138,24.484 Z M50.506,23.886 L50.506,29.502 C50.506,30.516 50.61,31.062 50.844,31.53 C51.208,32.206 52.014,32.622 52.95,32.622 C53.86,32.622 54.666,32.206 55.03,31.53 C55.264,31.062 55.368,30.516 55.368,29.502 L55.368,23.886 C55.368,23.288 55.446,23.21 56.044,23.21 L56.538,23.21 C57.136,23.21 57.214,23.288 57.214,23.886 L57.214,29.71 C57.214,31.296 56.954,32.154 56.226,32.96 C55.446,33.844 54.276,34.312 52.95,34.312 C51.598,34.312 50.428,33.844 49.648,32.96 C48.92,32.154 48.66,31.296 48.66,29.71 L48.66,23.886 C48.66,23.288 48.738,23.21 49.336,23.21 L49.83,23.21 C50.428,23.21 50.506,23.288 50.506,23.886 Z M66.08,25.238 L65.742,25.42 C65.482,25.55 65.352,25.602 65.3,25.602 C65.17,25.602 65.118,25.55 64.962,25.368 C64.65,24.952 64.104,24.666 63.636,24.666 C62.934,24.666 62.336,25.212 62.336,25.862 C62.336,26.486 62.7,26.824 64.078,27.396 C65.352,27.916 65.664,28.072 66.158,28.436 C66.938,29.008 67.354,29.814 67.354,30.802 C67.354,32.804 65.768,34.312 63.662,34.312 C62.284,34.312 61.036,33.636 60.334,32.518 C60.126,32.18 59.996,31.92 59.996,31.764 C59.996,31.556 60.1,31.478 60.49,31.296 L60.906,31.14 C61.114,31.036 61.27,30.984 61.348,30.984 C61.504,30.984 61.582,31.062 61.79,31.426 C62.18,32.18 62.882,32.622 63.662,32.622 C64.702,32.622 65.456,31.894 65.456,30.932 C65.456,30.1 65.092,29.71 63.688,29.138 C61.192,28.046 60.568,27.422 60.568,25.992 C60.568,24.276 61.92,22.976 63.714,22.976 C64.832,22.976 65.95,23.6 66.418,24.458 C66.496,24.588 66.522,24.666 66.522,24.77 C66.522,24.952 66.444,25.056 66.08,25.238 Z M71.852,24.926 L71.852,33.324 C71.852,33.922 71.774,34 71.176,34 L70.682,34 C70.084,34 70.006,33.922 70.006,33.324 L70.006,24.926 L69.564,24.926 C68.966,24.926 68.888,24.848 68.888,24.25 L68.888,23.886 C68.888,23.288 68.966,23.21 69.564,23.21 L70.006,23.21 L70.006,19.986 C70.006,19.388 70.084,19.31 70.682,19.31 L71.176,19.31 C71.774,19.31 71.852,19.388 71.852,19.986 L71.852,23.21 L73.1,23.21 C73.698,23.21 73.776,23.288 73.776,23.886 L73.776,24.25 C73.776,24.848 73.698,24.926 73.1,24.926 L71.852,24.926 Z M80.588,22.976 C83.786,22.976 86.282,25.446 86.282,28.644 C86.282,31.842 83.786,34.312 80.536,34.312 C77.338,34.312 74.868,31.79 74.868,28.54 C74.868,25.472 77.442,22.976 80.588,22.976 Z M80.536,24.666 C78.326,24.666 76.766,26.356 76.766,28.722 C76.766,30.932 78.404,32.622 80.562,32.622 C82.772,32.622 84.384,30.958 84.384,28.644 C84.384,26.304 82.798,24.666 80.536,24.666 Z M90.962,23.886 L90.962,24.38 C91.716,23.366 92.496,22.95 93.64,22.95 C94.94,22.95 95.98,23.574 96.604,24.692 C97.254,23.548 98.346,22.95 99.75,22.95 C100.998,22.95 102.09,23.496 102.662,24.406 C103.078,25.082 103.26,25.862 103.26,27.162 L103.26,33.324 C103.26,33.922 103.182,34 102.584,34 L102.09,34 C101.492,34 101.414,33.922 101.414,33.324 L101.414,27.448 C101.414,25.472 100.842,24.64 99.464,24.64 C97.904,24.64 97.15,25.758 97.15,28.02 L97.15,33.324 C97.15,33.922 97.072,34 96.474,34 L95.98,34 C95.382,34 95.304,33.922 95.304,33.324 L95.304,27.604 C95.304,25.628 94.628,24.64 93.302,24.64 C92.496,24.64 91.716,25.108 91.352,25.81 C91.092,26.33 90.962,27.084 90.962,28.124 L90.962,33.324 C90.962,33.922 90.884,34 90.286,34 L89.792,34 C89.194,34 89.116,33.922 89.116,33.324 L89.116,23.886 C89.116,23.288 89.194,23.21 89.792,23.21 L90.286,23.21 C90.884,23.21 90.962,23.288 90.962,23.886 Z M34.1,51.176 C37.298,51.176 39.794,53.646 39.794,56.844 C39.794,60.042 37.298,62.512 34.048,62.512 C30.85,62.512 28.38,59.99 28.38,56.74 C28.38,53.672 30.954,51.176 34.1,51.176 Z M34.048,52.866 C31.838,52.866 30.278,54.556 30.278,56.922 C30.278,59.132 31.916,60.822 34.074,60.822 C36.284,60.822 37.896,59.158 37.896,56.844 C37.896,54.504 36.31,52.866 34.048,52.866 Z M44.474,52.086 L44.474,52.71 C45.41,51.566 46.242,51.15 47.594,51.15 C48.894,51.15 50.09,51.722 50.688,52.632 C51.104,53.308 51.286,54.114 51.286,55.518 L51.286,61.524 C51.286,62.122 51.208,62.2 50.61,62.2 L50.116,62.2 C49.518,62.2 49.44,62.122 49.44,61.524 L49.44,55.83 C49.44,54.686 49.362,54.166 49.076,53.724 C48.738,53.152 48.036,52.814 47.152,52.814 C45.28,52.814 44.474,54.01 44.474,56.818 L44.474,61.524 C44.474,62.122 44.396,62.2 43.798,62.2 L43.304,62.2 C42.706,62.2 42.628,62.122 42.628,61.524 L42.628,52.086 C42.628,51.488 42.706,51.41 43.304,51.41 L43.798,51.41 C44.396,51.41 44.474,51.488 44.474,52.086 Z M63.818,57.182 L56.07,57.182 C56.174,59.392 57.552,60.822 59.502,60.822 C60.75,60.822 61.842,60.198 62.518,59.054 C62.7,58.768 62.778,58.716 62.986,58.716 C63.038,58.716 63.194,58.768 63.402,58.898 L63.792,59.106 C64.156,59.314 64.234,59.392 64.234,59.6 C64.234,59.704 64.182,59.808 64.078,59.964 C62.986,61.654 61.4,62.512 59.424,62.512 C56.304,62.512 54.12,60.198 54.12,56.87 C54.12,53.49 56.252,51.176 59.346,51.176 C62.388,51.176 64.494,53.438 64.494,56.714 C64.494,57.078 64.338,57.182 63.818,57.182 Z M56.2,55.622 L62.544,55.622 C62.206,53.932 60.958,52.84 59.372,52.84 C57.812,52.84 56.46,54.01 56.2,55.622 Z M67.38,55.83 L70.734,55.83 C71.332,55.83 71.41,55.908 71.41,56.506 L71.41,56.818 C71.41,57.416 71.332,57.494 70.734,57.494 L67.38,57.494 C66.782,57.494 66.704,57.416 66.704,56.818 L66.704,56.506 C66.704,55.908 66.782,55.83 67.38,55.83 Z M75.986,53.126 L75.986,61.524 C75.986,62.122 75.908,62.2 75.31,62.2 L74.816,62.2 C74.218,62.2 74.14,62.122 74.14,61.524 L74.14,53.126 L73.698,53.126 C73.1,53.126 73.022,53.048 73.022,52.45 L73.022,52.086 C73.022,51.488 73.1,51.41 73.698,51.41 L74.14,51.41 L74.14,48.186 C74.14,47.588 74.218,47.51 74.816,47.51 L75.31,47.51 C75.908,47.51 75.986,47.588 75.986,48.186 L75.986,51.41 L77.234,51.41 C77.832,51.41 77.91,51.488 77.91,52.086 L77.91,52.45 C77.91,53.048 77.832,53.126 77.234,53.126 L75.986,53.126 Z M81.706,52.086 L81.706,61.524 C81.706,62.122 81.628,62.2 81.03,62.2 L80.536,62.2 C79.938,62.2 79.86,62.122 79.86,61.524 L79.86,52.086 C79.86,51.488 79.938,51.41 80.536,51.41 L81.03,51.41 C81.628,51.41 81.706,51.488 81.706,52.086 Z M80.796,46.002 C81.524,46.002 82.122,46.6 82.122,47.328 C82.122,48.056 81.524,48.654 80.796,48.654 C80.068,48.654 79.47,48.056 79.47,47.302 C79.47,46.6 80.068,46.002 80.796,46.002 Z M87.114,52.086 L87.114,52.58 C87.868,51.566 88.648,51.15 89.792,51.15 C91.092,51.15 92.132,51.774 92.756,52.892 C93.406,51.748 94.498,51.15 95.902,51.15 C97.15,51.15 98.242,51.696 98.814,52.606 C99.23,53.282 99.412,54.062 99.412,55.362 L99.412,61.524 C99.412,62.122 99.334,62.2 98.736,62.2 L98.242,62.2 C97.644,62.2 97.566,62.122 97.566,61.524 L97.566,55.648 C97.566,53.672 96.994,52.84 95.616,52.84 C94.056,52.84 93.302,53.958 93.302,56.22 L93.302,61.524 C93.302,62.122 93.224,62.2 92.626,62.2 L92.132,62.2 C91.534,62.2 91.456,62.122 91.456,61.524 L91.456,55.804 C91.456,53.828 90.78,52.84 89.454,52.84 C88.648,52.84 87.868,53.308 87.504,54.01 C87.244,54.53 87.114,55.284 87.114,56.324 L87.114,61.524 C87.114,62.122 87.036,62.2 86.438,62.2 L85.944,62.2 C85.346,62.2 85.268,62.122 85.268,61.524 L85.268,52.086 C85.268,51.488 85.346,51.41 85.944,51.41 L86.438,51.41 C87.036,51.41 87.114,51.488 87.114,52.086 Z M111.944,57.182 L104.196,57.182 C104.3,59.392 105.678,60.822 107.628,60.822 C108.876,60.822 109.968,60.198 110.644,59.054 C110.826,58.768 110.904,58.716 111.112,58.716 C111.164,58.716 111.32,58.768 111.528,58.898 L111.918,59.106 C112.282,59.314 112.36,59.392 112.36,59.6 C112.36,59.704 112.308,59.808 112.204,59.964 C111.112,61.654 109.526,62.512 107.55,62.512 C104.43,62.512 102.246,60.198 102.246,56.87 C102.246,53.49 104.378,51.176 107.472,51.176 C110.514,51.176 112.62,53.438 112.62,56.714 C112.62,57.078 112.464,57.182 111.944,57.182 Z M104.326,55.622 L110.67,55.622 C110.332,53.932 109.084,52.84 107.498,52.84 C105.938,52.84 104.586,54.01 104.326,55.622 Z M30.564,80.2860001 L30.538,81.1440001 C31.63,79.8960001 32.774,79.3500001 34.282,79.3500001 C37.298,79.3500001 39.482,81.7680001 39.482,85.0700001 C39.482,88.3200001 37.298,90.7120001 34.334,90.7120001 C32.8,90.7120001 31.63,90.1660001 30.564,88.8920001 L30.564,95.8080001 C30.564,96.4060001 30.486,96.4840001 29.888,96.4840001 L29.394,96.4840001 C28.796,96.4840001 28.718,96.4060001 28.718,95.8080001 L28.718,80.2860001 C28.718,79.6880001 28.796,79.6100001 29.394,79.6100001 L29.888,79.6100001 C30.486,79.6100001 30.564,79.6880001 30.564,80.2860001 Z M34.022,81.0400001 C31.942,81.0400001 30.434,82.7300001 30.434,85.0700001 C30.434,87.3840001 31.942,89.0220001 34.074,89.0220001 C36.102,89.0220001 37.584,87.3320001 37.584,84.9920001 C37.584,82.7300001 36.05,81.0400001 34.022,81.0400001 Z M50.558,89.7240001 L50.558,88.8920001 C49.518,90.1400001 48.374,90.7120001 46.84,90.7120001 C43.824,90.7120001 41.64,88.2940001 41.64,84.9660001 C41.64,81.7160001 43.824,79.3500001 46.788,79.3500001 C48.348,79.3500001 49.492,79.8960001 50.558,81.1440001 L50.558,80.2860001 C50.558,79.6880001 50.636,79.6100001 51.26,79.6100001 L51.754,79.6100001 C52.352,79.6100001 52.43,79.6880001 52.43,80.2860001 L52.43,89.7240001 C52.43,90.3220001 52.352,90.4000001 51.754,90.4000001 L51.26,90.4000001 C50.636,90.4000001 50.558,90.3220001 50.558,89.7240001 Z M47.074,81.0400001 C45.02,81.0400001 43.538,82.7300001 43.538,85.0700001 C43.538,87.3060001 45.072,89.0220001 47.1,89.0220001 C49.18,89.0220001 50.688,87.3320001 50.688,84.9920001 C50.688,82.6520001 49.206,81.0400001 47.074,81.0400001 Z M59.32,89.3860001 L54.77,80.4420001 C54.666,80.2340001 54.614,80.0520001 54.614,79.9740001 C54.614,79.7140001 54.822,79.6100001 55.29,79.6100001 L55.966,79.6100001 C56.512,79.6100001 56.512,79.6100001 56.746,80.0780001 L60.308,87.3320001 L63.584,80.1040001 C63.818,79.6100001 63.818,79.6100001 64.338,79.6100001 L64.988,79.6100001 C65.456,79.6100001 65.664,79.7400001 65.664,79.9740001 C65.664,80.0780001 65.612,80.2340001 65.508,80.4420001 L58.15,96.0160001 C57.916,96.4840001 57.916,96.4840001 57.396,96.4840001 L56.746,96.4840001 C56.278,96.4840001 56.07,96.3800001 56.07,96.1200001 C56.07,96.0420001 56.122,95.8600001 56.226,95.6520001 L59.32,89.3860001 Z M69.72,80.2860001 L69.72,80.7800001 C70.474,79.7660001 71.254,79.3500001 72.398,79.3500001 C73.698,79.3500001 74.738,79.9740001 75.362,81.0920001 C76.012,79.9480001 77.104,79.3500001 78.508,79.3500001 C79.756,79.3500001 80.848,79.8960001 81.42,80.8060001 C81.836,81.4820001 82.018,82.2620001 82.018,83.5620001 L82.018,89.7240001 C82.018,90.3220001 81.94,90.4000001 81.342,90.4000001 L80.848,90.4000001 C80.25,90.4000001 80.172,90.3220001 80.172,89.7240001 L80.172,83.8480001 C80.172,81.8720001 79.6,81.0400001 78.222,81.0400001 C76.662,81.0400001 75.908,82.1580001 75.908,84.4200001 L75.908,89.7240001 C75.908,90.3220001 75.83,90.4000001 75.232,90.4000001 L74.738,90.4000001 C74.14,90.4000001 74.062,90.3220001 74.062,89.7240001 L74.062,84.0040001 C74.062,82.0280001 73.386,81.0400001 72.06,81.0400001 C71.254,81.0400001 70.474,81.5080001 70.11,82.2100001 C69.85,82.7300001 69.72,83.4840001 69.72,84.5240001 L69.72,89.7240001 C69.72,90.3220001 69.642,90.4000001 69.044,90.4000001 L68.55,90.4000001 C67.952,90.4000001 67.874,90.3220001 67.874,89.7240001 L67.874,80.2860001 C67.874,79.6880001 67.952,79.6100001 68.55,79.6100001 L69.044,79.6100001 C69.642,79.6100001 69.72,79.6880001 69.72,80.2860001 Z M94.55,85.3820001 L86.802,85.3820001 C86.906,87.5920001 88.284,89.0220001 90.234,89.0220001 C91.482,89.0220001 92.574,88.3980001 93.25,87.2540001 C93.432,86.9680001 93.51,86.9160001 93.718,86.9160001 C93.77,86.9160001 93.926,86.9680001 94.134,87.0980001 L94.524,87.3060001 C94.888,87.5140001 94.966,87.5920001 94.966,87.8000001 C94.966,87.9040001 94.914,88.0080001 94.81,88.1640001 C93.718,89.8540001 92.132,90.7120001 90.156,90.7120001 C87.036,90.7120001 84.852,88.3980001 84.852,85.0700001 C84.852,81.6900001 86.984,79.3760001 90.078,79.3760001 C93.12,79.3760001 95.226,81.6380001 95.226,84.9140001 C95.226,85.2780001 95.07,85.3820001 94.55,85.3820001 Z M86.932,83.8220001 L93.276,83.8220001 C92.938,82.1320001 91.69,81.0400001 90.104,81.0400001 C88.544,81.0400001 87.192,82.2100001 86.932,83.8220001 Z M99.906,80.2860001 L99.906,80.9100001 C100.842,79.7660001 101.674,79.3500001 103.026,79.3500001 C104.326,79.3500001 105.522,79.9220001 106.12,80.8320001 C106.536,81.5080001 106.718,82.3140001 106.718,83.7180001 L106.718,89.7240001 C106.718,90.3220001 106.64,90.4000001 106.042,90.4000001 L105.548,90.4000001 C104.95,90.4000001 104.872,90.3220001 104.872,89.7240001 L104.872,84.0300001 C104.872,82.8860001 104.794,82.3660001 104.508,81.9240001 C104.17,81.3520001 103.468,81.0140001 102.584,81.0140001 C100.712,81.0140001 99.906,82.2100001 99.906,85.0180001 L99.906,89.7240001 C99.906,90.3220001 99.828,90.4000001 99.23,90.4000001 L98.736,90.4000001 C98.138,90.4000001 98.06,90.3220001 98.06,89.7240001 L98.06,80.2860001 C98.06,79.6880001 98.138,79.6100001 98.736,79.6100001 L99.23,79.6100001 C99.828,79.6100001 99.906,79.6880001 99.906,80.2860001 Z M112.1,81.3260001 L112.1,89.7240001 C112.1,90.3220001 112.022,90.4000001 111.424,90.4000001 L110.93,90.4000001 C110.332,90.4000001 110.254,90.3220001 110.254,89.7240001 L110.254,81.3260001 L109.812,81.3260001 C109.214,81.3260001 109.136,81.2480001 109.136,80.6500001 L109.136,80.2860001 C109.136,79.6880001 109.214,79.6100001 109.812,79.6100001 L110.254,79.6100001 L110.254,76.3860001 C110.254,75.7880001 110.332,75.7100001 110.93,75.7100001 L111.424,75.7100001 C112.022,75.7100001 112.1,75.7880001 112.1,76.3860001 L112.1,79.6100001 L113.348,79.6100001 C113.946,79.6100001 114.024,79.6880001 114.024,80.2860001 L114.024,80.6500001 C114.024,81.2480001 113.946,81.3260001 113.348,81.3260001 L112.1,81.3260001 Z M31.236,104.304 L31.236,107.856 L35.94,107.856 C36.684,107.856 36.756,107.928 36.756,108.696 L36.756,109.728 C36.756,110.496 36.684,110.568 35.94,110.568 L31.236,110.568 L31.236,114.888 L36.156,114.888 C36.9,114.888 36.972,114.96 36.972,115.728 L36.972,116.76 C36.972,117.528 36.9,117.6 36.156,117.6 L28.932,117.6 C28.188,117.6 28.116,117.528 28.116,116.76 L28.116,102.432 C28.116,101.664 28.188,101.592 28.932,101.592 L36.156,101.592 C36.9,101.592 36.972,101.664 36.972,102.432 L36.972,103.464 C36.972,104.232 36.9,104.304 36.156,104.304 L31.236,104.304 Z M42.228,104.304 L39.468,104.304 C38.724,104.304 38.652,104.232 38.652,103.464 L38.652,102.432 C38.652,101.664 38.724,101.592 39.468,101.592 L48.132,101.592 C48.876,101.592 48.948,101.664 48.948,102.432 L48.948,103.464 C48.948,104.232 48.876,104.304 48.132,104.304 L45.348,104.304 L45.348,116.784 C45.348,117.528 45.276,117.6 44.532,117.6 L43.044,117.6 C42.3,117.6 42.228,117.528 42.228,116.784 L42.228,104.304 Z M54.084,107.784 L60.852,107.784 L60.852,102.432 C60.852,101.664 60.924,101.592 61.668,101.592 L63.156,101.592 C63.9,101.592 63.972,101.664 63.972,102.432 L63.972,116.784 C63.972,117.528 63.9,117.6 63.156,117.6 L61.668,117.6 C60.924,117.6 60.852,117.528 60.852,116.784 L60.852,110.496 L54.084,110.496 L54.084,116.784 C54.084,117.528 54.012,117.6 53.268,117.6 L51.78,117.6 C51.036,117.6 50.964,117.528 50.964,116.784 L50.964,102.432 C50.964,101.664 51.036,101.592 51.78,101.592 L53.268,101.592 C54.012,101.592 54.084,101.664 54.084,102.432 L54.084,107.784 Z M75.588,101.376 L67.644,120.36 C67.188,121.488 66.996,121.68 66.396,121.68 C65.82,121.68 65.316,121.2 65.316,120.696 C65.316,120.408 65.364,120.24 65.676,119.52 L73.596,100.56 C74.052,99.4080001 74.244,99.2160001 74.868,99.2160001 C75.444,99.2160001 75.948,99.6960001 75.948,100.224 C75.948,100.512 75.924,100.584 75.588,101.376 Z M79.692,101.592 L82.836,101.592 C84.684,101.592 85.932,101.904 86.748,102.552 C87.636,103.248 88.188,104.496 88.188,105.816 C88.188,106.68 87.948,107.52 87.588,108.096 C87.324,108.456 87.06,108.672 86.436,109.056 C87.516,109.296 88.02,109.536 88.524,110.064 C89.244,110.784 89.676,111.912 89.676,113.088 C89.676,114.36 89.172,115.56 88.26,116.376 C87.324,117.216 86.052,117.6 84.276,117.6 L79.692,117.6 C78.948,117.6 78.876,117.528 78.876,116.784 L78.876,102.408 C78.876,101.664 78.948,101.592 79.692,101.592 Z M81.996,108.264 L82.884,108.264 C84.492,108.264 85.308,107.568 85.308,106.176 C85.308,104.808 84.492,104.112 82.932,104.112 L81.996,104.112 L81.996,108.264 Z M81.996,115.08 L83.34,115.08 C85.452,115.08 86.46,114.36 86.46,112.848 C86.46,112.104 86.124,111.456 85.524,111.096 C84.972,110.736 84.468,110.64 83.172,110.64 L81.996,110.64 L81.996,115.08 Z M93.948,104.304 L91.188,104.304 C90.444,104.304 90.372,104.232 90.372,103.464 L90.372,102.432 C90.372,101.664 90.444,101.592 91.188,101.592 L99.852,101.592 C100.596,101.592 100.668,101.664 100.668,102.432 L100.668,103.464 C100.668,104.232 100.596,104.304 99.852,104.304 L97.068,104.304 L97.068,116.784 C97.068,117.528 96.996,117.6 96.252,117.6 L94.764,117.6 C94.02,117.6 93.948,117.528 93.948,116.784 L93.948,104.304 Z M113.676,102.864 L113.676,104.496 C113.676,105.144 113.58,105.336 113.316,105.336 C113.172,105.336 113.172,105.336 112.428,104.832 C111.708,104.352 110.796,104.088 109.884,104.088 C106.812,104.088 104.532,106.464 104.532,109.656 C104.532,112.752 106.812,115.104 109.788,115.104 C111.036,115.104 111.996,114.792 113.052,114.048 C113.148,113.976 113.268,113.928 113.34,113.928 C113.604,113.928 113.676,114.12 113.676,114.768 L113.676,116.376 C113.676,116.88 113.652,116.952 113.508,117.072 C113.46,117.12 113.412,117.144 113.292,117.192 C112.092,117.72 110.964,117.96 109.764,117.96 C105.036,117.96 101.316,114.312 101.316,109.68 C101.316,104.976 105.084,101.232 109.788,101.232 C111.06,101.232 112.98,101.712 113.508,102.168 C113.652,102.288 113.676,102.36 113.676,102.864 Z" id="custom-one-time-paym" fill="#4A4A4A"></path>
        </g>
    </g>
</svg>