<?xml version="1.0" encoding="UTF-8"?>
<svg width="140px" height="140px" viewBox="0 0 140 140" version="1.1" xmlns="http://www.w3.org/2000/svg" xmlns:xlink="http://www.w3.org/1999/xlink">
    <!-- Generator: Sketch 51.3 (57544) - http://www.bohemiancoding.com/sketch -->
    <title>Group 7</title>
    <desc>Created with Sketch.</desc>
    <defs></defs>
    <g id="Page-1" stroke="none" stroke-width="1" fill="none" fill-rule="evenodd">
        <g id="Group-7">
            <circle id="Oval-2-Copy-3" fill="#F8EDB9" fill-rule="nonzero" cx="70" cy="70" r="70"></circle>
            <path d="M33.6,37.976 C36.798,37.976 39.294,40.446 39.294,43.644 C39.294,46.842 36.798,49.312 33.548,49.312 C30.35,49.312 27.88,46.79 27.88,43.54 C27.88,40.472 30.454,37.976 33.6,37.976 Z M33.548,39.666 C31.338,39.666 29.778,41.356 29.778,43.722 C29.778,45.932 31.416,47.622 33.574,47.622 C35.784,47.622 37.396,45.958 37.396,43.644 C37.396,41.304 35.81,39.666 33.548,39.666 Z M43.974,38.886 L43.974,39.51 C44.91,38.366 45.742,37.95 47.094,37.95 C48.394,37.95 49.59,38.522 50.188,39.432 C50.604,40.108 50.786,40.914 50.786,42.318 L50.786,48.324 C50.786,48.922 50.708,49 50.11,49 L49.616,49 C49.018,49 48.94,48.922 48.94,48.324 L48.94,42.63 C48.94,41.486 48.862,40.966 48.576,40.524 C48.238,39.952 47.536,39.614 46.652,39.614 C44.78,39.614 43.974,40.81 43.974,43.618 L43.974,48.324 C43.974,48.922 43.896,49 43.298,49 L42.804,49 C42.206,49 42.128,48.922 42.128,48.324 L42.128,38.886 C42.128,38.288 42.206,38.21 42.804,38.21 L43.298,38.21 C43.896,38.21 43.974,38.288 43.974,38.886 Z M63.318,43.982 L55.57,43.982 C55.674,46.192 57.052,47.622 59.002,47.622 C60.25,47.622 61.342,46.998 62.018,45.854 C62.2,45.568 62.278,45.516 62.486,45.516 C62.538,45.516 62.694,45.568 62.902,45.698 L63.292,45.906 C63.656,46.114 63.734,46.192 63.734,46.4 C63.734,46.504 63.682,46.608 63.578,46.764 C62.486,48.454 60.9,49.312 58.924,49.312 C55.804,49.312 53.62,46.998 53.62,43.67 C53.62,40.29 55.752,37.976 58.846,37.976 C61.888,37.976 63.994,40.238 63.994,43.514 C63.994,43.878 63.838,43.982 63.318,43.982 Z M55.7,42.422 L62.044,42.422 C61.706,40.732 60.458,39.64 58.872,39.64 C57.312,39.64 55.96,40.81 55.7,42.422 Z M66.88,42.63 L70.234,42.63 C70.832,42.63 70.91,42.708 70.91,43.306 L70.91,43.618 C70.91,44.216 70.832,44.294 70.234,44.294 L66.88,44.294 C66.282,44.294 66.204,44.216 66.204,43.618 L66.204,43.306 C66.204,42.708 66.282,42.63 66.88,42.63 Z M75.486,39.926 L75.486,48.324 C75.486,48.922 75.408,49 74.81,49 L74.316,49 C73.718,49 73.64,48.922 73.64,48.324 L73.64,39.926 L73.198,39.926 C72.6,39.926 72.522,39.848 72.522,39.25 L72.522,38.886 C72.522,38.288 72.6,38.21 73.198,38.21 L73.64,38.21 L73.64,34.986 C73.64,34.388 73.718,34.31 74.316,34.31 L74.81,34.31 C75.408,34.31 75.486,34.388 75.486,34.986 L75.486,38.21 L76.734,38.21 C77.332,38.21 77.41,38.288 77.41,38.886 L77.41,39.25 C77.41,39.848 77.332,39.926 76.734,39.926 L75.486,39.926 Z M81.206,38.886 L81.206,48.324 C81.206,48.922 81.128,49 80.53,49 L80.036,49 C79.438,49 79.36,48.922 79.36,48.324 L79.36,38.886 C79.36,38.288 79.438,38.21 80.036,38.21 L80.53,38.21 C81.128,38.21 81.206,38.288 81.206,38.886 Z M80.296,32.802 C81.024,32.802 81.622,33.4 81.622,34.128 C81.622,34.856 81.024,35.454 80.296,35.454 C79.568,35.454 78.97,34.856 78.97,34.102 C78.97,33.4 79.568,32.802 80.296,32.802 Z M86.614,38.886 L86.614,39.38 C87.368,38.366 88.148,37.95 89.292,37.95 C90.592,37.95 91.632,38.574 92.256,39.692 C92.906,38.548 93.998,37.95 95.402,37.95 C96.65,37.95 97.742,38.496 98.314,39.406 C98.73,40.082 98.912,40.862 98.912,42.162 L98.912,48.324 C98.912,48.922 98.834,49 98.236,49 L97.742,49 C97.144,49 97.066,48.922 97.066,48.324 L97.066,42.448 C97.066,40.472 96.494,39.64 95.116,39.64 C93.556,39.64 92.802,40.758 92.802,43.02 L92.802,48.324 C92.802,48.922 92.724,49 92.126,49 L91.632,49 C91.034,49 90.956,48.922 90.956,48.324 L90.956,42.604 C90.956,40.628 90.28,39.64 88.954,39.64 C88.148,39.64 87.368,40.108 87.004,40.81 C86.744,41.33 86.614,42.084 86.614,43.124 L86.614,48.324 C86.614,48.922 86.536,49 85.938,49 L85.444,49 C84.846,49 84.768,48.922 84.768,48.324 L84.768,38.886 C84.768,38.288 84.846,38.21 85.444,38.21 L85.938,38.21 C86.536,38.21 86.614,38.288 86.614,38.886 Z M111.444,43.982 L103.696,43.982 C103.8,46.192 105.178,47.622 107.128,47.622 C108.376,47.622 109.468,46.998 110.144,45.854 C110.326,45.568 110.404,45.516 110.612,45.516 C110.664,45.516 110.82,45.568 111.028,45.698 L111.418,45.906 C111.782,46.114 111.86,46.192 111.86,46.4 C111.86,46.504 111.808,46.608 111.704,46.764 C110.612,48.454 109.026,49.312 107.05,49.312 C103.93,49.312 101.746,46.998 101.746,43.67 C101.746,40.29 103.878,37.976 106.972,37.976 C110.014,37.976 112.12,40.238 112.12,43.514 C112.12,43.878 111.964,43.982 111.444,43.982 Z M103.826,42.422 L110.17,42.422 C109.832,40.732 108.584,39.64 106.998,39.64 C105.438,39.64 104.086,40.81 103.826,42.422 Z M30.064,64.886 L30.038,65.744 C31.13,64.496 32.274,63.95 33.782,63.95 C36.798,63.95 38.982,66.368 38.982,69.67 C38.982,72.92 36.798,75.312 33.834,75.312 C32.3,75.312 31.13,74.766 30.064,73.492 L30.064,80.408 C30.064,81.006 29.986,81.084 29.388,81.084 L28.894,81.084 C28.296,81.084 28.218,81.006 28.218,80.408 L28.218,64.886 C28.218,64.288 28.296,64.21 28.894,64.21 L29.388,64.21 C29.986,64.21 30.064,64.288 30.064,64.886 Z M33.522,65.64 C31.442,65.64 29.934,67.33 29.934,69.67 C29.934,71.984 31.442,73.622 33.574,73.622 C35.602,73.622 37.084,71.932 37.084,69.592 C37.084,67.33 35.55,65.64 33.522,65.64 Z M50.058,74.324 L50.058,73.492 C49.018,74.74 47.874,75.312 46.34,75.312 C43.324,75.312 41.14,72.894 41.14,69.566 C41.14,66.316 43.324,63.95 46.288,63.95 C47.848,63.95 48.992,64.496 50.058,65.744 L50.058,64.886 C50.058,64.288 50.136,64.21 50.76,64.21 L51.254,64.21 C51.852,64.21 51.93,64.288 51.93,64.886 L51.93,74.324 C51.93,74.922 51.852,75 51.254,75 L50.76,75 C50.136,75 50.058,74.922 50.058,74.324 Z M46.574,65.64 C44.52,65.64 43.038,67.33 43.038,69.67 C43.038,71.906 44.572,73.622 46.6,73.622 C48.68,73.622 50.188,71.932 50.188,69.592 C50.188,67.252 48.706,65.64 46.574,65.64 Z M58.82,73.986 L54.27,65.042 C54.166,64.834 54.114,64.652 54.114,64.574 C54.114,64.314 54.322,64.21 54.79,64.21 L55.466,64.21 C56.012,64.21 56.012,64.21 56.246,64.678 L59.808,71.932 L63.084,64.704 C63.318,64.21 63.318,64.21 63.838,64.21 L64.488,64.21 C64.956,64.21 65.164,64.34 65.164,64.574 C65.164,64.678 65.112,64.834 65.008,65.042 L57.65,80.616 C57.416,81.084 57.416,81.084 56.896,81.084 L56.246,81.084 C55.778,81.084 55.57,80.98 55.57,80.72 C55.57,80.642 55.622,80.46 55.726,80.252 L58.82,73.986 Z M69.22,64.886 L69.22,65.38 C69.974,64.366 70.754,63.95 71.898,63.95 C73.198,63.95 74.238,64.574 74.862,65.692 C75.512,64.548 76.604,63.95 78.008,63.95 C79.256,63.95 80.348,64.496 80.92,65.406 C81.336,66.082 81.518,66.862 81.518,68.162 L81.518,74.324 C81.518,74.922 81.44,75 80.842,75 L80.348,75 C79.75,75 79.672,74.922 79.672,74.324 L79.672,68.448 C79.672,66.472 79.1,65.64 77.722,65.64 C76.162,65.64 75.408,66.758 75.408,69.02 L75.408,74.324 C75.408,74.922 75.33,75 74.732,75 L74.238,75 C73.64,75 73.562,74.922 73.562,74.324 L73.562,68.604 C73.562,66.628 72.886,65.64 71.56,65.64 C70.754,65.64 69.974,66.108 69.61,66.81 C69.35,67.33 69.22,68.084 69.22,69.124 L69.22,74.324 C69.22,74.922 69.142,75 68.544,75 L68.05,75 C67.452,75 67.374,74.922 67.374,74.324 L67.374,64.886 C67.374,64.288 67.452,64.21 68.05,64.21 L68.544,64.21 C69.142,64.21 69.22,64.288 69.22,64.886 Z M94.05,69.982 L86.302,69.982 C86.406,72.192 87.784,73.622 89.734,73.622 C90.982,73.622 92.074,72.998 92.75,71.854 C92.932,71.568 93.01,71.516 93.218,71.516 C93.27,71.516 93.426,71.568 93.634,71.698 L94.024,71.906 C94.388,72.114 94.466,72.192 94.466,72.4 C94.466,72.504 94.414,72.608 94.31,72.764 C93.218,74.454 91.632,75.312 89.656,75.312 C86.536,75.312 84.352,72.998 84.352,69.67 C84.352,66.29 86.484,63.976 89.578,63.976 C92.62,63.976 94.726,66.238 94.726,69.514 C94.726,69.878 94.57,69.982 94.05,69.982 Z M86.432,68.422 L92.776,68.422 C92.438,66.732 91.19,65.64 89.604,65.64 C88.044,65.64 86.692,66.81 86.432,68.422 Z M99.406,64.886 L99.406,65.51 C100.342,64.366 101.174,63.95 102.526,63.95 C103.826,63.95 105.022,64.522 105.62,65.432 C106.036,66.108 106.218,66.914 106.218,68.318 L106.218,74.324 C106.218,74.922 106.14,75 105.542,75 L105.048,75 C104.45,75 104.372,74.922 104.372,74.324 L104.372,68.63 C104.372,67.486 104.294,66.966 104.008,66.524 C103.67,65.952 102.968,65.614 102.084,65.614 C100.212,65.614 99.406,66.81 99.406,69.618 L99.406,74.324 C99.406,74.922 99.328,75 98.73,75 L98.236,75 C97.638,75 97.56,74.922 97.56,74.324 L97.56,64.886 C97.56,64.288 97.638,64.21 98.236,64.21 L98.73,64.21 C99.328,64.21 99.406,64.288 99.406,64.886 Z M111.6,65.926 L111.6,74.324 C111.6,74.922 111.522,75 110.924,75 L110.43,75 C109.832,75 109.754,74.922 109.754,74.324 L109.754,65.926 L109.312,65.926 C108.714,65.926 108.636,65.848 108.636,65.25 L108.636,64.886 C108.636,64.288 108.714,64.21 109.312,64.21 L109.754,64.21 L109.754,60.986 C109.754,60.388 109.832,60.31 110.43,60.31 L110.924,60.31 C111.522,60.31 111.6,60.388 111.6,60.986 L111.6,64.21 L112.848,64.21 C113.446,64.21 113.524,64.288 113.524,64.886 L113.524,65.25 C113.524,65.848 113.446,65.926 112.848,65.926 L111.6,65.926 Z M50.89,86.742 L50.89,95.79 C50.89,97.558 50.994,98.13 51.436,98.884 C52.008,99.872 53.178,100.496 54.478,100.496 C55.778,100.496 56.948,99.872 57.52,98.884 C57.962,98.13 58.066,97.558 58.066,95.79 L58.066,86.742 C58.066,85.936 58.144,85.858 58.95,85.858 L60.562,85.858 C61.368,85.858 61.446,85.936 61.446,86.742 L61.446,96.466 C61.446,98.494 61.056,99.924 60.172,101.094 C58.976,102.654 56.844,103.59 54.478,103.59 C52.112,103.59 49.98,102.654 48.784,101.094 C47.9,99.924 47.51,98.494 47.51,96.466 L47.51,86.742 C47.51,85.936 47.588,85.858 48.394,85.858 L50.006,85.858 C50.812,85.858 50.89,85.936 50.89,86.742 Z M74.966,88.172 L74.316,89.03 C73.978,89.472 73.9,89.524 73.666,89.524 C73.484,89.524 73.484,89.524 72.86,89.004 C72.47,88.666 71.586,88.406 70.91,88.406 C69.532,88.406 68.466,89.264 68.466,90.356 C68.466,91.266 69.064,91.76 71.092,92.514 C73.042,93.216 73.77,93.58 74.576,94.256 C75.59,95.114 76.11,96.362 76.11,97.896 C76.11,101.302 73.666,103.616 70.052,103.616 C68.05,103.616 66.178,102.784 64.852,101.328 C64.436,100.86 64.28,100.6 64.28,100.392 C64.28,100.184 64.306,100.132 64.696,99.742 L65.554,98.91 C65.918,98.572 65.996,98.52 66.178,98.52 C66.36,98.52 66.49,98.598 66.646,98.78 C67.452,99.716 67.452,99.716 67.946,100.002 C68.57,100.34 69.272,100.522 69.974,100.522 C71.508,100.522 72.626,99.482 72.626,98.078 C72.626,97.376 72.314,96.778 71.69,96.336 C71.352,96.102 70.676,95.816 69.272,95.296 C66.126,94.152 64.982,92.904 64.982,90.616 C64.982,87.704 67.27,85.572 70.416,85.572 C72.054,85.572 73.978,86.222 75.07,87.132 C75.2,87.262 75.278,87.392 75.278,87.574 C75.278,87.73 75.226,87.834 74.966,88.172 Z M79.1,102.29 L79.1,86.768 C79.1,85.936 79.178,85.858 79.984,85.858 L84.066,85.858 C86.614,85.858 88.642,86.508 90.28,87.86 C92.23,89.446 93.374,91.916 93.374,94.516 C93.374,97.09 92.204,99.56 90.228,101.198 C88.564,102.602 86.666,103.2 84.04,103.2 L79.984,103.2 C79.178,103.2 79.1,103.122 79.1,102.29 Z M82.48,100.262 L83.39,100.262 C85.574,100.262 86.952,99.846 88.018,98.884 C89.188,97.844 89.89,96.18 89.89,94.516 C89.89,92.852 89.188,91.24 88.018,90.2 C86.9,89.186 85.574,88.796 83.39,88.796 L82.48,88.796 L82.48,100.262 Z" id="one-time-payment-USD" fill="#4A4A4A"></path>
        </g>
    </g>
</svg>