<?xml version="1.0" encoding="UTF-8"?>
<svg width="140px" height="140px" viewBox="0 0 140 140" version="1.1" xmlns="http://www.w3.org/2000/svg" xmlns:xlink="http://www.w3.org/1999/xlink">
    <!-- Generator: Sketch 51.3 (57544) - http://www.bohemiancoding.com/sketch -->
    <title>Group</title>
    <desc>Created with Sketch.</desc>
    <defs></defs>
    <g id="Page-1" stroke="none" stroke-width="1" fill="none" fill-rule="evenodd">
        <g id="Group">
            <circle id="Oval-2-Copy-3" fill="#F8EDB9" fill-rule="nonzero" cx="70" cy="70" r="70"></circle>
            <path d="M48.012,39.216 L48.012,39.888 C48.012,40.296 47.892,40.464 47.628,40.464 C47.556,40.464 47.46,40.416 47.34,40.32 C46.428,39.624 45.78,39.384 44.892,39.384 C42.876,39.384 41.364,40.968 41.364,43.056 C41.364,45.168 42.876,46.728 44.868,46.728 C45.804,46.728 46.428,46.488 47.412,45.696 C47.532,45.624 47.628,45.576 47.7,45.576 C47.964,45.576 48.084,45.768 48.084,46.128 L48.084,46.8 C48.084,47.16 48.06,47.232 47.94,47.328 C47.196,47.904 45.948,48.288 44.916,48.288 C41.916,48.288 39.612,46.008 39.612,43.08 C39.612,40.104 41.916,37.824 44.916,37.824 C45.996,37.824 47.268,38.208 47.868,38.688 C47.988,38.784 48.012,38.856 48.012,39.216 Z M52.044,38.664 L52.044,43.848 C52.044,44.784 52.14,45.288 52.356,45.72 C52.692,46.344 53.436,46.728 54.3,46.728 C55.14,46.728 55.884,46.344 56.22,45.72 C56.436,45.288 56.532,44.784 56.532,43.848 L56.532,38.664 C56.532,38.112 56.604,38.04 57.156,38.04 L57.612,38.04 C58.164,38.04 58.236,38.112 58.236,38.664 L58.236,44.04 C58.236,45.504 57.996,46.296 57.324,47.04 C56.604,47.856 55.524,48.288 54.3,48.288 C53.052,48.288 51.972,47.856 51.252,47.04 C50.58,46.296 50.34,45.504 50.34,44.04 L50.34,38.664 C50.34,38.112 50.412,38.04 50.964,38.04 L51.42,38.04 C51.972,38.04 52.044,38.112 52.044,38.664 Z M66.42,39.912 L66.108,40.08 C65.868,40.2 65.748,40.248 65.7,40.248 C65.58,40.248 65.532,40.2 65.388,40.032 C65.1,39.648 64.596,39.384 64.164,39.384 C63.516,39.384 62.964,39.888 62.964,40.488 C62.964,41.064 63.3,41.376 64.572,41.904 C65.748,42.384 66.036,42.528 66.492,42.864 C67.212,43.392 67.596,44.136 67.596,45.048 C67.596,46.896 66.132,48.288 64.188,48.288 C62.916,48.288 61.764,47.664 61.116,46.632 C60.924,46.32 60.804,46.08 60.804,45.936 C60.804,45.744 60.9,45.672 61.26,45.504 L61.644,45.36 C61.836,45.264 61.98,45.216 62.052,45.216 C62.196,45.216 62.268,45.288 62.46,45.624 C62.82,46.32 63.468,46.728 64.188,46.728 C65.148,46.728 65.844,46.056 65.844,45.168 C65.844,44.4 65.508,44.04 64.212,43.512 C61.908,42.504 61.332,41.928 61.332,40.608 C61.332,39.024 62.58,37.824 64.236,37.824 C65.268,37.824 66.3,38.4 66.732,39.192 C66.804,39.312 66.828,39.384 66.828,39.48 C66.828,39.648 66.756,39.744 66.42,39.912 Z M71.748,39.624 L71.748,47.376 C71.748,47.928 71.676,48 71.124,48 L70.668,48 C70.116,48 70.044,47.928 70.044,47.376 L70.044,39.624 L69.636,39.624 C69.084,39.624 69.012,39.552 69.012,39 L69.012,38.664 C69.012,38.112 69.084,38.04 69.636,38.04 L70.044,38.04 L70.044,35.064 C70.044,34.512 70.116,34.44 70.668,34.44 L71.124,34.44 C71.676,34.44 71.748,34.512 71.748,35.064 L71.748,38.04 L72.9,38.04 C73.452,38.04 73.524,38.112 73.524,38.664 L73.524,39 C73.524,39.552 73.452,39.624 72.9,39.624 L71.748,39.624 Z M79.812,37.824 C82.764,37.824 85.068,40.104 85.068,43.056 C85.068,46.008 82.764,48.288 79.764,48.288 C76.812,48.288 74.532,45.96 74.532,42.96 C74.532,40.128 76.908,37.824 79.812,37.824 Z M79.764,39.384 C77.724,39.384 76.284,40.944 76.284,43.128 C76.284,45.168 77.796,46.728 79.788,46.728 C81.828,46.728 83.316,45.192 83.316,43.056 C83.316,40.896 81.852,39.384 79.764,39.384 Z M89.388,38.664 L89.388,39.12 C90.084,38.184 90.804,37.8 91.86,37.8 C93.06,37.8 94.02,38.376 94.596,39.408 C95.196,38.352 96.204,37.8 97.5,37.8 C98.652,37.8 99.66,38.304 100.188,39.144 C100.572,39.768 100.74,40.488 100.74,41.688 L100.74,47.376 C100.74,47.928 100.668,48 100.116,48 L99.66,48 C99.108,48 99.036,47.928 99.036,47.376 L99.036,41.952 C99.036,40.128 98.508,39.36 97.236,39.36 C95.796,39.36 95.1,40.392 95.1,42.48 L95.1,47.376 C95.1,47.928 95.028,48 94.476,48 L94.02,48 C93.468,48 93.396,47.928 93.396,47.376 L93.396,42.096 C93.396,40.272 92.772,39.36 91.548,39.36 C90.804,39.36 90.084,39.792 89.748,40.44 C89.508,40.92 89.388,41.616 89.388,42.576 L89.388,47.376 C89.388,47.928 89.316,48 88.764,48 L88.308,48 C87.756,48 87.684,47.928 87.684,47.376 L87.684,38.664 C87.684,38.112 87.756,38.04 88.308,38.04 L88.764,38.04 C89.316,38.04 89.388,38.112 89.388,38.664 Z M36.9,64.024 C39.852,64.024 42.156,66.304 42.156,69.256 C42.156,72.208 39.852,74.488 36.852,74.488 C33.9,74.488 31.62,72.16 31.62,69.16 C31.62,66.328 33.996,64.024 36.9,64.024 Z M36.852,65.584 C34.812,65.584 33.372,67.144 33.372,69.328 C33.372,71.368 34.884,72.928 36.876,72.928 C38.916,72.928 40.404,71.392 40.404,69.256 C40.404,67.096 38.94,65.584 36.852,65.584 Z M46.476,64.864 L46.476,65.44 C47.34,64.384 48.108,64 49.356,64 C50.556,64 51.66,64.528 52.212,65.368 C52.596,65.992 52.764,66.736 52.764,68.032 L52.764,73.576 C52.764,74.128 52.692,74.2 52.14,74.2 L51.684,74.2 C51.132,74.2 51.06,74.128 51.06,73.576 L51.06,68.32 C51.06,67.264 50.988,66.784 50.724,66.376 C50.412,65.848 49.764,65.536 48.948,65.536 C47.22,65.536 46.476,66.64 46.476,69.232 L46.476,73.576 C46.476,74.128 46.404,74.2 45.852,74.2 L45.396,74.2 C44.844,74.2 44.772,74.128 44.772,73.576 L44.772,64.864 C44.772,64.312 44.844,64.24 45.396,64.24 L45.852,64.24 C46.404,64.24 46.476,64.312 46.476,64.864 Z M64.332,69.568 L57.18,69.568 C57.276,71.608 58.548,72.928 60.348,72.928 C61.5,72.928 62.508,72.352 63.132,71.296 C63.3,71.032 63.372,70.984 63.564,70.984 C63.612,70.984 63.756,71.032 63.948,71.152 L64.308,71.344 C64.644,71.536 64.716,71.608 64.716,71.8 C64.716,71.896 64.668,71.992 64.572,72.136 C63.564,73.696 62.1,74.488 60.276,74.488 C57.396,74.488 55.38,72.352 55.38,69.28 C55.38,66.16 57.348,64.024 60.204,64.024 C63.012,64.024 64.956,66.112 64.956,69.136 C64.956,69.472 64.812,69.568 64.332,69.568 Z M57.3,68.128 L63.156,68.128 C62.844,66.568 61.692,65.56 60.228,65.56 C58.788,65.56 57.54,66.64 57.3,68.128 Z M67.62,68.32 L70.716,68.32 C71.268,68.32 71.34,68.392 71.34,68.944 L71.34,69.232 C71.34,69.784 71.268,69.856 70.716,69.856 L67.62,69.856 C67.068,69.856 66.996,69.784 66.996,69.232 L66.996,68.944 C66.996,68.392 67.068,68.32 67.62,68.32 Z M75.564,65.824 L75.564,73.576 C75.564,74.128 75.492,74.2 74.94,74.2 L74.484,74.2 C73.932,74.2 73.86,74.128 73.86,73.576 L73.86,65.824 L73.452,65.824 C72.9,65.824 72.828,65.752 72.828,65.2 L72.828,64.864 C72.828,64.312 72.9,64.24 73.452,64.24 L73.86,64.24 L73.86,61.264 C73.86,60.712 73.932,60.64 74.484,60.64 L74.94,60.64 C75.492,60.64 75.564,60.712 75.564,61.264 L75.564,64.24 L76.716,64.24 C77.268,64.24 77.34,64.312 77.34,64.864 L77.34,65.2 C77.34,65.752 77.268,65.824 76.716,65.824 L75.564,65.824 Z M80.844,64.864 L80.844,73.576 C80.844,74.128 80.772,74.2 80.22,74.2 L79.764,74.2 C79.212,74.2 79.14,74.128 79.14,73.576 L79.14,64.864 C79.14,64.312 79.212,64.24 79.764,64.24 L80.22,64.24 C80.772,64.24 80.844,64.312 80.844,64.864 Z M80.004,59.248 C80.676,59.248 81.228,59.8 81.228,60.472 C81.228,61.144 80.676,61.696 80.004,61.696 C79.332,61.696 78.78,61.144 78.78,60.448 C78.78,59.8 79.332,59.248 80.004,59.248 Z M85.836,64.864 L85.836,65.32 C86.532,64.384 87.252,64 88.308,64 C89.508,64 90.468,64.576 91.044,65.608 C91.644,64.552 92.652,64 93.948,64 C95.1,64 96.108,64.504 96.636,65.344 C97.02,65.968 97.188,66.688 97.188,67.888 L97.188,73.576 C97.188,74.128 97.116,74.2 96.564,74.2 L96.108,74.2 C95.556,74.2 95.484,74.128 95.484,73.576 L95.484,68.152 C95.484,66.328 94.956,65.56 93.684,65.56 C92.244,65.56 91.548,66.592 91.548,68.68 L91.548,73.576 C91.548,74.128 91.476,74.2 90.924,74.2 L90.468,74.2 C89.916,74.2 89.844,74.128 89.844,73.576 L89.844,68.296 C89.844,66.472 89.22,65.56 87.996,65.56 C87.252,65.56 86.532,65.992 86.196,66.64 C85.956,67.12 85.836,67.816 85.836,68.776 L85.836,73.576 C85.836,74.128 85.764,74.2 85.212,74.2 L84.756,74.2 C84.204,74.2 84.132,74.128 84.132,73.576 L84.132,64.864 C84.132,64.312 84.204,64.24 84.756,64.24 L85.212,64.24 C85.764,64.24 85.836,64.312 85.836,64.864 Z M108.756,69.568 L101.604,69.568 C101.7,71.608 102.972,72.928 104.772,72.928 C105.924,72.928 106.932,72.352 107.556,71.296 C107.724,71.032 107.796,70.984 107.988,70.984 C108.036,70.984 108.18,71.032 108.372,71.152 L108.732,71.344 C109.068,71.536 109.14,71.608 109.14,71.8 C109.14,71.896 109.092,71.992 108.996,72.136 C107.988,73.696 106.524,74.488 104.7,74.488 C101.82,74.488 99.804,72.352 99.804,69.28 C99.804,66.16 101.772,64.024 104.628,64.024 C107.436,64.024 109.38,66.112 109.38,69.136 C109.38,69.472 109.236,69.568 108.756,69.568 Z M101.724,68.128 L107.58,68.128 C107.268,66.568 106.116,65.56 104.652,65.56 C103.212,65.56 101.964,66.64 101.724,68.128 Z M33.636,91.0640001 L33.612,91.8560001 C34.62,90.7040001 35.676,90.2000001 37.068,90.2000001 C39.852,90.2000001 41.868,92.4320001 41.868,95.4800001 C41.868,98.4800001 39.852,100.688 37.116,100.688 C35.7,100.688 34.62,100.184 33.636,99.0080001 L33.636,105.392 C33.636,105.944 33.564,106.016 33.012,106.016 L32.556,106.016 C32.004,106.016 31.932,105.944 31.932,105.392 L31.932,91.0640001 C31.932,90.5120001 32.004,90.4400001 32.556,90.4400001 L33.012,90.4400001 C33.564,90.4400001 33.636,90.5120001 33.636,91.0640001 Z M36.828,91.7600001 C34.908,91.7600001 33.516,93.3200001 33.516,95.4800001 C33.516,97.6160001 34.908,99.1280001 36.876,99.1280001 C38.748,99.1280001 40.116,97.5680001 40.116,95.4080001 C40.116,93.3200001 38.7,91.7600001 36.828,91.7600001 Z M52.092,99.7760001 L52.092,99.0080001 C51.132,100.16 50.076,100.688 48.66,100.688 C45.876,100.688 43.86,98.4560001 43.86,95.3840001 C43.86,92.3840001 45.876,90.2000001 48.612,90.2000001 C50.052,90.2000001 51.108,90.7040001 52.092,91.8560001 L52.092,91.0640001 C52.092,90.5120001 52.164,90.4400001 52.74,90.4400001 L53.196,90.4400001 C53.748,90.4400001 53.82,90.5120001 53.82,91.0640001 L53.82,99.7760001 C53.82,100.328 53.748,100.4 53.196,100.4 L52.74,100.4 C52.164,100.4 52.092,100.328 52.092,99.7760001 Z M48.876,91.7600001 C46.98,91.7600001 45.612,93.3200001 45.612,95.4800001 C45.612,97.5440001 47.028,99.1280001 48.9,99.1280001 C50.82,99.1280001 52.212,97.5680001 52.212,95.4080001 C52.212,93.2480001 50.844,91.7600001 48.876,91.7600001 Z M60.18,99.4640001 L55.98,91.2080001 C55.884,91.0160001 55.836,90.8480001 55.836,90.7760001 C55.836,90.5360001 56.028,90.4400001 56.46,90.4400001 L57.084,90.4400001 C57.588,90.4400001 57.588,90.4400001 57.804,90.8720001 L61.092,97.5680001 L64.116,90.8960001 C64.332,90.4400001 64.332,90.4400001 64.812,90.4400001 L65.412,90.4400001 C65.844,90.4400001 66.036,90.5600001 66.036,90.7760001 C66.036,90.8720001 65.988,91.0160001 65.892,91.2080001 L59.1,105.584 C58.884,106.016 58.884,106.016 58.404,106.016 L57.804,106.016 C57.372,106.016 57.18,105.92 57.18,105.68 C57.18,105.608 57.228,105.44 57.324,105.248 L60.18,99.4640001 Z M69.78,91.0640001 L69.78,91.5200001 C70.476,90.5840001 71.196,90.2000001 72.252,90.2000001 C73.452,90.2000001 74.412,90.7760001 74.988,91.8080001 C75.588,90.7520001 76.596,90.2000001 77.892,90.2000001 C79.044,90.2000001 80.052,90.7040001 80.58,91.5440001 C80.964,92.1680001 81.132,92.8880001 81.132,94.0880001 L81.132,99.7760001 C81.132,100.328 81.06,100.4 80.508,100.4 L80.052,100.4 C79.5,100.4 79.428,100.328 79.428,99.7760001 L79.428,94.3520001 C79.428,92.5280001 78.9,91.7600001 77.628,91.7600001 C76.188,91.7600001 75.492,92.7920001 75.492,94.8800001 L75.492,99.7760001 C75.492,100.328 75.42,100.4 74.868,100.4 L74.412,100.4 C73.86,100.4 73.788,100.328 73.788,99.7760001 L73.788,94.4960001 C73.788,92.6720001 73.164,91.7600001 71.94,91.7600001 C71.196,91.7600001 70.476,92.1920001 70.14,92.8400001 C69.9,93.3200001 69.78,94.0160001 69.78,94.9760001 L69.78,99.7760001 C69.78,100.328 69.708,100.4 69.156,100.4 L68.7,100.4 C68.148,100.4 68.076,100.328 68.076,99.7760001 L68.076,91.0640001 C68.076,90.5120001 68.148,90.4400001 68.7,90.4400001 L69.156,90.4400001 C69.708,90.4400001 69.78,90.5120001 69.78,91.0640001 Z M92.7,95.7680001 L85.548,95.7680001 C85.644,97.8080001 86.916,99.1280001 88.716,99.1280001 C89.868,99.1280001 90.876,98.5520001 91.5,97.4960001 C91.668,97.2320001 91.74,97.1840001 91.932,97.1840001 C91.98,97.1840001 92.124,97.2320001 92.316,97.3520001 L92.676,97.5440001 C93.012,97.7360001 93.084,97.8080001 93.084,98.0000001 C93.084,98.0960001 93.036,98.1920001 92.94,98.3360001 C91.932,99.8960001 90.468,100.688 88.644,100.688 C85.764,100.688 83.748,98.5520001 83.748,95.4800001 C83.748,92.3600001 85.716,90.2240001 88.572,90.2240001 C91.38,90.2240001 93.324,92.3120001 93.324,95.3360001 C93.324,95.6720001 93.18,95.7680001 92.7,95.7680001 Z M85.668,94.3280001 L91.524,94.3280001 C91.212,92.7680001 90.06,91.7600001 88.596,91.7600001 C87.156,91.7600001 85.908,92.8400001 85.668,94.3280001 Z M97.644,91.0640001 L97.644,91.6400001 C98.508,90.5840001 99.276,90.2000001 100.524,90.2000001 C101.724,90.2000001 102.828,90.7280001 103.38,91.5680001 C103.764,92.1920001 103.932,92.9360001 103.932,94.2320001 L103.932,99.7760001 C103.932,100.328 103.86,100.4 103.308,100.4 L102.852,100.4 C102.3,100.4 102.228,100.328 102.228,99.7760001 L102.228,94.5200001 C102.228,93.4640001 102.156,92.9840001 101.892,92.5760001 C101.58,92.0480001 100.932,91.7360001 100.116,91.7360001 C98.388,91.7360001 97.644,92.8400001 97.644,95.4320001 L97.644,99.7760001 C97.644,100.328 97.572,100.4 97.02,100.4 L96.564,100.4 C96.012,100.4 95.94,100.328 95.94,99.7760001 L95.94,91.0640001 C95.94,90.5120001 96.012,90.4400001 96.564,90.4400001 L97.02,90.4400001 C97.572,90.4400001 97.644,90.5120001 97.644,91.0640001 Z M108.9,92.0240001 L108.9,99.7760001 C108.9,100.328 108.828,100.4 108.276,100.4 L107.82,100.4 C107.268,100.4 107.196,100.328 107.196,99.7760001 L107.196,92.0240001 L106.788,92.0240001 C106.236,92.0240001 106.164,91.9520001 106.164,91.4000001 L106.164,91.0640001 C106.164,90.5120001 106.236,90.4400001 106.788,90.4400001 L107.196,90.4400001 L107.196,87.4640001 C107.196,86.9120001 107.268,86.8400001 107.82,86.8400001 L108.276,86.8400001 C108.828,86.8400001 108.9,86.9120001 108.9,87.4640001 L108.9,90.4400001 L110.052,90.4400001 C110.604,90.4400001 110.676,90.5120001 110.676,91.0640001 L110.676,91.4000001 C110.676,91.9520001 110.604,92.0240001 110.052,92.0240001 L108.9,92.0240001 Z" id="custom-one-time-paym" fill="#4A4A4A"></path>
        </g>
    </g>
</svg>