<?xml version="1.0" encoding="UTF-8"?>
<svg width="140px" height="140px" viewBox="0 0 140 140" version="1.1" xmlns="http://www.w3.org/2000/svg" xmlns:xlink="http://www.w3.org/1999/xlink">
    <!-- Generator: Sketch 51.3 (57544) - http://www.bohemiancoding.com/sketch -->
    <title>Group 3</title>
    <desc>Created with Sketch.</desc>
    <defs></defs>
    <g id="Page-1" stroke="none" stroke-width="1" fill="none" fill-rule="evenodd">
        <g id="Group-3">
            <circle id="Oval-2-Copy" fill="#F2B6FB" fill-rule="nonzero" cx="70" cy="70" r="70"></circle>
            <path d="M52.595,34.42 L52.595,36.58 C55.16,36.985 57.05,38.2 58.4,40.36 C58.67,40.765 58.76,41.035 58.76,41.26 C58.76,41.755 58.58,41.935 57.68,42.43 L56.735,42.97 C56.645,43.015 56.51,43.105 56.375,43.15 C56.06,43.33 55.88,43.42 55.7,43.42 C55.25,43.42 55.025,43.24 54.71,42.7 C53.945,41.44 52.46,40.63 50.84,40.63 C48.635,40.63 46.925,42.16 46.925,44.14 C46.925,46.03 47.87,46.93 51.425,48.55 C54.485,49.945 55.97,50.845 57.185,51.925 C58.85,53.41 59.84,55.75 59.84,58.135 C59.84,62.545 57.005,66.19 52.595,67.36 L52.595,69.7 C52.595,71.095 52.37,71.365 51.38,71.365 L50.435,71.365 C49.445,71.365 49.22,71.095 49.22,69.7 L49.22,67.45 C46.07,66.955 43.55,65.47 42.2,63.31 C41.48,62.23 40.67,60.115 40.67,59.395 C40.67,58.765 40.94,58.54 42.11,58.315 L43.19,58.09 C43.55,58 43.91,57.955 44.09,57.955 C44.585,57.955 44.855,58.225 45.035,58.81 C45.935,61.69 47.78,63.175 50.39,63.175 C53.27,63.175 55.385,61.105 55.385,58.27 C55.385,55.705 54.215,54.535 49.4,52.375 C46.61,51.115 45.89,50.665 44.855,49.72 C43.46,48.325 42.56,46.255 42.56,44.185 C42.56,40.495 44.99,37.705 49.22,36.58 L49.22,34.42 C49.22,33.025 49.445,32.755 50.435,32.755 L51.38,32.755 C52.37,32.755 52.595,33.025 52.595,34.42 Z M68.93,41.215 L66.14,41.215 C64.925,41.215 64.475,40.99 64.475,40.27 C64.475,40 64.52,39.865 64.97,39.145 L65.6,38.02 C66.23,36.985 66.23,36.985 67.445,36.985 L71.81,36.985 C72.8,36.985 72.89,36.985 73.205,37.255 C73.475,37.525 73.475,37.615 73.475,38.65 L73.475,65.335 C73.475,66.37 73.475,66.46 73.205,66.73 C72.89,67 72.8,67 71.81,67 L70.595,67 C69.065,67 68.93,66.865 68.93,65.335 L68.93,41.215 Z M85.355,64.255 L91.565,55.795 C90.8,55.885 90.485,55.93 89.945,55.93 C85.04,55.93 80.99,51.655 80.99,46.525 C80.99,40.99 85.49,36.49 90.98,36.49 C96.47,36.49 101.15,40.99 101.15,46.255 C101.15,48.64 100.16,51.115 98.225,53.815 L88.73,66.73 C88.145,67.495 87.965,67.63 87.515,67.63 C87.245,67.63 87.02,67.495 86.39,67.045 L85.715,66.55 C84.95,65.965 84.815,65.785 84.815,65.335 C84.815,65.065 84.95,64.84 85.355,64.255 Z M91.07,40.585 C87.92,40.585 85.4,43.105 85.4,46.3 C85.4,49.36 87.965,51.925 91.07,51.925 C94.22,51.925 96.74,49.405 96.74,46.255 C96.74,43.105 94.22,40.585 91.07,40.585 Z M27.404,88.864 L27.38,89.656 C28.388,88.504 29.444,88 30.836,88 C33.62,88 35.636,90.232 35.636,93.28 C35.636,96.28 33.62,98.488 30.884,98.488 C29.468,98.488 28.388,97.984 27.404,96.808 L27.404,103.192 C27.404,103.744 27.332,103.816 26.78,103.816 L26.324,103.816 C25.772,103.816 25.7,103.744 25.7,103.192 L25.7,88.864 C25.7,88.312 25.772,88.24 26.324,88.24 L26.78,88.24 C27.332,88.24 27.404,88.312 27.404,88.864 Z M30.596,89.56 C28.676,89.56 27.284,91.12 27.284,93.28 C27.284,95.416 28.676,96.928 30.644,96.928 C32.516,96.928 33.884,95.368 33.884,93.208 C33.884,91.12 32.468,89.56 30.596,89.56 Z M46.58,93.568 L39.428,93.568 C39.524,95.608 40.796,96.928 42.596,96.928 C43.748,96.928 44.756,96.352 45.38,95.296 C45.548,95.032 45.62,94.984 45.812,94.984 C45.86,94.984 46.004,95.032 46.196,95.152 L46.556,95.344 C46.892,95.536 46.964,95.608 46.964,95.8 C46.964,95.896 46.916,95.992 46.82,96.136 C45.812,97.696 44.348,98.488 42.524,98.488 C39.644,98.488 37.628,96.352 37.628,93.28 C37.628,90.16 39.596,88.024 42.452,88.024 C45.26,88.024 47.204,90.112 47.204,93.136 C47.204,93.472 47.06,93.568 46.58,93.568 Z M39.548,92.128 L45.404,92.128 C45.092,90.568 43.94,89.56 42.476,89.56 C41.036,89.56 39.788,90.64 39.548,92.128 Z M51.524,88.864 L51.524,89.32 C52.412,88.264 52.844,88 53.804,88 C54.548,88 55.196,88.264 55.172,88.576 C55.172,88.648 55.1,88.792 55.004,88.984 L54.788,89.392 C54.596,89.752 54.524,89.824 54.332,89.824 C54.26,89.824 54.212,89.8 54.092,89.728 C53.948,89.68 53.756,89.632 53.54,89.632 C52.844,89.632 52.196,89.992 51.908,90.544 C51.644,91.024 51.524,91.744 51.524,92.944 L51.524,97.576 C51.524,98.128 51.452,98.2 50.9,98.2 L50.444,98.2 C49.892,98.2 49.82,98.128 49.82,97.576 L49.82,88.864 C49.82,88.312 49.892,88.24 50.444,88.24 L50.9,88.24 C51.452,88.24 51.524,88.312 51.524,88.864 Z M64.604,88.864 L64.604,89.32 C65.3,88.384 66.02,88 67.076,88 C68.276,88 69.236,88.576 69.812,89.608 C70.412,88.552 71.42,88 72.716,88 C73.868,88 74.876,88.504 75.404,89.344 C75.788,89.968 75.956,90.688 75.956,91.888 L75.956,97.576 C75.956,98.128 75.884,98.2 75.332,98.2 L74.876,98.2 C74.324,98.2 74.252,98.128 74.252,97.576 L74.252,92.152 C74.252,90.328 73.724,89.56 72.452,89.56 C71.012,89.56 70.316,90.592 70.316,92.68 L70.316,97.576 C70.316,98.128 70.244,98.2 69.692,98.2 L69.236,98.2 C68.684,98.2 68.612,98.128 68.612,97.576 L68.612,92.296 C68.612,90.472 67.988,89.56 66.764,89.56 C66.02,89.56 65.3,89.992 64.964,90.64 C64.724,91.12 64.604,91.816 64.604,92.776 L64.604,97.576 C64.604,98.128 64.532,98.2 63.98,98.2 L63.524,98.2 C62.972,98.2 62.9,98.128 62.9,97.576 L62.9,88.864 C62.9,88.312 62.972,88.24 63.524,88.24 L63.98,88.24 C64.532,88.24 64.604,88.312 64.604,88.864 Z M83.852,88.024 C86.804,88.024 89.108,90.304 89.108,93.256 C89.108,96.208 86.804,98.488 83.804,98.488 C80.852,98.488 78.572,96.16 78.572,93.16 C78.572,90.328 80.948,88.024 83.852,88.024 Z M83.804,89.584 C81.764,89.584 80.324,91.144 80.324,93.328 C80.324,95.368 81.836,96.928 83.828,96.928 C85.868,96.928 87.356,95.392 87.356,93.256 C87.356,91.096 85.892,89.584 83.804,89.584 Z M93.428,88.864 L93.428,89.44 C94.292,88.384 95.06,88 96.308,88 C97.508,88 98.612,88.528 99.164,89.368 C99.548,89.992 99.716,90.736 99.716,92.032 L99.716,97.576 C99.716,98.128 99.644,98.2 99.092,98.2 L98.636,98.2 C98.084,98.2 98.012,98.128 98.012,97.576 L98.012,92.32 C98.012,91.264 97.94,90.784 97.676,90.376 C97.364,89.848 96.716,89.536 95.9,89.536 C94.172,89.536 93.428,90.64 93.428,93.232 L93.428,97.576 C93.428,98.128 93.356,98.2 92.804,98.2 L92.348,98.2 C91.796,98.2 91.724,98.128 91.724,97.576 L91.724,88.864 C91.724,88.312 91.796,88.24 92.348,88.24 L92.804,88.24 C93.356,88.24 93.428,88.312 93.428,88.864 Z M104.684,89.824 L104.684,97.576 C104.684,98.128 104.612,98.2 104.06,98.2 L103.604,98.2 C103.052,98.2 102.98,98.128 102.98,97.576 L102.98,89.824 L102.572,89.824 C102.02,89.824 101.948,89.752 101.948,89.2 L101.948,88.864 C101.948,88.312 102.02,88.24 102.572,88.24 L102.98,88.24 L102.98,85.264 C102.98,84.712 103.052,84.64 103.604,84.64 L104.06,84.64 C104.612,84.64 104.684,84.712 104.684,85.264 L104.684,88.24 L105.836,88.24 C106.388,88.24 106.46,88.312 106.46,88.864 L106.46,89.2 C106.46,89.752 106.388,89.824 105.836,89.824 L104.684,89.824 Z M110.012,81.328 L110.012,89.416 C110.852,88.408 111.668,88.024 112.868,88.024 C114.068,88.024 115.172,88.552 115.724,89.392 C116.132,90.016 116.3,90.736 116.3,92.032 L116.3,97.576 C116.3,98.128 116.228,98.2 115.676,98.2 L115.22,98.2 C114.668,98.2 114.596,98.128 114.596,97.576 L114.596,92.152 C114.596,90.328 113.996,89.584 112.532,89.584 C111.548,89.584 110.78,90.016 110.42,90.76 C110.132,91.336 110.012,92.056 110.012,93.232 L110.012,97.576 C110.012,98.128 109.94,98.2 109.388,98.2 L108.932,98.2 C108.38,98.2 108.308,98.128 108.308,97.576 L108.308,81.328 C108.308,80.776 108.38,80.704 108.932,80.704 L109.388,80.704 C109.94,80.704 110.012,80.776 110.012,81.328 Z" id="$19-per-month" fill="#4A4A4A"></path>
        </g>
    </g>
</svg>