<?xml version="1.0" encoding="UTF-8"?>
<svg width="140px" height="140px" viewBox="0 0 140 140" version="1.1" xmlns="http://www.w3.org/2000/svg" xmlns:xlink="http://www.w3.org/1999/xlink">
    <!-- Generator: Sketch 51.3 (57544) - http://www.bohemiancoding.com/sketch -->
    <title>Group 2</title>
    <desc>Created with Sketch.</desc>
    <defs></defs>
    <g id="Page-1" stroke="none" stroke-width="1" fill="none" fill-rule="evenodd">
        <g id="Group-2">
            <circle id="Oval-2-Copy-2" fill="#B9E1F8" fill-rule="nonzero" cx="70" cy="70" r="70"></circle>
            <path d="M47.4775,34.42 L47.4775,36.58 C50.0425,36.985 51.9325,38.2 53.2825,40.36 C53.5525,40.765 53.6425,41.035 53.6425,41.26 C53.6425,41.755 53.4625,41.935 52.5625,42.43 L51.6175,42.97 C51.5275,43.015 51.3925,43.105 51.2575,43.15 C50.9425,43.33 50.7625,43.42 50.5825,43.42 C50.1325,43.42 49.9075,43.24 49.5925,42.7 C48.8275,41.44 47.3425,40.63 45.7225,40.63 C43.5175,40.63 41.8075,42.16 41.8075,44.14 C41.8075,46.03 42.7525,46.93 46.3075,48.55 C49.3675,49.945 50.8525,50.845 52.0675,51.925 C53.7325,53.41 54.7225,55.75 54.7225,58.135 C54.7225,62.545 51.8875,66.19 47.4775,67.36 L47.4775,69.7 C47.4775,71.095 47.2525,71.365 46.2625,71.365 L45.3175,71.365 C44.3275,71.365 44.1025,71.095 44.1025,69.7 L44.1025,67.45 C40.9525,66.955 38.4325,65.47 37.0825,63.31 C36.3625,62.23 35.5525,60.115 35.5525,59.395 C35.5525,58.765 35.8225,58.54 36.9925,58.315 L38.0725,58.09 C38.4325,58 38.7925,57.955 38.9725,57.955 C39.4675,57.955 39.7375,58.225 39.9175,58.81 C40.8175,61.69 42.6625,63.175 45.2725,63.175 C48.1525,63.175 50.2675,61.105 50.2675,58.27 C50.2675,55.705 49.0975,54.535 44.2825,52.375 C41.4925,51.115 40.7725,50.665 39.7375,49.72 C38.3425,48.325 37.4425,46.255 37.4425,44.185 C37.4425,40.495 39.8725,37.705 44.1025,36.58 L44.1025,34.42 C44.1025,33.025 44.3275,32.755 45.3175,32.755 L46.2625,32.755 C47.2525,32.755 47.4775,33.025 47.4775,34.42 Z M63.9025,64.255 L70.1125,55.795 C69.3475,55.885 69.0325,55.93 68.4925,55.93 C63.5875,55.93 59.5375,51.655 59.5375,46.525 C59.5375,40.99 64.0375,36.49 69.5275,36.49 C75.0175,36.49 79.6975,40.99 79.6975,46.255 C79.6975,48.64 78.7075,51.115 76.7725,53.815 L67.2775,66.73 C66.6925,67.495 66.5125,67.63 66.0625,67.63 C65.7925,67.63 65.5675,67.495 64.9375,67.045 L64.2625,66.55 C63.4975,65.965 63.3625,65.785 63.3625,65.335 C63.3625,65.065 63.4975,64.84 63.9025,64.255 Z M69.6175,40.585 C66.4675,40.585 63.9475,43.105 63.9475,46.3 C63.9475,49.36 66.5125,51.925 69.6175,51.925 C72.7675,51.925 75.2875,49.405 75.2875,46.255 C75.2875,43.105 72.7675,40.585 69.6175,40.585 Z M88.4725,64.255 L94.6825,55.795 C93.9175,55.885 93.6025,55.93 93.0625,55.93 C88.1575,55.93 84.1075,51.655 84.1075,46.525 C84.1075,40.99 88.6075,36.49 94.0975,36.49 C99.5875,36.49 104.2675,40.99 104.2675,46.255 C104.2675,48.64 103.2775,51.115 101.3425,53.815 L91.8475,66.73 C91.2625,67.495 91.0825,67.63 90.6325,67.63 C90.3625,67.63 90.1375,67.495 89.5075,67.045 L88.8325,66.55 C88.0675,65.965 87.9325,65.785 87.9325,65.335 C87.9325,65.065 88.0675,64.84 88.4725,64.255 Z M94.1875,40.585 C91.0375,40.585 88.5175,43.105 88.5175,46.3 C88.5175,49.36 91.0825,51.925 94.1875,51.925 C97.3375,51.925 99.8575,49.405 99.8575,46.255 C99.8575,43.105 97.3375,40.585 94.1875,40.585 Z M26.404,88.864 L26.38,89.656 C27.388,88.504 28.444,88 29.836,88 C32.62,88 34.636,90.232 34.636,93.28 C34.636,96.28 32.62,98.488 29.884,98.488 C28.468,98.488 27.388,97.984 26.404,96.808 L26.404,103.192 C26.404,103.744 26.332,103.816 25.78,103.816 L25.324,103.816 C24.772,103.816 24.7,103.744 24.7,103.192 L24.7,88.864 C24.7,88.312 24.772,88.24 25.324,88.24 L25.78,88.24 C26.332,88.24 26.404,88.312 26.404,88.864 Z M29.596,89.56 C27.676,89.56 26.284,91.12 26.284,93.28 C26.284,95.416 27.676,96.928 29.644,96.928 C31.516,96.928 32.884,95.368 32.884,93.208 C32.884,91.12 31.468,89.56 29.596,89.56 Z M45.58,93.568 L38.428,93.568 C38.524,95.608 39.796,96.928 41.596,96.928 C42.748,96.928 43.756,96.352 44.38,95.296 C44.548,95.032 44.62,94.984 44.812,94.984 C44.86,94.984 45.004,95.032 45.196,95.152 L45.556,95.344 C45.892,95.536 45.964,95.608 45.964,95.8 C45.964,95.896 45.916,95.992 45.82,96.136 C44.812,97.696 43.348,98.488 41.524,98.488 C38.644,98.488 36.628,96.352 36.628,93.28 C36.628,90.16 38.596,88.024 41.452,88.024 C44.26,88.024 46.204,90.112 46.204,93.136 C46.204,93.472 46.06,93.568 45.58,93.568 Z M38.548,92.128 L44.404,92.128 C44.092,90.568 42.94,89.56 41.476,89.56 C40.036,89.56 38.788,90.64 38.548,92.128 Z M50.524,88.864 L50.524,89.32 C51.412,88.264 51.844,88 52.804,88 C53.548,88 54.196,88.264 54.172,88.576 C54.172,88.648 54.1,88.792 54.004,88.984 L53.788,89.392 C53.596,89.752 53.524,89.824 53.332,89.824 C53.26,89.824 53.212,89.8 53.092,89.728 C52.948,89.68 52.756,89.632 52.54,89.632 C51.844,89.632 51.196,89.992 50.908,90.544 C50.644,91.024 50.524,91.744 50.524,92.944 L50.524,97.576 C50.524,98.128 50.452,98.2 49.9,98.2 L49.444,98.2 C48.892,98.2 48.82,98.128 48.82,97.576 L48.82,88.864 C48.82,88.312 48.892,88.24 49.444,88.24 L49.9,88.24 C50.452,88.24 50.524,88.312 50.524,88.864 Z M63.604,88.864 L63.604,89.32 C64.3,88.384 65.02,88 66.076,88 C67.276,88 68.236,88.576 68.812,89.608 C69.412,88.552 70.42,88 71.716,88 C72.868,88 73.876,88.504 74.404,89.344 C74.788,89.968 74.956,90.688 74.956,91.888 L74.956,97.576 C74.956,98.128 74.884,98.2 74.332,98.2 L73.876,98.2 C73.324,98.2 73.252,98.128 73.252,97.576 L73.252,92.152 C73.252,90.328 72.724,89.56 71.452,89.56 C70.012,89.56 69.316,90.592 69.316,92.68 L69.316,97.576 C69.316,98.128 69.244,98.2 68.692,98.2 L68.236,98.2 C67.684,98.2 67.612,98.128 67.612,97.576 L67.612,92.296 C67.612,90.472 66.988,89.56 65.764,89.56 C65.02,89.56 64.3,89.992 63.964,90.64 C63.724,91.12 63.604,91.816 63.604,92.776 L63.604,97.576 C63.604,98.128 63.532,98.2 62.98,98.2 L62.524,98.2 C61.972,98.2 61.9,98.128 61.9,97.576 L61.9,88.864 C61.9,88.312 61.972,88.24 62.524,88.24 L62.98,88.24 C63.532,88.24 63.604,88.312 63.604,88.864 Z M82.852,88.024 C85.804,88.024 88.108,90.304 88.108,93.256 C88.108,96.208 85.804,98.488 82.804,98.488 C79.852,98.488 77.572,96.16 77.572,93.16 C77.572,90.328 79.948,88.024 82.852,88.024 Z M82.804,89.584 C80.764,89.584 79.324,91.144 79.324,93.328 C79.324,95.368 80.836,96.928 82.828,96.928 C84.868,96.928 86.356,95.392 86.356,93.256 C86.356,91.096 84.892,89.584 82.804,89.584 Z M92.428,88.864 L92.428,89.44 C93.292,88.384 94.06,88 95.308,88 C96.508,88 97.612,88.528 98.164,89.368 C98.548,89.992 98.716,90.736 98.716,92.032 L98.716,97.576 C98.716,98.128 98.644,98.2 98.092,98.2 L97.636,98.2 C97.084,98.2 97.012,98.128 97.012,97.576 L97.012,92.32 C97.012,91.264 96.94,90.784 96.676,90.376 C96.364,89.848 95.716,89.536 94.9,89.536 C93.172,89.536 92.428,90.64 92.428,93.232 L92.428,97.576 C92.428,98.128 92.356,98.2 91.804,98.2 L91.348,98.2 C90.796,98.2 90.724,98.128 90.724,97.576 L90.724,88.864 C90.724,88.312 90.796,88.24 91.348,88.24 L91.804,88.24 C92.356,88.24 92.428,88.312 92.428,88.864 Z M103.684,89.824 L103.684,97.576 C103.684,98.128 103.612,98.2 103.06,98.2 L102.604,98.2 C102.052,98.2 101.98,98.128 101.98,97.576 L101.98,89.824 L101.572,89.824 C101.02,89.824 100.948,89.752 100.948,89.2 L100.948,88.864 C100.948,88.312 101.02,88.24 101.572,88.24 L101.98,88.24 L101.98,85.264 C101.98,84.712 102.052,84.64 102.604,84.64 L103.06,84.64 C103.612,84.64 103.684,84.712 103.684,85.264 L103.684,88.24 L104.836,88.24 C105.388,88.24 105.46,88.312 105.46,88.864 L105.46,89.2 C105.46,89.752 105.388,89.824 104.836,89.824 L103.684,89.824 Z M109.012,81.328 L109.012,89.416 C109.852,88.408 110.668,88.024 111.868,88.024 C113.068,88.024 114.172,88.552 114.724,89.392 C115.132,90.016 115.3,90.736 115.3,92.032 L115.3,97.576 C115.3,98.128 115.228,98.2 114.676,98.2 L114.22,98.2 C113.668,98.2 113.596,98.128 113.596,97.576 L113.596,92.152 C113.596,90.328 112.996,89.584 111.532,89.584 C110.548,89.584 109.78,90.016 109.42,90.76 C109.132,91.336 109.012,92.056 109.012,93.232 L109.012,97.576 C109.012,98.128 108.94,98.2 108.388,98.2 L107.932,98.2 C107.38,98.2 107.308,98.128 107.308,97.576 L107.308,81.328 C107.308,80.776 107.38,80.704 107.932,80.704 L108.388,80.704 C108.94,80.704 109.012,80.776 109.012,81.328 Z" id="$99-per-month" fill="#4A4A4A"></path>
        </g>
    </g>
</svg>