<?xml version="1.0" encoding="UTF-8"?>
<svg width="140px" height="140px" viewBox="0 0 140 140" version="1.1" xmlns="http://www.w3.org/2000/svg" xmlns:xlink="http://www.w3.org/1999/xlink">
    <!-- Generator: Sketch 51.3 (57544) - http://www.bohemiancoding.com/sketch -->
    <title>Group 4</title>
    <desc>Created with Sketch.</desc>
    <defs></defs>
    <g id="Page-1" stroke="none" stroke-width="1" fill="none" fill-rule="evenodd">
        <g id="Group-4">
            <circle id="Oval-2" fill="#B9F8D8" fill-rule="nonzero" cx="70" cy="70" r="70"></circle>
            <path d="M58.7625,34.42 L58.7625,36.58 C61.3275,36.985 63.2175,38.2 64.5675,40.36 C64.8375,40.765 64.9275,41.035 64.9275,41.26 C64.9275,41.755 64.7475,41.935 63.8475,42.43 L62.9025,42.97 C62.8125,43.015 62.6775,43.105 62.5425,43.15 C62.2275,43.33 62.0475,43.42 61.8675,43.42 C61.4175,43.42 61.1925,43.24 60.8775,42.7 C60.1125,41.44 58.6275,40.63 57.0075,40.63 C54.8025,40.63 53.0925,42.16 53.0925,44.14 C53.0925,46.03 54.0375,46.93 57.5925,48.55 C60.6525,49.945 62.1375,50.845 63.3525,51.925 C65.0175,53.41 66.0075,55.75 66.0075,58.135 C66.0075,62.545 63.1725,66.19 58.7625,67.36 L58.7625,69.7 C58.7625,71.095 58.5375,71.365 57.5475,71.365 L56.6025,71.365 C55.6125,71.365 55.3875,71.095 55.3875,69.7 L55.3875,67.45 C52.2375,66.955 49.7175,65.47 48.3675,63.31 C47.6475,62.23 46.8375,60.115 46.8375,59.395 C46.8375,58.765 47.1075,58.54 48.2775,58.315 L49.3575,58.09 C49.7175,58 50.0775,57.955 50.2575,57.955 C50.7525,57.955 51.0225,58.225 51.2025,58.81 C52.1025,61.69 53.9475,63.175 56.5575,63.175 C59.4375,63.175 61.5525,61.105 61.5525,58.27 C61.5525,55.705 60.3825,54.535 55.5675,52.375 C52.7775,51.115 52.0575,50.665 51.0225,49.72 C49.6275,48.325 48.7275,46.255 48.7275,44.185 C48.7275,40.495 51.1575,37.705 55.3875,36.58 L55.3875,34.42 C55.3875,33.025 55.6125,32.755 56.6025,32.755 L57.5475,32.755 C58.5375,32.755 58.7625,33.025 58.7625,34.42 Z M75.1875,64.255 L81.3975,55.795 C80.6325,55.885 80.3175,55.93 79.7775,55.93 C74.8725,55.93 70.8225,51.655 70.8225,46.525 C70.8225,40.99 75.3225,36.49 80.8125,36.49 C86.3025,36.49 90.9825,40.99 90.9825,46.255 C90.9825,48.64 89.9925,51.115 88.0575,53.815 L78.5625,66.73 C77.9775,67.495 77.7975,67.63 77.3475,67.63 C77.0775,67.63 76.8525,67.495 76.2225,67.045 L75.5475,66.55 C74.7825,65.965 74.6475,65.785 74.6475,65.335 C74.6475,65.065 74.7825,64.84 75.1875,64.255 Z M80.9025,40.585 C77.7525,40.585 75.2325,43.105 75.2325,46.3 C75.2325,49.36 77.7975,51.925 80.9025,51.925 C84.0525,51.925 86.5725,49.405 86.5725,46.255 C86.5725,43.105 84.0525,40.585 80.9025,40.585 Z M25.404,88.864 L25.38,89.656 C26.388,88.504 27.444,88 28.836,88 C31.62,88 33.636,90.232 33.636,93.28 C33.636,96.28 31.62,98.488 28.884,98.488 C27.468,98.488 26.388,97.984 25.404,96.808 L25.404,103.192 C25.404,103.744 25.332,103.816 24.78,103.816 L24.324,103.816 C23.772,103.816 23.7,103.744 23.7,103.192 L23.7,88.864 C23.7,88.312 23.772,88.24 24.324,88.24 L24.78,88.24 C25.332,88.24 25.404,88.312 25.404,88.864 Z M28.596,89.56 C26.676,89.56 25.284,91.12 25.284,93.28 C25.284,95.416 26.676,96.928 28.644,96.928 C30.516,96.928 31.884,95.368 31.884,93.208 C31.884,91.12 30.468,89.56 28.596,89.56 Z M44.58,93.568 L37.428,93.568 C37.524,95.608 38.796,96.928 40.596,96.928 C41.748,96.928 42.756,96.352 43.38,95.296 C43.548,95.032 43.62,94.984 43.812,94.984 C43.86,94.984 44.004,95.032 44.196,95.152 L44.556,95.344 C44.892,95.536 44.964,95.608 44.964,95.8 C44.964,95.896 44.916,95.992 44.82,96.136 C43.812,97.696 42.348,98.488 40.524,98.488 C37.644,98.488 35.628,96.352 35.628,93.28 C35.628,90.16 37.596,88.024 40.452,88.024 C43.26,88.024 45.204,90.112 45.204,93.136 C45.204,93.472 45.06,93.568 44.58,93.568 Z M37.548,92.128 L43.404,92.128 C43.092,90.568 41.94,89.56 40.476,89.56 C39.036,89.56 37.788,90.64 37.548,92.128 Z M49.524,88.864 L49.524,89.32 C50.412,88.264 50.844,88 51.804,88 C52.548,88 53.196,88.264 53.172,88.576 C53.172,88.648 53.1,88.792 53.004,88.984 L52.788,89.392 C52.596,89.752 52.524,89.824 52.332,89.824 C52.26,89.824 52.212,89.8 52.092,89.728 C51.948,89.68 51.756,89.632 51.54,89.632 C50.844,89.632 50.196,89.992 49.908,90.544 C49.644,91.024 49.524,91.744 49.524,92.944 L49.524,97.576 C49.524,98.128 49.452,98.2 48.9,98.2 L48.444,98.2 C47.892,98.2 47.82,98.128 47.82,97.576 L47.82,88.864 C47.82,88.312 47.892,88.24 48.444,88.24 L48.9,88.24 C49.452,88.24 49.524,88.312 49.524,88.864 Z M62.604,88.864 L62.604,89.32 C63.3,88.384 64.02,88 65.076,88 C66.276,88 67.236,88.576 67.812,89.608 C68.412,88.552 69.42,88 70.716,88 C71.868,88 72.876,88.504 73.404,89.344 C73.788,89.968 73.956,90.688 73.956,91.888 L73.956,97.576 C73.956,98.128 73.884,98.2 73.332,98.2 L72.876,98.2 C72.324,98.2 72.252,98.128 72.252,97.576 L72.252,92.152 C72.252,90.328 71.724,89.56 70.452,89.56 C69.012,89.56 68.316,90.592 68.316,92.68 L68.316,97.576 C68.316,98.128 68.244,98.2 67.692,98.2 L67.236,98.2 C66.684,98.2 66.612,98.128 66.612,97.576 L66.612,92.296 C66.612,90.472 65.988,89.56 64.764,89.56 C64.02,89.56 63.3,89.992 62.964,90.64 C62.724,91.12 62.604,91.816 62.604,92.776 L62.604,97.576 C62.604,98.128 62.532,98.2 61.98,98.2 L61.524,98.2 C60.972,98.2 60.9,98.128 60.9,97.576 L60.9,88.864 C60.9,88.312 60.972,88.24 61.524,88.24 L61.98,88.24 C62.532,88.24 62.604,88.312 62.604,88.864 Z M81.852,88.024 C84.804,88.024 87.108,90.304 87.108,93.256 C87.108,96.208 84.804,98.488 81.804,98.488 C78.852,98.488 76.572,96.16 76.572,93.16 C76.572,90.328 78.948,88.024 81.852,88.024 Z M81.804,89.584 C79.764,89.584 78.324,91.144 78.324,93.328 C78.324,95.368 79.836,96.928 81.828,96.928 C83.868,96.928 85.356,95.392 85.356,93.256 C85.356,91.096 83.892,89.584 81.804,89.584 Z M91.428,88.864 L91.428,89.44 C92.292,88.384 93.06,88 94.308,88 C95.508,88 96.612,88.528 97.164,89.368 C97.548,89.992 97.716,90.736 97.716,92.032 L97.716,97.576 C97.716,98.128 97.644,98.2 97.092,98.2 L96.636,98.2 C96.084,98.2 96.012,98.128 96.012,97.576 L96.012,92.32 C96.012,91.264 95.94,90.784 95.676,90.376 C95.364,89.848 94.716,89.536 93.9,89.536 C92.172,89.536 91.428,90.64 91.428,93.232 L91.428,97.576 C91.428,98.128 91.356,98.2 90.804,98.2 L90.348,98.2 C89.796,98.2 89.724,98.128 89.724,97.576 L89.724,88.864 C89.724,88.312 89.796,88.24 90.348,88.24 L90.804,88.24 C91.356,88.24 91.428,88.312 91.428,88.864 Z M102.684,89.824 L102.684,97.576 C102.684,98.128 102.612,98.2 102.06,98.2 L101.604,98.2 C101.052,98.2 100.98,98.128 100.98,97.576 L100.98,89.824 L100.572,89.824 C100.02,89.824 99.948,89.752 99.948,89.2 L99.948,88.864 C99.948,88.312 100.02,88.24 100.572,88.24 L100.98,88.24 L100.98,85.264 C100.98,84.712 101.052,84.64 101.604,84.64 L102.06,84.64 C102.612,84.64 102.684,84.712 102.684,85.264 L102.684,88.24 L103.836,88.24 C104.388,88.24 104.46,88.312 104.46,88.864 L104.46,89.2 C104.46,89.752 104.388,89.824 103.836,89.824 L102.684,89.824 Z M108.012,81.328 L108.012,89.416 C108.852,88.408 109.668,88.024 110.868,88.024 C112.068,88.024 113.172,88.552 113.724,89.392 C114.132,90.016 114.3,90.736 114.3,92.032 L114.3,97.576 C114.3,98.128 114.228,98.2 113.676,98.2 L113.22,98.2 C112.668,98.2 112.596,98.128 112.596,97.576 L112.596,92.152 C112.596,90.328 111.996,89.584 110.532,89.584 C109.548,89.584 108.78,90.016 108.42,90.76 C108.132,91.336 108.012,92.056 108.012,93.232 L108.012,97.576 C108.012,98.128 107.94,98.2 107.388,98.2 L106.932,98.2 C106.38,98.2 106.308,98.128 106.308,97.576 L106.308,81.328 C106.308,80.776 106.38,80.704 106.932,80.704 L107.388,80.704 C107.94,80.704 108.012,80.776 108.012,81.328 Z" id="$9-per-month" fill="#4A4A4A"></path>
        </g>
    </g>
</svg>