<?xml version="1.0" encoding="UTF-8"?>
<svg width="140px" height="140px" viewBox="0 0 140 140" version="1.1" xmlns="http://www.w3.org/2000/svg" xmlns:xlink="http://www.w3.org/1999/xlink">
    <!-- Generator: Sketch 51.3 (57544) - http://www.bohemiancoding.com/sketch -->
    <title>Group</title>
    <desc>Created with Sketch.</desc>
    <defs></defs>
    <g id="Page-1" stroke="none" stroke-width="1" fill="none" fill-rule="evenodd">
        <g id="Group">
            <circle id="Oval-2-Copy-3" fill="#F8EDB9" fill-rule="nonzero" cx="70" cy="70" r="70"></circle>
            <path d="M45.638,27.484 L45.638,28.212 C45.638,28.654 45.508,28.836 45.222,28.836 C45.144,28.836 45.04,28.784 44.91,28.68 C43.922,27.926 43.22,27.666 42.258,27.666 C40.074,27.666 38.436,29.382 38.436,31.644 C38.436,33.932 40.074,35.622 42.232,35.622 C43.246,35.622 43.922,35.362 44.988,34.504 C45.118,34.426 45.222,34.374 45.3,34.374 C45.586,34.374 45.716,34.582 45.716,34.972 L45.716,35.7 C45.716,36.09 45.69,36.168 45.56,36.272 C44.754,36.896 43.402,37.312 42.284,37.312 C39.034,37.312 36.538,34.842 36.538,31.67 C36.538,28.446 39.034,25.976 42.284,25.976 C43.454,25.976 44.832,26.392 45.482,26.912 C45.612,27.016 45.638,27.094 45.638,27.484 Z M50.006,26.886 L50.006,32.502 C50.006,33.516 50.11,34.062 50.344,34.53 C50.708,35.206 51.514,35.622 52.45,35.622 C53.36,35.622 54.166,35.206 54.53,34.53 C54.764,34.062 54.868,33.516 54.868,32.502 L54.868,26.886 C54.868,26.288 54.946,26.21 55.544,26.21 L56.038,26.21 C56.636,26.21 56.714,26.288 56.714,26.886 L56.714,32.71 C56.714,34.296 56.454,35.154 55.726,35.96 C54.946,36.844 53.776,37.312 52.45,37.312 C51.098,37.312 49.928,36.844 49.148,35.96 C48.42,35.154 48.16,34.296 48.16,32.71 L48.16,26.886 C48.16,26.288 48.238,26.21 48.836,26.21 L49.33,26.21 C49.928,26.21 50.006,26.288 50.006,26.886 Z M65.58,28.238 L65.242,28.42 C64.982,28.55 64.852,28.602 64.8,28.602 C64.67,28.602 64.618,28.55 64.462,28.368 C64.15,27.952 63.604,27.666 63.136,27.666 C62.434,27.666 61.836,28.212 61.836,28.862 C61.836,29.486 62.2,29.824 63.578,30.396 C64.852,30.916 65.164,31.072 65.658,31.436 C66.438,32.008 66.854,32.814 66.854,33.802 C66.854,35.804 65.268,37.312 63.162,37.312 C61.784,37.312 60.536,36.636 59.834,35.518 C59.626,35.18 59.496,34.92 59.496,34.764 C59.496,34.556 59.6,34.478 59.99,34.296 L60.406,34.14 C60.614,34.036 60.77,33.984 60.848,33.984 C61.004,33.984 61.082,34.062 61.29,34.426 C61.68,35.18 62.382,35.622 63.162,35.622 C64.202,35.622 64.956,34.894 64.956,33.932 C64.956,33.1 64.592,32.71 63.188,32.138 C60.692,31.046 60.068,30.422 60.068,28.992 C60.068,27.276 61.42,25.976 63.214,25.976 C64.332,25.976 65.45,26.6 65.918,27.458 C65.996,27.588 66.022,27.666 66.022,27.77 C66.022,27.952 65.944,28.056 65.58,28.238 Z M71.352,27.926 L71.352,36.324 C71.352,36.922 71.274,37 70.676,37 L70.182,37 C69.584,37 69.506,36.922 69.506,36.324 L69.506,27.926 L69.064,27.926 C68.466,27.926 68.388,27.848 68.388,27.25 L68.388,26.886 C68.388,26.288 68.466,26.21 69.064,26.21 L69.506,26.21 L69.506,22.986 C69.506,22.388 69.584,22.31 70.182,22.31 L70.676,22.31 C71.274,22.31 71.352,22.388 71.352,22.986 L71.352,26.21 L72.6,26.21 C73.198,26.21 73.276,26.288 73.276,26.886 L73.276,27.25 C73.276,27.848 73.198,27.926 72.6,27.926 L71.352,27.926 Z M80.088,25.976 C83.286,25.976 85.782,28.446 85.782,31.644 C85.782,34.842 83.286,37.312 80.036,37.312 C76.838,37.312 74.368,34.79 74.368,31.54 C74.368,28.472 76.942,25.976 80.088,25.976 Z M80.036,27.666 C77.826,27.666 76.266,29.356 76.266,31.722 C76.266,33.932 77.904,35.622 80.062,35.622 C82.272,35.622 83.884,33.958 83.884,31.644 C83.884,29.304 82.298,27.666 80.036,27.666 Z M90.462,26.886 L90.462,27.38 C91.216,26.366 91.996,25.95 93.14,25.95 C94.44,25.95 95.48,26.574 96.104,27.692 C96.754,26.548 97.846,25.95 99.25,25.95 C100.498,25.95 101.59,26.496 102.162,27.406 C102.578,28.082 102.76,28.862 102.76,30.162 L102.76,36.324 C102.76,36.922 102.682,37 102.084,37 L101.59,37 C100.992,37 100.914,36.922 100.914,36.324 L100.914,30.448 C100.914,28.472 100.342,27.64 98.964,27.64 C97.404,27.64 96.65,28.758 96.65,31.02 L96.65,36.324 C96.65,36.922 96.572,37 95.974,37 L95.48,37 C94.882,37 94.804,36.922 94.804,36.324 L94.804,30.604 C94.804,28.628 94.128,27.64 92.802,27.64 C91.996,27.64 91.216,28.108 90.852,28.81 C90.592,29.33 90.462,30.084 90.462,31.124 L90.462,36.324 C90.462,36.922 90.384,37 89.786,37 L89.292,37 C88.694,37 88.616,36.922 88.616,36.324 L88.616,26.886 C88.616,26.288 88.694,26.21 89.292,26.21 L89.786,26.21 C90.384,26.21 90.462,26.288 90.462,26.886 Z M33.6,54.176 C36.798,54.176 39.294,56.646 39.294,59.844 C39.294,63.042 36.798,65.512 33.548,65.512 C30.35,65.512 27.88,62.99 27.88,59.74 C27.88,56.672 30.454,54.176 33.6,54.176 Z M33.548,55.866 C31.338,55.866 29.778,57.556 29.778,59.922 C29.778,62.132 31.416,63.822 33.574,63.822 C35.784,63.822 37.396,62.158 37.396,59.844 C37.396,57.504 35.81,55.866 33.548,55.866 Z M43.974,55.086 L43.974,55.71 C44.91,54.566 45.742,54.15 47.094,54.15 C48.394,54.15 49.59,54.722 50.188,55.632 C50.604,56.308 50.786,57.114 50.786,58.518 L50.786,64.524 C50.786,65.122 50.708,65.2 50.11,65.2 L49.616,65.2 C49.018,65.2 48.94,65.122 48.94,64.524 L48.94,58.83 C48.94,57.686 48.862,57.166 48.576,56.724 C48.238,56.152 47.536,55.814 46.652,55.814 C44.78,55.814 43.974,57.01 43.974,59.818 L43.974,64.524 C43.974,65.122 43.896,65.2 43.298,65.2 L42.804,65.2 C42.206,65.2 42.128,65.122 42.128,64.524 L42.128,55.086 C42.128,54.488 42.206,54.41 42.804,54.41 L43.298,54.41 C43.896,54.41 43.974,54.488 43.974,55.086 Z M63.318,60.182 L55.57,60.182 C55.674,62.392 57.052,63.822 59.002,63.822 C60.25,63.822 61.342,63.198 62.018,62.054 C62.2,61.768 62.278,61.716 62.486,61.716 C62.538,61.716 62.694,61.768 62.902,61.898 L63.292,62.106 C63.656,62.314 63.734,62.392 63.734,62.6 C63.734,62.704 63.682,62.808 63.578,62.964 C62.486,64.654 60.9,65.512 58.924,65.512 C55.804,65.512 53.62,63.198 53.62,59.87 C53.62,56.49 55.752,54.176 58.846,54.176 C61.888,54.176 63.994,56.438 63.994,59.714 C63.994,60.078 63.838,60.182 63.318,60.182 Z M55.7,58.622 L62.044,58.622 C61.706,56.932 60.458,55.84 58.872,55.84 C57.312,55.84 55.96,57.01 55.7,58.622 Z M66.88,58.83 L70.234,58.83 C70.832,58.83 70.91,58.908 70.91,59.506 L70.91,59.818 C70.91,60.416 70.832,60.494 70.234,60.494 L66.88,60.494 C66.282,60.494 66.204,60.416 66.204,59.818 L66.204,59.506 C66.204,58.908 66.282,58.83 66.88,58.83 Z M75.486,56.126 L75.486,64.524 C75.486,65.122 75.408,65.2 74.81,65.2 L74.316,65.2 C73.718,65.2 73.64,65.122 73.64,64.524 L73.64,56.126 L73.198,56.126 C72.6,56.126 72.522,56.048 72.522,55.45 L72.522,55.086 C72.522,54.488 72.6,54.41 73.198,54.41 L73.64,54.41 L73.64,51.186 C73.64,50.588 73.718,50.51 74.316,50.51 L74.81,50.51 C75.408,50.51 75.486,50.588 75.486,51.186 L75.486,54.41 L76.734,54.41 C77.332,54.41 77.41,54.488 77.41,55.086 L77.41,55.45 C77.41,56.048 77.332,56.126 76.734,56.126 L75.486,56.126 Z M81.206,55.086 L81.206,64.524 C81.206,65.122 81.128,65.2 80.53,65.2 L80.036,65.2 C79.438,65.2 79.36,65.122 79.36,64.524 L79.36,55.086 C79.36,54.488 79.438,54.41 80.036,54.41 L80.53,54.41 C81.128,54.41 81.206,54.488 81.206,55.086 Z M80.296,49.002 C81.024,49.002 81.622,49.6 81.622,50.328 C81.622,51.056 81.024,51.654 80.296,51.654 C79.568,51.654 78.97,51.056 78.97,50.302 C78.97,49.6 79.568,49.002 80.296,49.002 Z M86.614,55.086 L86.614,55.58 C87.368,54.566 88.148,54.15 89.292,54.15 C90.592,54.15 91.632,54.774 92.256,55.892 C92.906,54.748 93.998,54.15 95.402,54.15 C96.65,54.15 97.742,54.696 98.314,55.606 C98.73,56.282 98.912,57.062 98.912,58.362 L98.912,64.524 C98.912,65.122 98.834,65.2 98.236,65.2 L97.742,65.2 C97.144,65.2 97.066,65.122 97.066,64.524 L97.066,58.648 C97.066,56.672 96.494,55.84 95.116,55.84 C93.556,55.84 92.802,56.958 92.802,59.22 L92.802,64.524 C92.802,65.122 92.724,65.2 92.126,65.2 L91.632,65.2 C91.034,65.2 90.956,65.122 90.956,64.524 L90.956,58.804 C90.956,56.828 90.28,55.84 88.954,55.84 C88.148,55.84 87.368,56.308 87.004,57.01 C86.744,57.53 86.614,58.284 86.614,59.324 L86.614,64.524 C86.614,65.122 86.536,65.2 85.938,65.2 L85.444,65.2 C84.846,65.2 84.768,65.122 84.768,64.524 L84.768,55.086 C84.768,54.488 84.846,54.41 85.444,54.41 L85.938,54.41 C86.536,54.41 86.614,54.488 86.614,55.086 Z M111.444,60.182 L103.696,60.182 C103.8,62.392 105.178,63.822 107.128,63.822 C108.376,63.822 109.468,63.198 110.144,62.054 C110.326,61.768 110.404,61.716 110.612,61.716 C110.664,61.716 110.82,61.768 111.028,61.898 L111.418,62.106 C111.782,62.314 111.86,62.392 111.86,62.6 C111.86,62.704 111.808,62.808 111.704,62.964 C110.612,64.654 109.026,65.512 107.05,65.512 C103.93,65.512 101.746,63.198 101.746,59.87 C101.746,56.49 103.878,54.176 106.972,54.176 C110.014,54.176 112.12,56.438 112.12,59.714 C112.12,60.078 111.964,60.182 111.444,60.182 Z M103.826,58.622 L110.17,58.622 C109.832,56.932 108.584,55.84 106.998,55.84 C105.438,55.84 104.086,57.01 103.826,58.622 Z M30.064,83.2860001 L30.038,84.1440001 C31.13,82.8960001 32.274,82.3500001 33.782,82.3500001 C36.798,82.3500001 38.982,84.7680001 38.982,88.0700001 C38.982,91.3200001 36.798,93.7120001 33.834,93.7120001 C32.3,93.7120001 31.13,93.1660001 30.064,91.8920001 L30.064,98.8080001 C30.064,99.4060001 29.986,99.4840001 29.388,99.4840001 L28.894,99.4840001 C28.296,99.4840001 28.218,99.4060001 28.218,98.8080001 L28.218,83.2860001 C28.218,82.6880001 28.296,82.6100001 28.894,82.6100001 L29.388,82.6100001 C29.986,82.6100001 30.064,82.6880001 30.064,83.2860001 Z M33.522,84.0400001 C31.442,84.0400001 29.934,85.7300001 29.934,88.0700001 C29.934,90.3840001 31.442,92.0220001 33.574,92.0220001 C35.602,92.0220001 37.084,90.3320001 37.084,87.9920001 C37.084,85.7300001 35.55,84.0400001 33.522,84.0400001 Z M50.058,92.7240001 L50.058,91.8920001 C49.018,93.1400001 47.874,93.7120001 46.34,93.7120001 C43.324,93.7120001 41.14,91.2940001 41.14,87.9660001 C41.14,84.7160001 43.324,82.3500001 46.288,82.3500001 C47.848,82.3500001 48.992,82.8960001 50.058,84.1440001 L50.058,83.2860001 C50.058,82.6880001 50.136,82.6100001 50.76,82.6100001 L51.254,82.6100001 C51.852,82.6100001 51.93,82.6880001 51.93,83.2860001 L51.93,92.7240001 C51.93,93.3220001 51.852,93.4000001 51.254,93.4000001 L50.76,93.4000001 C50.136,93.4000001 50.058,93.3220001 50.058,92.7240001 Z M46.574,84.0400001 C44.52,84.0400001 43.038,85.7300001 43.038,88.0700001 C43.038,90.3060001 44.572,92.0220001 46.6,92.0220001 C48.68,92.0220001 50.188,90.3320001 50.188,87.9920001 C50.188,85.6520001 48.706,84.0400001 46.574,84.0400001 Z M58.82,92.3860001 L54.27,83.4420001 C54.166,83.2340001 54.114,83.0520001 54.114,82.9740001 C54.114,82.7140001 54.322,82.6100001 54.79,82.6100001 L55.466,82.6100001 C56.012,82.6100001 56.012,82.6100001 56.246,83.0780001 L59.808,90.3320001 L63.084,83.1040001 C63.318,82.6100001 63.318,82.6100001 63.838,82.6100001 L64.488,82.6100001 C64.956,82.6100001 65.164,82.7400001 65.164,82.9740001 C65.164,83.0780001 65.112,83.2340001 65.008,83.4420001 L57.65,99.0160001 C57.416,99.4840001 57.416,99.4840001 56.896,99.4840001 L56.246,99.4840001 C55.778,99.4840001 55.57,99.3800001 55.57,99.1200001 C55.57,99.0420001 55.622,98.8600001 55.726,98.6520001 L58.82,92.3860001 Z M69.22,83.2860001 L69.22,83.7800001 C69.974,82.7660001 70.754,82.3500001 71.898,82.3500001 C73.198,82.3500001 74.238,82.9740001 74.862,84.0920001 C75.512,82.9480001 76.604,82.3500001 78.008,82.3500001 C79.256,82.3500001 80.348,82.8960001 80.92,83.8060001 C81.336,84.4820001 81.518,85.2620001 81.518,86.5620001 L81.518,92.7240001 C81.518,93.3220001 81.44,93.4000001 80.842,93.4000001 L80.348,93.4000001 C79.75,93.4000001 79.672,93.3220001 79.672,92.7240001 L79.672,86.8480001 C79.672,84.8720001 79.1,84.0400001 77.722,84.0400001 C76.162,84.0400001 75.408,85.1580001 75.408,87.4200001 L75.408,92.7240001 C75.408,93.3220001 75.33,93.4000001 74.732,93.4000001 L74.238,93.4000001 C73.64,93.4000001 73.562,93.3220001 73.562,92.7240001 L73.562,87.0040001 C73.562,85.0280001 72.886,84.0400001 71.56,84.0400001 C70.754,84.0400001 69.974,84.5080001 69.61,85.2100001 C69.35,85.7300001 69.22,86.4840001 69.22,87.5240001 L69.22,92.7240001 C69.22,93.3220001 69.142,93.4000001 68.544,93.4000001 L68.05,93.4000001 C67.452,93.4000001 67.374,93.3220001 67.374,92.7240001 L67.374,83.2860001 C67.374,82.6880001 67.452,82.6100001 68.05,82.6100001 L68.544,82.6100001 C69.142,82.6100001 69.22,82.6880001 69.22,83.2860001 Z M94.05,88.3820001 L86.302,88.3820001 C86.406,90.5920001 87.784,92.0220001 89.734,92.0220001 C90.982,92.0220001 92.074,91.3980001 92.75,90.2540001 C92.932,89.9680001 93.01,89.9160001 93.218,89.9160001 C93.27,89.9160001 93.426,89.9680001 93.634,90.0980001 L94.024,90.3060001 C94.388,90.5140001 94.466,90.5920001 94.466,90.8000001 C94.466,90.9040001 94.414,91.0080001 94.31,91.1640001 C93.218,92.8540001 91.632,93.7120001 89.656,93.7120001 C86.536,93.7120001 84.352,91.3980001 84.352,88.0700001 C84.352,84.6900001 86.484,82.3760001 89.578,82.3760001 C92.62,82.3760001 94.726,84.6380001 94.726,87.9140001 C94.726,88.2780001 94.57,88.3820001 94.05,88.3820001 Z M86.432,86.8220001 L92.776,86.8220001 C92.438,85.1320001 91.19,84.0400001 89.604,84.0400001 C88.044,84.0400001 86.692,85.2100001 86.432,86.8220001 Z M99.406,83.2860001 L99.406,83.9100001 C100.342,82.7660001 101.174,82.3500001 102.526,82.3500001 C103.826,82.3500001 105.022,82.9220001 105.62,83.8320001 C106.036,84.5080001 106.218,85.3140001 106.218,86.7180001 L106.218,92.7240001 C106.218,93.3220001 106.14,93.4000001 105.542,93.4000001 L105.048,93.4000001 C104.45,93.4000001 104.372,93.3220001 104.372,92.7240001 L104.372,87.0300001 C104.372,85.8860001 104.294,85.3660001 104.008,84.9240001 C103.67,84.3520001 102.968,84.0140001 102.084,84.0140001 C100.212,84.0140001 99.406,85.2100001 99.406,88.0180001 L99.406,92.7240001 C99.406,93.3220001 99.328,93.4000001 98.73,93.4000001 L98.236,93.4000001 C97.638,93.4000001 97.56,93.3220001 97.56,92.7240001 L97.56,83.2860001 C97.56,82.6880001 97.638,82.6100001 98.236,82.6100001 L98.73,82.6100001 C99.328,82.6100001 99.406,82.6880001 99.406,83.2860001 Z M111.6,84.3260001 L111.6,92.7240001 C111.6,93.3220001 111.522,93.4000001 110.924,93.4000001 L110.43,93.4000001 C109.832,93.4000001 109.754,93.3220001 109.754,92.7240001 L109.754,84.3260001 L109.312,84.3260001 C108.714,84.3260001 108.636,84.2480001 108.636,83.6500001 L108.636,83.2860001 C108.636,82.6880001 108.714,82.6100001 109.312,82.6100001 L109.754,82.6100001 L109.754,79.3860001 C109.754,78.7880001 109.832,78.7100001 110.43,78.7100001 L110.924,78.7100001 C111.522,78.7100001 111.6,78.7880001 111.6,79.3860001 L111.6,82.6100001 L112.848,82.6100001 C113.446,82.6100001 113.524,82.6880001 113.524,83.2860001 L113.524,83.6500001 C113.524,84.2480001 113.446,84.3260001 112.848,84.3260001 L111.6,84.3260001 Z M52.36,105.408 L52.36,113.76 C52.36,115.392 52.456,115.92 52.864,116.616 C53.392,117.528 54.472,118.104 55.672,118.104 C56.872,118.104 57.952,117.528 58.48,116.616 C58.888,115.92 58.984,115.392 58.984,113.76 L58.984,105.408 C58.984,104.664 59.056,104.592 59.8,104.592 L61.288,104.592 C62.032,104.592 62.104,104.664 62.104,105.408 L62.104,114.384 C62.104,116.256 61.744,117.576 60.928,118.656 C59.824,120.096 57.856,120.96 55.672,120.96 C53.488,120.96 51.52,120.096 50.416,118.656 C49.6,117.576 49.24,116.256 49.24,114.384 L49.24,105.408 C49.24,104.664 49.312,104.592 50.056,104.592 L51.544,104.592 C52.288,104.592 52.36,104.664 52.36,105.408 Z M74.584,106.728 L73.984,107.52 C73.672,107.928 73.6,107.976 73.384,107.976 C73.216,107.976 73.216,107.976 72.64,107.496 C72.28,107.184 71.464,106.944 70.84,106.944 C69.568,106.944 68.584,107.736 68.584,108.744 C68.584,109.584 69.136,110.04 71.008,110.736 C72.808,111.384 73.48,111.72 74.224,112.344 C75.16,113.136 75.64,114.288 75.64,115.704 C75.64,118.848 73.384,120.984 70.048,120.984 C68.2,120.984 66.472,120.216 65.248,118.872 C64.864,118.44 64.72,118.2 64.72,118.008 C64.72,117.816 64.744,117.768 65.104,117.408 L65.896,116.64 C66.232,116.328 66.304,116.28 66.472,116.28 C66.64,116.28 66.76,116.352 66.904,116.52 C67.648,117.384 67.648,117.384 68.104,117.648 C68.68,117.96 69.328,118.128 69.976,118.128 C71.392,118.128 72.424,117.168 72.424,115.872 C72.424,115.224 72.136,114.672 71.56,114.264 C71.248,114.048 70.624,113.784 69.328,113.304 C66.424,112.248 65.368,111.096 65.368,108.984 C65.368,106.296 67.48,104.328 70.384,104.328 C71.896,104.328 73.672,104.928 74.68,105.768 C74.8,105.888 74.872,106.008 74.872,106.176 C74.872,106.32 74.824,106.416 74.584,106.728 Z M78.4,119.76 L78.4,105.432 C78.4,104.664 78.472,104.592 79.216,104.592 L82.984,104.592 C85.336,104.592 87.208,105.192 88.72,106.44 C90.52,107.904 91.576,110.184 91.576,112.584 C91.576,114.96 90.496,117.24 88.672,118.752 C87.136,120.048 85.384,120.6 82.96,120.6 L79.216,120.6 C78.472,120.6 78.4,120.528 78.4,119.76 Z M81.52,117.888 L82.36,117.888 C84.376,117.888 85.648,117.504 86.632,116.616 C87.712,115.656 88.36,114.12 88.36,112.584 C88.36,111.048 87.712,109.56 86.632,108.6 C85.6,107.664 84.376,107.304 82.36,107.304 L81.52,107.304 L81.52,117.888 Z" id="custom-one-time-paym" fill="#4A4A4A"></path>
        </g>
    </g>
</svg>