<?xml version="1.0" encoding="iso-8859-1"?>
<!-- Generator: Adobe Illustrator 21.1.0, SVG Export Plug-In . SVG Version: 6.00 Build 0)  -->
<svg version="1.1" id="Layer_1_1_" xmlns="http://www.w3.org/2000/svg" xmlns:xlink="http://www.w3.org/1999/xlink" x="0px" y="0px"
	 viewBox="0 0 64 64" style="enable-background:new 0 0 64 64;" xml:space="preserve">
<path style="fill:#ED903B;" d="M7,55l7,0.064V57c0,2.2,1.8,4,4,4h8c2.2,0,4-1.8,4-4h11c0,2.2,1.8,4,4,4h8c2.2,0,4-1.8,4-4V35
	c0-7.732-6.268-14-14-14c0,0-0.753,0.001-2,0.002l-18,0.033c-3.036,0.009-5.218,0.02-5.347,0.032l-5.597-3.518
	c-1.504-0.945-3.402,0.393-3.017,2.127l1.849,8.322C9.695,30.06,9,37.447,9,40H7c-2.2,0-4,1.8-4,4v7C3,53.2,4.8,55,7,55z M25,26h14
	c1.1,0,2,0.9,2,2c0,1.1-0.9,2-2,2H25c-1.1,0-2-0.9-2-2C23,26.9,23.9,26,25,26z M16,33c1.105,0,2,0.895,2,2c0,1.105-0.895,2-2,2
	s-2-0.895-2-2C14,33.895,14.895,33,16,33z"/>
<path style="fill:#FCF1ED;" d="M25,30h14c1.1,0,2-0.9,2-2c0-1.1-0.9-2-2-2H25c-1.1,0-2,0.9-2,2C23,29.1,23.9,30,25,30z"/>
<circle style="fill:#FCF1ED;" cx="16" cy="35" r="2"/>
<circle style="fill:#F7CC40;" cx="32" cy="8" r="5"/>
<g>
</g>
<path style="fill:#212329;" d="M57,15h-2c-2.757,0-5,2.243-5,5v1.744C47.908,20.635,45.527,20,42.999,20l-2,0.002l0.002,2L43,22
	c7.168,0,13,5.832,13,13v22c0,1.654-1.346,3-3,3h-8c-1.654,0-3-1.346-3-3c0-0.552-0.448-1-1-1H30c-0.552,0-1,0.448-1,1
	c0,1.654-1.346,3-3,3h-8c-1.654,0-3-1.346-3-3v-1.936c0-0.549-0.442-0.995-0.991-1L7,54c-1.654,0-3-1.346-3-3v-7
	c0-1.654,1.346-3,3-3h2c0.552,0,1-0.448,1-1c0-2.826,0.758-9.781,1.754-11.5c0.126-0.217,0.166-0.474,0.111-0.718l-1.85-8.322
	c-0.134-0.604,0.272-0.944,0.4-1.034c0.128-0.09,0.585-0.358,1.109-0.029l5.597,3.518c0.173,0.108,0.391,0.159,0.598,0.151
	c0.116-0.005,0.957-0.017,5.285-0.03l-0.006-2c-3.291,0.01-4.557,0.019-5.066,0.025l-5.342-3.358
	c-1.043-0.656-2.317-0.622-3.326,0.088c-1.007,0.71-1.467,1.899-1.2,3.103l1.771,7.972C8.714,30.301,8.149,36.181,8.026,39H7
	c-2.757,0-5,2.243-5,5v7c0,2.757,2.243,5,4.991,5L13,56.055V57c0,2.757,2.243,5,5,5h8c2.415,0,4.435-1.721,4.899-4h9.201
	c0.464,2.279,2.485,4,4.899,4h8c2.757,0,5-2.243,5-5V35c0-4.892-2.365-9.231-6-11.971V20c0-1.654,1.346-3,3-3h2c1.654,0,3,1.346,3,3
	h2C62,17.243,59.757,15,57,15z"/>
<rect x="6" y="44" style="fill:#212329;" width="2" height="5"/>
<path style="fill:#212329;" d="M22,28c0,1.654,1.346,3,3,3h14c1.654,0,3-1.346,3-3s-1.346-3-3-3H25C23.346,25,22,26.346,22,28z
	 M25,27h14c0.551,0,1,0.449,1,1s-0.449,1-1,1H25c-0.551,0-1-0.449-1-1S24.449,27,25,27z"/>
<path style="fill:#212329;" d="M13,35c0,1.654,1.346,3,3,3s3-1.346,3-3s-1.346-3-3-3S13,33.346,13,35z M17,35c0,0.551-0.449,1-1,1
	s-1-0.449-1-1s0.449-1,1-1S17,34.449,17,35z"/>
<path style="fill:#212329;" d="M32,14c3.309,0,6-2.691,6-6s-2.691-6-6-6s-6,2.691-6,6S28.691,14,32,14z M32,4c2.206,0,4,1.794,4,4
	s-1.794,4-4,4s-4-1.794-4-4S29.794,4,32,4z"/>
<rect x="31" y="17" style="fill:#212329;" width="2" height="6"/>
<rect x="25" y="14" style="fill:#212329;" width="2" height="9"/>
<rect x="37" y="14" style="fill:#212329;" width="2" height="9"/>
</svg>
