<?xml version="1.0" encoding="iso-8859-1"?>
<!-- Generator: Adobe Illustrator 21.0.2, SVG Export Plug-In . SVG Version: 6.00 Build 0)  -->
<svg version="1.1" id="Layer_1_1_" xmlns="http://www.w3.org/2000/svg" xmlns:xlink="http://www.w3.org/1999/xlink" x="0px" y="0px"
	 viewBox="0 0 64 64" style="enable-background:new 0 0 64 64;" xml:space="preserve">
<path style="fill:#DDA137;" d="M57,33h-5h-9c-1.105,0-2-0.895-2-2V21h14V3H32v7h1.555C34.248,8.809,35.523,8,37,8
	c2.209,0,4,1.791,4,4c0,2.209-1.791,4-4,4c-1.477,0-2.752-0.809-3.445-2H32v7h5v10c0,3.314,2.686,6,6,6h4v9l-3,15h5l3-14l3,14h5
	l-3-15h4v-9C61,34.791,59.209,33,57,33z"/>
<circle style="fill:#B53C33;" cx="12" cy="28" r="5"/>
<circle style="fill:#DDA137;" cx="52" cy="28" r="5"/>
<path style="fill:#B53C33;" d="M33.555,14c0.693,1.191,1.968,2,3.445,2c2.209,0,4-1.791,4-4c0-2.209-1.791-4-4-4
	c-1.477,0-2.752,0.809-3.445,2H32V3H9v18h14v10c0,1.105-0.895,2-2,2h-9H7c-2.209,0-4,1.791-4,4v9h4L4,61h5l3-14l3,14h5l-3-15v-9h4
	c3.314,0,6-2.686,6-6V21h5v-7H33.555z"/>
<g>
</g>
<path style="fill:#201F2D;" d="M57,32h-0.54c0.954-1.063,1.54-2.462,1.54-4c0-3.309-2.691-6-6-6s-6,2.691-6,6
	c0,1.538,0.586,2.937,1.54,4H43c-0.552,0-1-0.448-1-1v-9h10h3c0.553,0,1-0.447,1-1V3c0-0.553-0.447-1-1-1H32H9C8.447,2,8,2.447,8,3
	v18c0,0.553,0.447,1,1,1h3h10v9c0,0.552-0.448,1-1,1h-4.54c0.954-1.063,1.54-2.462,1.54-4c0-3.309-2.691-6-6-6s-6,2.691-6,6
	c0,1.538,0.586,2.937,1.54,4H7c-2.757,0-5,2.243-5,5v9c0,0.553,0.447,1,1,1h2.78L3.02,60.804c-0.059,0.294,0.018,0.599,0.207,0.83
	C3.417,61.865,3.7,62,4,62h5c0.472,0,0.879-0.329,0.978-0.79L12,51.772l2.022,9.438C14.121,61.671,14.528,62,15,62h5
	c0.3,0,0.583-0.135,0.773-0.366c0.189-0.231,0.266-0.536,0.207-0.83L18,45.901V38h3c3.859,0,7-3.141,7-7v-9h4h4v9
	c0,3.859,3.141,7,7,7h3v7.901l-2.98,14.902c-0.059,0.294,0.018,0.599,0.207,0.83C43.417,61.865,43.7,62,44,62h5
	c0.472,0,0.879-0.329,0.978-0.79L52,51.772l2.022,9.438C54.121,61.671,54.528,62,55,62h5c0.3,0,0.583-0.135,0.773-0.366
	c0.189-0.231,0.266-0.536,0.207-0.83L58.22,47H61c0.553,0,1-0.447,1-1v-9C62,34.243,59.757,32,57,32z M48,28c0-2.206,1.794-4,4-4
	s4,1.794,4,4s-1.794,4-4,4S48,30.206,48,28z M8,28c0-2.206,1.794-4,4-4s4,1.794,4,4s-1.794,4-4,4S8,30.206,8,28z M26,31
	c0,2.757-2.243,5-5,5h-4c-0.553,0-1,0.447-1,1v9c0,0.065,0.007,0.132,0.02,0.196L18.78,60h-2.972l-2.831-13.21
	C12.879,46.329,12.472,46,12,46s-0.879,0.329-0.978,0.79L8.191,60H5.22L7.98,46.196C7.993,46.132,8,46.065,8,46v-9H6v8H4v-8
	c0-1.654,1.346-3,3-3h14c1.654,0,3-1.346,3-3v-9h2V31z M31,14v6h-4h-4H10V4h21v6c0,0.553,0.447,1,1,1h1.555
	c0.355,0,0.685-0.189,0.864-0.497C34.967,9.562,35.932,9,37,9c1.654,0,3,1.346,3,3s-1.346,3-3,3c-1.068,0-2.033-0.562-2.581-1.503
	C34.239,13.189,33.91,13,33.555,13H32C31.447,13,31,13.447,31,14z M33,15h0.021c0.939,1.246,2.416,2,3.979,2c2.757,0,5-2.243,5-5
	s-2.243-5-5-5c-1.563,0-3.04,0.754-3.979,2l-0.017-5H54v16H41h-4h-4V15z M60,45h-2v-8h-2v9c0,0.065,0.007,0.132,0.02,0.196L58.78,60
	h-2.972l-2.831-13.21C52.879,46.329,52.472,46,52,46s-0.879,0.329-0.978,0.79L48.191,60H45.22l2.761-13.804
	C47.993,46.132,48,46.065,48,46v-9c0-0.553-0.447-1-1-1h-4c-2.757,0-5-2.243-5-5v-9h2v9c0,1.654,1.346,3,3,3h14c1.654,0,3,1.346,3,3
	V45z"/>
</svg>
